<svg width="1000" height="1000" viewBox="0 0 1000 1000" fill="none" xmlns="http://www.w3.org/2000/svg">
<path d="M485 354C480.34 362.45 471 367.69 465 375C454.25 387.15 456.22 410.33 474 415C474.44 397.83 487.74 387.34 499.75 375.75C511.76 364.16 507.89 339.25 489 337C489.37 343.19 487.89 348.76 485 354Z" stroke="#F5F6F7" stroke-width="0.3"/>
<path d="M516 393C513.26 397.2 508.71 400.83 505 404C486.01 413.54 483.35 448.76 508 451C505.44 433.79 520.36 424.53 531.23 413.23C542.1 401.93 539.89 378.08 522 375C521.98 381.31 519.32 387.91 516 393Z" stroke="#F4F6F7" stroke-width="0.3"/>
<path d="M463 474C452.56 475.01 441.19 476.2 431.07 478.07C420.95 479.95 413.03 482.25 403.22 485.22C393.42 488.2 389.74 491.44 381.25 498.25C372.76 505.06 375.31 513.94 377 523C386.05 536.2 402.31 538.87 417.07 543.93C431.84 548.98 454.21 550.36 471 552C487.79 553.64 513.23 553.72 530 552C546.77 550.28 568.88 548.66 583.67 543.67C598.47 538.68 615.5 536.17 624 522C631.07 492.09 595.28 482.4 572 479C568.85 478.54 565.67 477.66 563 477C557.58 476.23 552.57 475.51 547 475C541.88 474.53 535.64 473.44 531 473C528.67 473 526.33 473 524 473C509.67 473 495.33 473 481 473C474.76 473 469.03 473.42 463 474ZM527 490C529.88 490.27 533.78 490.78 536 491C548.11 491 567.75 495.82 578.22 497.78C588.69 499.74 610.83 507.12 600.75 517.75C590.68 528.38 576.8 526.04 564 530C551.2 533.96 533.25 534.59 520 536C520.99 536.09 522.01 535.93 523 536C507.47 537.09 488.01 538.87 473 535C468.72 534.91 465.12 534.46 461 534C454.5 534.19 449.3 534.07 443 532C435.23 530.76 427.79 528.34 420 527C416.44 526.39 414.93 525.48 412 524C408.41 522.77 404.1 521.02 401 519C397.16 516.5 395.23 514.04 397 510C401.35 500.06 414.03 501.52 423 498C431.98 494.49 444.41 493.41 455 492C465.59 490.59 478.39 488.96 490 489C501.61 489.04 515.6 488.93 527 490Z" stroke="#F5F8F8" stroke-width="0.3"/>
<path d="M397 510C396.23 513.36 398.44 517.04 401 519C404.1 521.02 408.41 522.77 412 524C414.49 524.85 417.79 526.39 420 527C427.79 528.34 435.23 530.76 443 532C449.02 532.96 454.89 533.32 461 534C465.12 534.46 468.72 534.91 473 535C476.95 535.08 480.18 535.74 484 536C493.68 535.72 505.31 534.97 515 536C516.63 536 518.38 536.17 520 536C533.25 534.59 551.2 533.96 564 530C576.8 526.04 590.68 528.38 600.75 517.75C610.83 507.12 588.69 499.74 578.22 497.78C567.75 495.82 548.11 491 536 491C532.72 491 529.61 490.55 527 490C515.6 488.93 501.61 489.04 490 489C478.39 488.96 465.59 490.59 455 492C444.41 493.41 431.98 494.49 423 498C414.03 501.52 401.35 500.06 397 510Z" stroke="#02203E" stroke-width="0.3"/>
<path d="M536 491C533.78 490.78 529.88 490.27 527 490C529.61 490.55 532.72 491 536 491Z" stroke="#41505D" stroke-width="0.3"/>
<path d="M401 519C398.44 517.04 396.23 513.36 397 510C395.23 514.04 397.16 516.5 401 519Z" stroke="#73838D" stroke-width="0.3"/>
<path d="M377 523C381.44 546.85 385.89 572.18 403.25 590.75C420.6 609.33 436.2 620.23 459.98 628.02C483.75 635.82 517.56 635.1 541.33 627.33C565.09 619.55 580.15 608.57 597.75 589.75C615.35 570.92 618.4 545.7 624 522C615.5 536.17 598.47 538.68 583.67 543.67C568.88 548.66 546.77 550.28 530 552C513.23 553.72 487.79 553.64 471 552C454.21 550.36 431.84 548.98 417.07 543.93C402.31 538.87 386.05 536.2 377 523ZM523 581C530.69 582.68 526.97 595.85 519 593C511.03 590.15 516.09 579.49 523 581ZM506 599C513.49 601.81 508.69 616.53 500.33 612.67C491.97 608.81 497.74 595.91 506 599Z" stroke="#6588B7" stroke-width="0.3"/>
<path d="M420 527C417.79 526.39 414.49 524.85 412 524C414.93 525.48 416.44 526.39 420 527Z" stroke="#94AAAE" stroke-width="0.3"/>
<path d="M461 534C454.89 533.32 449.02 532.96 443 532C449.3 534.07 454.5 534.19 461 534Z" stroke="#BBD1D8" stroke-width="0.3"/>
<path d="M520 536C518.38 536.17 516.63 536 515 536C504.75 536 494.22 536.7 484 536C480.18 535.74 476.95 535.08 473 535C488.01 538.87 507.47 537.09 523 536C522.01 535.93 520.99 536.09 520 536Z" stroke="#C6DCDF" stroke-width="0.3"/>
<path d="M254 563C255.51 558.97 264.61 558.93 266 563C264.76 557.55 255.41 557.66 254 563Z" stroke="#838F9B" stroke-width="0.3"/>
<path d="M293 559C286.65 557.81 281.02 567.65 289 571C296.98 574.34 300.62 560.42 293 559Z" stroke="#132941" stroke-width="0.3"/>
<path d="M254 563C251.06 574.13 268.3 573.09 266 563C264.61 558.93 255.51 558.97 254 563Z" stroke="#11253D" stroke-width="0.3"/>
<path d="M298 581C303.94 578.75 309.43 575.49 315 573C308.73 574.85 303.39 578 298 581Z" stroke="#C5DFED" stroke-width="0.3"/>
<path d="M523 581C516.09 579.49 511.03 590.15 519 593C526.97 595.85 530.69 582.68 523 581Z" stroke="#0A294E" stroke-width="0.3"/>
<path d="M506 599C497.74 595.91 491.97 608.81 500.33 612.67C508.69 616.53 513.49 601.81 506 599Z" stroke="#072846" stroke-width="0.3"/>
<path d="M512 704C504 704 496 704 488 704C495.48 704.72 504.45 704.73 512 704Z" stroke="#2A4F6F" stroke-width="0.3"/>
<path d="M413 711C406.14 708.75 401.47 719.26 408.33 722.67C415.19 726.08 419.37 713.09 413 711Z" stroke="#09294A" stroke-width="0.3"/>
<path d="M440 720C431.75 716.66 426.39 728.15 433.78 732.22C441.17 736.29 446.62 722.68 440 720Z" stroke="#0B2C4C" stroke-width="0.3"/>
<path d="M484 773C481.12 772.72 476.54 772.33 473 772C476.22 772.68 480.09 773 484 773Z" stroke="#334F70" stroke-width="0.3"/>
<path d="M473 226.142C467.97 226.702 462.96 227.432 458 228.142C454.91 228.902 451.6 229.672 448 230.142C416.61 234.232 389.93 249.172 362 263.142C358.09 265.562 353.94 268.542 350 271.142C344.77 274.592 339.96 279.492 334.7 282.842C329.44 286.192 325.59 292.412 320 295.142C315.41 299.732 310.54 304.602 306 309.142C302.18 313.612 297.69 317.732 294 322.142C279.19 347.082 262.51 364.392 252.31 392.452C242.1 420.502 232 452.732 232 484.142C232 495.472 232 506.812 232 518.142C232 540.132 236.25 561.892 243 582.142C248.19 589.702 262.61 588.642 271 589.142C279.39 589.642 290.71 585.092 298.5 582.142C303.89 579.142 309.23 575.992 315.5 574.142C321.39 572.402 338.2 567.702 339 561.142C333.91 544.382 330 526.112 330 508.142C329.21 499.962 329.21 490.252 330 482.142C330 438.202 350.42 397.812 377 364.142C381.13 358.912 386.61 352.992 392 349.142C424.18 326.162 456.01 308.932 497 309.142C537.99 309.352 572.28 321.102 604 346.142C609.79 350.712 615.26 356.592 620 362.142C636.56 381.832 649.43 404.592 656 429.142C684.28 410.652 711.56 390.052 740 372.142C731.3 349.372 713.23 331.442 698 312.142C692.25 305.922 685.32 298.652 679 293.142C648.51 270.472 615.5 248 577 235C565.5 231.358 562 230.5 542 227.142C541.02 227.062 539.98 226.5 539 226.5C535 225.5 526.5 224 520.5 224C517.24 223.68 514.28 224 511 224C502.67 224 494.33 224.33 486 224.5C481.47 224.59 477.43 225.642 473 226.142ZM266 563.142C268.3 573.232 251.06 574.272 254 563.142C255.41 557.802 264.76 557.692 266 563.142ZM293 559.142C300.62 560.562 296.98 574.482 289 571.142C281.02 567.792 286.65 557.952 293 559.142Z" fill="#FCFBFA"/>
<path d="M485 354C480.34 362.45 471 367.69 465 375C454.25 387.15 456.22 410.33 474 415C474.44 397.83 487.74 387.34 499.75 375.75C511.76 364.16 507.89 339.25 489 337C489.37 343.19 487.89 348.76 485 354Z" fill="#F5F6F7"/>
<path d="M516 393C513.26 397.2 508.71 400.83 505 404C486.01 413.54 483.35 448.76 508 451C505.44 433.79 520.36 424.53 531.23 413.23C542.1 401.93 539.89 378.08 522 375C521.98 381.31 519.32 387.91 516 393Z" fill="#F4F6F7"/>
<path d="M463 474C452.56 475.01 441.19 476.2 431.07 478.07C420.95 479.95 413.03 482.25 403.22 485.22C393.42 488.2 389.74 491.44 381.25 498.25C372.76 505.06 375.31 513.94 377 523C386.05 536.2 402.31 538.87 417.07 543.93C431.84 548.98 454.21 550.36 471 552C487.79 553.64 513.23 553.72 530 552C546.77 550.28 568.88 548.66 583.67 543.67C598.47 538.68 615.5 536.17 624 522C631.07 492.09 595.28 482.4 572 479C568.85 478.54 565.67 477.66 563 477C557.58 476.23 552.57 475.51 547 475C541.88 474.53 535.64 473.44 531 473C528.67 473 526.33 473 524 473C509.67 473 495.33 473 481 473C474.76 473 469.03 473.42 463 474ZM527 490C529.88 490.27 533.78 490.78 536 491C548.11 491 567.75 495.82 578.22 497.78C588.69 499.74 610.83 507.12 600.75 517.75C590.68 528.38 576.8 526.04 564 530C551.2 533.96 533.25 534.59 520 536C520.99 536.09 522.01 535.93 523 536C507.47 537.09 488.01 538.87 473 535C468.72 534.91 465.12 534.46 461 534C454.5 534.19 449.3 534.07 443 532C435.23 530.76 427.79 528.34 420 527C416.44 526.39 414.93 525.48 412 524C408.41 522.77 404.1 521.02 401 519C397.16 516.5 395.23 514.04 397 510C401.35 500.06 414.03 501.52 423 498C431.98 494.49 444.41 493.41 455 492C465.59 490.59 478.39 488.96 490 489C501.61 489.04 515.6 488.93 527 490Z" fill="#F5F8F8"/>
<path d="M536 491C533.78 490.78 529.88 490.27 527 490C529.61 490.55 532.72 491 536 491Z" fill="#41505D" stroke="black"/>
<path d="M637 531C636.38 536.53 635.88 542.09 635 547C634.39 556.06 630.83 564.32 629 573C634.67 571.98 640.7 572.36 646 570C644.92 553.38 645.46 533.25 664 528C668.79 526.64 672.8 527.06 677 530C692.83 542.37 683.72 564.06 669.08 574.08C654.44 584.11 635.45 589.73 617 589C615.64 594.98 609.82 598.68 607 604C606.58 607.78 614.79 605.59 619 606C623.21 606.41 629.68 605.48 634 605C649.02 604.1 662.7 598.27 676 592C678.78 596.72 680.63 601.52 681 607C681.63 610.5 681.67 613.55 681 617C680.15 627.76 673.22 637.7 667 646C666.54 646.61 666.38 647.39 666 648C664.48 650.45 662.77 652.75 661 655C645.93 674.09 627.05 688.6 609 702C624.2 709.48 637.75 720.89 654 726C663.84 718.83 673.37 711.23 683 703C687.25 698.75 691.8 694.2 696 690C715.26 669.1 731.53 645.83 742 620C736 614.31 728.82 610.46 722.25 605.75C715.67 601.04 709.67 596.43 702.75 592.25C695.83 588.07 687.28 582.78 693.7 575.7C700.12 568.61 702.51 560.95 703 552C703.19 548.43 703.24 544.57 703 541C702.64 535.78 700.96 531.71 699 527C696.84 523.21 692.5 517.94 689 515C684.4 511.71 679.39 510.19 674 509C670.52 508.64 666.49 508.76 663 509C650.9 509.82 639.7 519.39 637 531Z" fill="#F8F9F9"/>
<path d="M401 519C398.44 517.04 396.23 513.36 397 510C395.23 514.04 397.16 516.5 401 519Z" fill="#73838D" stroke="black"/>
<path d="M377 523C381.44 546.85 385.89 572.18 403.25 590.75C420.6 609.33 436.2 620.23 459.98 628.02C483.75 635.82 517.56 635.1 541.33 627.33C565.09 619.55 580.15 608.57 597.75 589.75C615.35 570.92 618.4 545.7 624 522C615.5 536.17 598.47 538.68 583.67 543.67C568.88 548.66 546.77 550.28 530 552C513.23 553.72 487.79 553.64 471 552C454.21 550.36 431.84 548.98 417.07 543.93C402.31 538.87 386.05 536.2 377 523ZM523 581C530.69 582.68 526.97 595.85 519 593C511.03 590.15 516.09 579.49 523 581ZM506 599C513.49 601.81 508.69 616.53 500.33 612.67C491.97 608.81 497.74 595.91 506 599Z" fill="#6CB765"/>
<path d="M420 527C417.79 526.39 414.49 524.85 412 524C414.93 525.48 416.44 526.39 420 527Z" fill="#94AAAE" stroke="black"/>
<path d="M461 534C454.89 533.32 449.02 532.96 443 532C449.3 534.07 454.5 534.19 461 534Z" fill="#BBD1D8" stroke="black"/>
<path d="M520 536C518.38 536.17 516.63 536 515 536C504.75 536 494.22 536.7 484 536C480.18 535.74 476.95 535.08 473 535C488.01 538.87 507.47 537.09 523 536C522.01 535.93 520.99 536.09 520 536Z" fill="#C6DCDF" stroke="black"/>
<path d="M484 536C494.22 536.7 504.75 536 515 536C505.31 534.97 493.68 535.72 484 536Z" fill="#223E48" stroke="black"/>
<path d="M293 559C286.65 557.81 281.02 567.65 289 571C296.98 574.34 300.62 560.42 293 559Z" fill="#0E1F09"/>
<path d="M254 563C251.06 574.13 268.3 573.09 266 563C264.61 558.93 255.51 558.97 254 563Z" fill="#0E1F09"/>
<path d="M315 573C309.43 575.49 303.94 578.75 298 581C290.21 583.95 279.39 589.5 271 589C262.61 588.5 248.19 589.56 243 582C259.35 631.05 284.53 674.24 325.75 709.25C366.97 744.26 419.18 766.95 473 772C476.54 772.33 481.12 772.72 484 773C546.03 773 604.4 762.15 654 726C637.75 720.89 624.2 709.48 609 702C627.05 688.6 645.93 674.09 661 655C657.84 658.42 654.77 658.67 651 661C608.51 687.3 563.37 704 512 704C504.45 704.73 495.48 704.72 488 704C458.11 705 425.62 696.32 399.02 686.98C372.43 677.64 354.55 665.5 334.25 645.75C313.95 625.99 315.76 590.22 345 580C344.47 573.3 340.83 567.02 339 561C338.2 567.56 320.89 571.26 315 573ZM413 711C419.37 713.09 415.19 726.08 408.33 722.67C401.47 719.26 406.14 708.75 413 711ZM440 720C446.62 722.68 441.17 736.29 433.78 732.22C426.39 728.15 431.75 716.66 440 720Z" fill="#6CB765"/>
<path d="M523 581C516.09 579.49 511.03 590.15 519 593C526.97 595.85 530.69 582.68 523 581Z" fill="#0E1F09"/>
<path d="M370 587C367.41 590.03 358.45 598.37 357 603.5C355.98 610.19 358.4 618.09 362 623.5C390.14 653.64 445.18 666 485 666C495.33 666 505.68 666.21 516 666C524.76 665.82 534.21 663.98 543 663.5C547.47 662.86 573.73 655.68 578.5 654.5C577.71 654.45 575.98 641.95 574.5 642C574 642.02 549.99 649.44 549.5 649.5C546.86 649.81 548.71 651.56 546 652C542.16 652.62 552 651.782 547.5 651.262C552.68 648.862 541.28 653.75 547 652C555.7 649.1 562.39 644.13 570.25 639.25C578.1 634.36 583.06 625.2 593 625C592.99 625 593 624 593 624C589.04 624.08 587.3 624.18 584 626C581.38 627.97 580.08 630.43 577 632C512.78 671.54 413.52 652.96 379 582C375.33 582.15 372.8 585.39 370 587Z" fill="#6CB765"/>
<path d="M347.182 605C344.692 609.07 343.522 614.06 344.182 619C350.282 642.52 376.522 651.84 397.162 661.03C417.792 670.21 450.792 675.94 474.182 678C476.922 677.98 481.382 677.73 484.182 678C494.302 678.98 505.012 678 515.182 678C519.892 677.54 525.782 677 531.182 677C555.332 675.32 584.682 669.11 606.112 659.93C627.532 650.74 647.742 641.6 656.182 619C644.262 621.36 632.692 624 620.182 624C611.862 624.81 602.182 624.82 593.182 625C583.242 625.2 578.282 634.36 570.432 639.25C562.572 644.13 555.882 649.1 547.182 652C545.692 652.68 556.13 649.1 559 647.5C561.71 647.06 546.86 656.81 549.5 656.5C556.34 654.39 516.9 665.63 524 667.5C514.54 673.94 553.412 658.74 542.182 660C533.392 660.48 524.942 661.82 516.182 662C506.452 663.18 494.822 662.93 485.182 662C445.362 662 394.322 653.14 366.182 623C360.922 617.36 359.112 610.33 361.182 603C362.632 597.87 367.592 590.03 370.182 587C361.372 592.07 354.082 596.6 347.182 605Z" fill="#F6F8F9"/>
<path d="M506 599C497.74 595.91 491.97 608.81 500.33 612.67C508.69 616.53 513.49 601.81 506 599Z" fill="#0E1F09"/>
<path d="M413 711C406.14 708.75 401.47 719.26 408.33 722.67C415.19 726.08 419.37 713.09 413 711Z" fill="#0E1F09"/>
<path d="M440 720C431.75 716.66 426.39 728.15 433.78 732.22C441.17 736.29 446.62 722.68 440 720Z" fill="#0E1F09"/>
<ellipse cx="503.5" cy="513" rx="109.5" ry="28" fill="#0E1F09"/>
</svg>
