<svg width="126" height="137" viewBox="0 0 126 137" fill="none" xmlns="http://www.w3.org/2000/svg">
<path d="M99.2126 77.1377C99.0588 78.5094 98.9348 79.8884 98.7165 81.1062C98.5652 83.3534 97.6822 85.4022 97.2283 87.5551C98.6347 87.3021 100.13 87.3963 101.445 86.811C101.177 82.6887 101.311 77.6958 105.909 76.3936C107.098 76.0563 108.092 76.1605 109.134 76.8897C113.06 79.9579 110.801 85.3377 107.169 87.8229C103.538 90.3107 98.8281 91.7046 94.252 91.5236C93.9146 93.0068 92.4711 93.9245 91.7716 95.244C91.6675 96.1816 93.7038 95.6384 94.748 95.7401C95.7922 95.8418 97.397 95.6111 98.4685 95.4921C102.194 95.2688 105.587 93.8228 108.886 92.2677C109.575 93.4384 110.034 94.6289 110.126 95.9881C110.282 96.8562 110.292 97.6127 110.126 98.4685C109.915 101.137 108.196 103.603 106.654 105.661C106.539 105.813 106.5 106.006 106.405 106.157C106.028 106.765 105.604 107.336 105.165 107.894C101.428 112.629 96.7447 116.228 92.2677 119.551C96.0378 121.406 99.3986 124.236 103.429 125.504C105.87 123.726 108.233 121.84 110.622 119.799C111.676 118.745 112.805 117.616 113.846 116.575C118.624 111.391 122.659 105.619 125.256 99.2125C123.768 97.8012 121.987 96.8463 120.357 95.6781C118.725 94.5099 117.237 93.3664 115.521 92.3297C113.804 91.2929 111.684 89.9808 113.276 88.2248C114.868 86.4662 115.461 84.5663 115.583 82.3464C115.63 81.4609 115.642 80.5035 115.583 79.6181C115.493 78.3233 115.077 77.3138 114.591 76.1456C114.055 75.2056 112.978 73.8985 112.11 73.1692C110.969 72.3532 109.727 71.9762 108.39 71.681C107.527 71.5918 106.527 71.6215 105.661 71.681C102.66 71.8844 99.8823 74.2581 99.2126 77.1377Z" fill="#F8F9F9"/>
<path d="M62.752 32.2793C61.5962 34.3752 59.2795 35.6749 57.7913 37.488C55.125 40.5016 55.6136 46.251 60.0236 47.4093C60.1328 43.1506 63.4316 40.5487 66.4104 37.674C69.3893 34.7993 68.4294 28.6209 63.7441 28.0628C63.8359 29.5981 63.4688 30.9797 62.752 32.2793Z" stroke="#F5F6F7" stroke-width="0.0744095"/>
<path d="M70.4409 41.9525C69.7613 42.9943 68.6328 43.8946 67.7126 44.6809C63.0025 47.0471 62.3427 55.7828 68.4567 56.3384C67.8217 52.0697 71.5224 49.773 74.2185 46.9702C76.9146 44.1675 76.3664 38.2519 71.9291 37.488C71.9242 39.0531 71.2644 40.6901 70.4409 41.9525Z" stroke="#F4F6F7" stroke-width="0.0744095"/>
<path d="M57.2953 62.0431C54.7059 62.2936 51.8857 62.5888 49.3757 63.0526C46.8656 63.5189 44.9012 64.0894 42.468 64.8261C40.0373 65.5652 39.1245 66.3688 37.0187 68.0579C34.9129 69.747 35.5454 71.9495 35.9646 74.1967C38.2093 77.4707 42.2423 78.1329 45.9032 79.388C49.5666 80.6405 55.1151 80.9828 59.2796 81.3896C63.444 81.7964 69.7539 81.8162 73.9134 81.3896C78.0729 80.963 83.5569 80.5612 87.2253 79.3235C90.8961 78.0858 95.1201 77.4633 97.2284 73.9486C98.982 66.53 90.1049 64.1266 84.3307 63.2833C83.5494 63.1692 82.7607 62.9509 82.0984 62.7872C80.7541 62.5962 79.5115 62.4177 78.1299 62.2912C76.86 62.1746 75.3123 61.9042 74.1614 61.7951C73.5835 61.7951 73.0031 61.7951 72.4252 61.7951C68.8709 61.7951 65.3142 61.7951 61.7599 61.7951C60.2122 61.7951 58.7909 61.8993 57.2953 62.0431ZM73.1693 66.0116C73.8836 66.0786 74.851 66.2051 75.4016 66.2597C78.4053 66.2597 83.2766 67.4552 85.8735 67.9413C88.4704 68.4275 93.9618 70.2579 91.4616 72.8945C88.964 75.5311 85.5213 74.9507 82.3465 75.9329C79.1717 76.9151 74.7195 77.0714 71.4331 77.4211C71.6786 77.4434 71.9316 77.4037 72.1772 77.4211C68.3253 77.6914 63.4986 78.1329 59.7756 77.1731C58.714 77.1507 57.8211 77.0391 56.7992 76.925C55.187 76.9722 53.8973 76.9424 52.3347 76.429C50.4075 76.1214 48.5621 75.5212 46.6299 75.1888C45.747 75.0375 45.3724 74.8118 44.6457 74.4447C43.7553 74.1396 42.6862 73.7056 41.9173 73.2046C40.9649 72.5845 40.4862 71.9743 40.9252 70.9723C42.0042 68.5068 45.1492 68.869 47.374 67.9959C49.6014 67.1253 52.6844 66.8574 55.311 66.5077C57.9377 66.158 61.1125 65.7537 63.9922 65.7636C66.8718 65.7735 70.3418 65.7462 73.1693 66.0116Z" stroke="#F5F8F8" stroke-width="0.0744095"/>
<path d="M40.9252 70.9723C40.7342 71.8057 41.2823 72.7184 41.9173 73.2046C42.6862 73.7056 43.7552 74.1396 44.6457 74.4447C45.2633 74.6555 46.0818 75.0375 46.6299 75.1888C48.5621 75.5212 50.4074 76.1214 52.3346 76.429C53.8278 76.6671 55.2837 76.7564 56.7992 76.925C57.8211 77.0391 58.714 77.1507 59.7756 77.1731C60.7553 77.1929 61.5564 77.3566 62.5039 77.4211C64.9049 77.3516 67.7895 77.1656 70.1929 77.4211C70.5972 77.4211 71.0312 77.4633 71.4331 77.4211C74.7195 77.0714 79.1716 76.9151 82.3464 75.9329C85.5212 74.9507 88.9639 75.5311 91.4616 72.8945C93.9618 70.2579 88.4703 68.4275 85.8734 67.9413C83.2766 67.4552 78.4052 66.2597 75.4016 66.2597C74.588 66.2597 73.8166 66.1481 73.1693 66.0116C70.3417 65.7462 66.8718 65.7735 63.9921 65.7636C61.1125 65.7537 57.9377 66.158 55.311 66.5077C52.6844 66.8574 49.6013 67.1253 47.374 67.9959C45.1492 68.869 42.0041 68.5068 40.9252 70.9723Z" stroke="#02203E" stroke-width="0.0744095"/>
<path d="M75.4016 66.2596C74.851 66.2051 73.8836 66.0786 73.1693 66.0116C73.8167 66.148 74.5881 66.2596 75.4016 66.2596Z" stroke="#41505D" stroke-width="0.0744095"/>
<path d="M41.9173 73.2045C41.2824 72.7184 40.7342 71.8056 40.9252 70.9722C40.4862 71.9743 40.9649 72.5844 41.9173 73.2045Z" stroke="#73838D" stroke-width="0.0744095"/>
<path d="M35.9646 74.1966C37.0659 80.1122 38.1696 86.3948 42.4754 91.0008C46.7788 95.6092 50.6481 98.3127 56.5463 100.245C62.442 102.18 70.8279 102.001 76.7236 100.074C82.6168 98.1441 86.3522 95.4207 90.7176 90.7527C95.0829 86.0823 95.8394 79.827 97.2284 73.9486C95.1201 77.4632 90.8961 78.0858 87.2253 79.3234C83.5569 80.5611 78.0729 80.9629 73.9134 81.3896C69.7539 81.8162 63.444 81.7963 59.2796 81.3896C55.1151 80.9828 49.5666 80.6405 45.9032 79.3879C42.2423 78.1329 38.2093 77.4707 35.9646 74.1966ZM72.1772 88.5825C74.0846 88.9992 73.1619 92.2657 71.1851 91.5588C69.2083 90.852 70.4633 88.2079 72.1772 88.5825ZM67.9607 93.047C69.8184 93.744 68.6279 97.395 66.5543 96.4376C64.4808 95.4802 65.9119 92.2806 67.9607 93.047Z" stroke="#6588B7" stroke-width="0.0744095"/>
<path d="M46.6299 75.1888C46.0818 75.0375 45.2633 74.6555 44.6457 74.4447C45.3724 74.8118 45.7469 75.0375 46.6299 75.1888Z" stroke="#94AAAE" stroke-width="0.0744095"/>
<path d="M56.7992 76.925C55.2838 76.7564 53.8278 76.6671 52.3347 76.429C53.8973 76.9424 55.187 76.9721 56.7992 76.925Z" stroke="#BBD1D8" stroke-width="0.0744095"/>
<path d="M71.4331 77.4211C71.0313 77.4632 70.5972 77.4211 70.1929 77.4211C67.6506 77.4211 65.0388 77.5947 62.504 77.4211C61.5565 77.3566 60.7553 77.1929 59.7756 77.173C63.4986 78.1329 68.3253 77.6914 72.1772 77.4211C71.9316 77.4037 71.6786 77.4434 71.4331 77.4211Z" stroke="#C6DCDF" stroke-width="0.0744095"/>
<path d="M15.1299 83.1258C13.5549 82.8307 12.1585 85.2713 14.1377 86.1022C16.117 86.9306 17.0199 83.478 15.1299 83.1258Z" stroke="#132941" stroke-width="0.0744095"/>
<path d="M16.3701 88.5825C17.8434 88.0244 19.2051 87.2159 20.5866 86.5983C19.0314 87.0571 17.7069 87.8384 16.3701 88.5825Z" stroke="#C5DFED" stroke-width="0.0744095"/>
<path d="M72.1772 88.5825C70.4633 88.2079 69.2083 90.852 71.1851 91.5588C73.1619 92.2657 74.0846 88.9992 72.1772 88.5825Z" stroke="#0A294E" stroke-width="0.0744095"/>
<path d="M67.9606 93.0471C65.9119 92.2806 64.4807 95.4802 66.5543 96.4376C68.6278 97.395 69.8184 93.744 67.9606 93.0471Z" stroke="#072846" stroke-width="0.0744095"/>
<path d="M44.8937 120.827C43.1922 120.269 42.0339 122.875 43.7354 123.721C45.4369 124.567 46.4736 121.345 44.8937 120.827Z" stroke="#09294A" stroke-width="0.0744095"/>
<path d="M51.5906 123.059C49.5443 122.23 48.2149 125.08 50.0478 126.09C51.8808 127.099 53.2326 123.724 51.5906 123.059Z" stroke="#0B2C4C" stroke-width="0.0744095"/>
<path d="M59.7756 0.566601C58.528 0.705499 57.2854 0.886562 56.0551 1.06266C55.2887 1.25117 54.4677 1.44215 53.5748 1.55873C45.7891 2.57318 39.1716 6.27877 32.2441 9.74377C31.2743 10.344 30.245 11.0831 29.2677 11.728C27.9705 12.5837 26.7775 13.7991 25.4728 14.63C24.1682 15.4609 23.2133 17.0037 21.8268 17.6808C20.6883 18.8192 19.4804 20.0272 18.3543 21.1532C17.4069 22.2619 16.2932 23.2838 15.378 24.3776C11.7046 30.5635 7.56744 34.857 5.03752 41.8167C2.50512 48.774 0 56.7681 0 64.5587C0 67.3689 0 70.1816 0 72.9918C0 78.446 1.05413 83.8432 2.72835 88.8658C4.01563 90.7409 7.59224 90.478 9.67323 90.602C11.7542 90.7261 14.5619 89.5975 16.4941 88.8659C17.831 88.1218 19.1555 87.3405 20.7106 86.8816C22.1715 86.45 26.3409 85.2842 26.5394 83.6572C25.2769 79.5001 24.3071 74.9686 24.3071 70.5115C24.1111 68.4826 24.1111 66.0742 24.3071 64.0627C24.3071 53.1642 29.3719 43.1462 35.9646 34.7949C36.9889 33.4977 38.3481 32.0294 39.685 31.0745C47.6667 25.3747 55.5615 21.1011 65.7283 21.1532C75.8952 21.2053 84.4002 24.1197 92.2677 30.3304C93.7038 31.4639 95.0606 32.9223 96.2362 34.2989C100.344 39.1826 103.536 44.8278 105.165 50.917C112.18 46.3309 118.946 41.2214 126 36.7792C123.842 31.1315 119.36 26.6843 115.583 21.8973C114.156 20.3546 112.438 18.5514 110.87 17.1847C103.308 11.5618 95.1201 5.988 85.5709 2.76359C82.7185 1.86018 81.8504 1.64745 76.8898 0.814633C76.6467 0.79479 76.3887 0.655369 76.1457 0.655369C75.1535 0.407329 73.0453 0.0352428 71.5571 0.0352733C70.7485 -0.0440968 70.0143 0.0352821 69.2008 0.0352821C67.1347 0.0352821 65.0661 0.11714 63 0.159306C61.8764 0.181628 60.8744 0.442586 59.7756 0.566601ZM8.43307 84.1532C9.00354 86.6559 4.72748 86.9138 5.45669 84.1532C5.80642 82.8287 8.12551 82.8014 8.43307 84.1532ZM15.1299 83.1611C17.0199 83.5133 16.1171 86.9659 14.1378 86.1375C12.1585 85.3066 13.5549 82.8659 15.1299 83.1611Z" fill="#FCFBFA"/>
<path d="M62.752 32.2793C61.5962 34.3752 59.2795 35.6749 57.7913 37.488C55.125 40.5016 55.6136 46.251 60.0236 47.4093C60.1328 43.1506 63.4316 40.5487 66.4104 37.674C69.3893 34.7993 68.4294 28.6209 63.7441 28.0628C63.8359 29.5981 63.4688 30.9797 62.752 32.2793Z" fill="#F5F6F7"/>
<path d="M70.4409 41.9525C69.7613 42.9943 68.6328 43.8946 67.7126 44.6809C63.0025 47.0471 62.3427 55.7828 68.4567 56.3384C67.8217 52.0697 71.5224 49.773 74.2185 46.9702C76.9146 44.1675 76.3664 38.2519 71.9291 37.488C71.9242 39.0531 71.2644 40.6901 70.4409 41.9525Z" fill="#F4F6F7"/>
<path d="M57.2953 62.0431C54.7059 62.2936 51.8857 62.5888 49.3757 63.0526C46.8656 63.5189 44.9012 64.0894 42.468 64.8261C40.0373 65.5652 39.1245 66.3688 37.0187 68.0579C34.9129 69.747 35.5454 71.9495 35.9646 74.1967C38.2093 77.4707 42.2423 78.1329 45.9032 79.388C49.5666 80.6405 55.1151 80.9828 59.2796 81.3896C63.444 81.7964 69.7539 81.8162 73.9134 81.3896C78.0729 80.963 83.5569 80.5612 87.2253 79.3235C90.8961 78.0858 95.1201 77.4633 97.2284 73.9486C98.982 66.53 90.1049 64.1266 84.3307 63.2833C83.5494 63.1692 82.7607 62.9509 82.0984 62.7872C80.7541 62.5962 79.5115 62.4177 78.1299 62.2912C76.86 62.1746 75.3123 61.9042 74.1614 61.7951C73.5835 61.7951 73.0031 61.7951 72.4252 61.7951C68.8709 61.7951 65.3142 61.7951 61.7599 61.7951C60.2122 61.7951 58.7909 61.8993 57.2953 62.0431ZM73.1693 66.0116C73.8836 66.0786 74.851 66.2051 75.4016 66.2597C78.4053 66.2597 83.2766 67.4552 85.8735 67.9413C88.4704 68.4275 93.9618 70.2579 91.4616 72.8945C88.964 75.5311 85.5213 74.9507 82.3465 75.9329C79.1717 76.9151 74.7195 77.0714 71.4331 77.4211C71.6786 77.4434 71.9316 77.4037 72.1772 77.4211C68.3253 77.6914 63.4986 78.1329 59.7756 77.1731C58.714 77.1507 57.8211 77.0391 56.7992 76.925C55.187 76.9722 53.8973 76.9424 52.3347 76.429C50.4075 76.1214 48.5621 75.5212 46.6299 75.1888C45.747 75.0375 45.3724 74.8118 44.6457 74.4447C43.7553 74.1396 42.6862 73.7056 41.9173 73.2046C40.9649 72.5845 40.4862 71.9743 40.9252 70.9723C42.0042 68.5068 45.1492 68.869 47.374 67.9959C49.6014 67.1253 52.6844 66.8574 55.311 66.5077C57.9377 66.158 61.1125 65.7537 63.9922 65.7636C66.8718 65.7735 70.3418 65.7462 73.1693 66.0116Z" fill="#F5F8F8"/>
<path d="M75.4016 66.2596C74.851 66.2051 73.8836 66.0786 73.1693 66.0116C73.8167 66.148 74.5881 66.2596 75.4016 66.2596Z" fill="#41505D" stroke="#9B1414" stroke-width="0.248031"/>
<path d="M41.9173 73.2045C41.2824 72.7184 40.7342 71.8056 40.9252 70.9722C40.4862 71.9743 40.9649 72.5844 41.9173 73.2045Z" fill="#73838D" stroke="#9B1414" stroke-width="0.248031"/>
<path d="M35.9646 74.1966C37.0659 80.1122 38.1696 86.3948 42.4754 91.0008C46.7788 95.6092 50.6481 98.3127 56.5463 100.245C62.442 102.18 70.8279 102.001 76.7236 100.074C82.6168 98.1441 86.3522 95.4207 90.7176 90.7527C95.0829 86.0823 95.8394 79.827 97.2284 73.9486C95.1201 77.4632 90.8961 78.0858 87.2253 79.3234C83.5569 80.5611 78.0729 80.9629 73.9134 81.3896C69.7539 81.8162 63.444 81.7963 59.2796 81.3896C55.1151 80.9828 49.5666 80.6405 45.9032 79.3879C42.2423 78.1329 38.2093 77.4707 35.9646 74.1966ZM72.1772 88.5825C74.0846 88.9992 73.1619 92.2657 71.1851 91.5588C69.2083 90.852 70.4633 88.2079 72.1772 88.5825ZM67.9607 93.047C69.8184 93.744 68.6279 97.395 66.5543 96.4376C64.4808 95.4802 65.9119 92.2806 67.9607 93.047Z" fill="#6CB765"/>
<path d="M46.6299 75.1888C46.0818 75.0375 45.2633 74.6555 44.6457 74.4447C45.3724 74.8118 45.7469 75.0375 46.6299 75.1888Z" fill="#94AAAE" stroke="#9B1414" stroke-width="0.248031"/>
<path d="M56.7992 76.925C55.2838 76.7564 53.8278 76.6671 52.3347 76.429C53.8973 76.9424 55.187 76.9721 56.7992 76.925Z" fill="#BBD1D8" stroke="#9B1414" stroke-width="0.248031"/>
<path d="M71.4331 77.4211C71.0313 77.4632 70.5972 77.4211 70.1929 77.4211C67.6506 77.4211 65.0388 77.5947 62.504 77.4211C61.5565 77.3566 60.7553 77.1929 59.7756 77.173C63.4986 78.1329 68.3253 77.6914 72.1772 77.4211C71.9316 77.4037 71.6786 77.4434 71.4331 77.4211Z" fill="#C6DCDF" stroke="#9B1414" stroke-width="0.248031"/>
<path d="M62.5039 77.421C65.0388 77.5946 67.6506 77.421 70.1929 77.421C67.7895 77.1655 64.9049 77.3516 62.5039 77.421Z" fill="#223E48" stroke="#9B1414" stroke-width="0.248031"/>
<path d="M15.1299 83.1258C13.5549 82.8307 12.1585 85.2713 14.1377 86.1022C16.117 86.9306 17.0199 83.478 15.1299 83.1258Z" fill="#0E1F09"/>
<path d="M20.5866 86.5982C19.2051 87.2158 17.8434 88.0244 16.3701 88.5825C14.4379 89.3141 11.7542 90.6907 9.67321 90.5667C7.59223 90.4427 4.01562 90.7056 2.72833 88.8305C6.78365 100.996 13.0291 111.709 23.2529 120.392C33.4768 129.076 46.4265 134.704 59.7756 135.956C60.6536 136.038 61.7896 136.135 62.5039 136.205C77.8893 136.205 92.3669 133.513 104.669 124.547C100.639 123.28 97.2779 120.45 93.5079 118.594C97.9848 115.271 102.668 111.672 106.406 106.937C105.622 107.785 104.86 107.847 103.925 108.425C93.3863 114.948 82.1902 119.09 69.4488 119.09C67.5762 119.271 65.3513 119.269 63.4961 119.09C56.0824 119.338 48.0238 117.185 41.4262 114.869C34.831 112.552 30.3962 109.541 25.3612 104.642C20.3262 99.7414 20.7751 90.8693 28.0275 88.3344C27.8961 86.6726 26.9933 85.115 26.5394 83.6218C26.3409 85.2489 22.0475 86.1666 20.5866 86.5982ZM44.8937 120.827C46.4737 121.345 45.4369 124.567 43.7354 123.721C42.0339 122.875 43.1922 120.268 44.8937 120.827ZM51.5905 123.059C53.2325 123.724 51.8807 127.099 50.0478 126.09C48.2148 125.08 49.5443 122.23 51.5905 123.059Z" fill="#6CB765"/>
<path d="M72.1772 88.5825C70.4633 88.2079 69.2083 90.852 71.1851 91.5588C73.1619 92.2657 74.0846 88.9992 72.1772 88.5825Z" fill="#0E1F09"/>
<path d="M34.2283 90.0707C33.5859 90.8222 31.3636 92.8908 31.0039 94.1632C30.7509 95.8225 31.3512 97.782 32.2441 99.1238C39.2237 106.599 52.8753 109.665 62.7519 109.665C65.3141 109.665 67.8812 109.717 70.4409 109.665C72.6136 109.621 74.9575 109.164 77.1377 109.045C78.2464 108.886 84.7598 107.105 85.9429 106.813C85.7469 106.8 85.3178 103.7 84.9508 103.712C84.8267 103.717 78.8715 105.558 78.75 105.573C78.0952 105.65 78.554 106.084 77.8819 106.193C76.9294 106.346 79.37 106.139 78.2539 106.01C79.5387 105.414 76.7111 106.627 78.1299 106.193C80.2877 105.473 81.9471 104.241 83.8966 103.03C85.8437 101.817 87.0739 99.5455 89.5393 99.4959C89.5368 99.4959 89.5393 99.2478 89.5393 99.2478C88.5571 99.2677 88.1255 99.2925 87.307 99.7439C86.6572 100.233 86.3348 100.843 85.5708 101.232C69.6422 111.039 45.0226 106.431 36.4606 88.8305C35.5503 88.8677 34.9228 89.6713 34.2283 90.0707Z" fill="#6CB765"/>
<path d="M28.5687 94.5352C27.9511 95.5447 27.6609 96.7824 27.8246 98.0077C29.3376 103.841 35.8459 106.153 40.9653 108.432C46.0822 110.709 54.2672 112.131 60.0687 112.642C60.7483 112.637 61.8545 112.575 62.549 112.642C65.0591 112.885 67.7155 112.642 70.238 112.642C71.4062 112.527 72.8671 112.394 74.2065 112.394C80.1964 111.977 87.4762 110.437 92.7915 108.16C98.1043 105.88 103.117 103.613 105.21 98.0077C102.254 98.593 99.3842 99.2478 96.2813 99.2478C94.2177 99.4487 91.8167 99.4512 89.5844 99.4959C87.119 99.5455 85.8888 101.817 83.9417 103.03C81.9922 104.241 80.3329 105.473 78.175 106.193C77.8054 106.361 80.3945 105.473 81.1063 105.077C81.7785 104.967 78.0952 107.386 78.75 107.309C80.4465 106.786 70.6642 109.573 72.4252 110.037C70.0788 111.635 79.7202 107.864 76.9348 108.177C74.7546 108.296 72.6588 108.628 70.486 108.673C68.0727 108.966 65.1881 108.904 62.797 108.673C52.9204 108.673 40.2609 106.475 33.2813 98.9998C31.9766 97.6009 31.5277 95.8573 32.0411 94.0392C32.4008 92.7668 33.631 90.8222 34.2734 90.0707C32.0883 91.3282 30.2801 92.4518 28.5687 94.5352Z" fill="#F6F8F9"/>
<path d="M67.9606 93.0471C65.9119 92.2806 64.4807 95.4802 66.5543 96.4376C68.6278 97.395 69.8184 93.744 67.9606 93.0471Z" fill="#0E1F09"/>
<path d="M44.8937 120.827C43.1922 120.269 42.0339 122.875 43.7354 123.721C45.4369 124.567 46.4736 121.345 44.8937 120.827Z" fill="#0E1F09"/>
<path d="M51.5906 123.059C49.5443 122.23 48.2149 125.08 50.0478 126.09C51.8808 127.099 53.2326 123.724 51.5906 123.059Z" fill="#0E1F09"/>
<ellipse cx="67.3405" cy="71.7164" rx="27.1594" ry="6.94488" fill="#0E1F09"/>
</svg>
