<svg width="362" height="324" viewBox="0 0 362 324" fill="none" xmlns="http://www.w3.org/2000/svg">
<g clip-path="url(#clip0_228_239)">
<path d="M350.661 198.649C339.219 229.277 315.853 262.43 282.972 272.249C233.258 287.086 227.354 327.129 138.365 323.416C125.366 322.937 112.458 321.046 99.868 317.776C93.7221 316.152 87.6848 314.141 81.7923 311.756C29.8021 290.698 2.6845 244.355 0.439589 195.868C-2.52773 132.086 41.9665 101.69 70.8862 83.8942C99.8059 66.0981 134.66 -2.84158 222.165 0.0869035C235.528 0.487831 248.8 2.42704 261.719 5.86618C291.167 13.836 321.096 31.4612 338.496 57.2272C339.801 59.1692 341.049 61.1474 342.24 63.1618C365.528 102.661 366.251 156.889 350.661 198.649Z" fill="#C6FF00"/>
<path opacity="0.8" d="M350.661 198.649C339.219 229.277 315.853 262.43 282.972 272.249C233.258 287.086 227.354 327.129 138.365 323.416C125.366 322.937 112.458 321.046 99.868 317.776C93.7221 316.152 87.6848 314.141 81.7923 311.756C29.8021 290.698 2.6845 244.355 0.439589 195.868C-2.52773 132.086 41.9665 101.69 70.8862 83.8942C99.8059 66.0981 134.66 -2.84158 222.165 0.0869035C235.528 0.487831 248.8 2.42704 261.719 5.86618C291.167 13.836 321.096 31.4612 338.496 57.2272C339.801 59.1692 341.049 61.1474 342.24 63.1618C365.528 102.661 366.251 156.889 350.661 198.649Z" fill="white"/>
<path d="M340.523 251.446C340.57 251.446 341.409 247.928 341.432 247.695C341.751 245.038 340.788 239.709 338.061 238.459C337.602 238.264 337.107 238.168 336.608 238.178C336.11 238.187 335.619 238.301 335.167 238.513C334.716 238.725 334.314 239.029 333.988 239.407C333.662 239.784 333.42 240.226 333.276 240.703C332.592 242.708 333.563 245.131 334.682 246.786C336.01 248.728 340.523 251.446 340.523 251.446Z" fill="#263238"/>
<path d="M287.236 251.408C289.411 252.301 294.67 252.076 294.678 252.068C294.685 252.06 293.474 248.65 293.365 248.44C292.161 246.048 288.424 242.133 285.457 242.599C284.967 242.689 284.502 242.882 284.092 243.164C283.681 243.446 283.335 243.812 283.075 244.237C282.816 244.662 282.649 245.137 282.586 245.632C282.522 246.126 282.564 246.627 282.707 247.104C283.243 249.155 285.387 250.647 287.236 251.408Z" fill="#263238"/>
<path d="M289.403 266.617C291.648 266.897 296.317 265.437 296.689 265.32C297.517 267.995 298.524 270.611 299.703 273.15C300.379 274.634 301.109 276.102 301.863 277.57C301.42 276.949 301.016 276.405 300.954 276.327C299.16 274.339 294.522 271.55 291.78 272.785C291.332 273.003 290.935 273.312 290.615 273.693C290.295 274.074 290.058 274.518 289.92 274.996C289.782 275.474 289.747 275.976 289.816 276.469C289.884 276.962 290.056 277.435 290.32 277.857C291.376 279.698 293.839 280.561 295.819 280.809C297.8 281.058 301.847 279.893 302.904 279.566C303.191 280.133 303.479 280.693 303.774 281.252C305.195 283.932 306.625 286.604 307.937 289.261C308.403 290.201 308.831 291.141 309.258 292.08C308.862 291.529 308.528 291.071 308.481 291.008C306.679 289.02 302.042 286.231 299.307 287.459C298.859 287.676 298.461 287.986 298.139 288.367C297.818 288.748 297.581 289.193 297.442 289.672C297.304 290.151 297.267 290.654 297.336 291.147C297.404 291.641 297.576 292.115 297.839 292.539C298.896 294.372 301.358 295.234 303.347 295.483C305.335 295.731 308.978 294.706 310.237 294.302C310.641 295.281 311.052 296.252 311.41 297.215C311.635 297.883 311.899 298.504 312.085 299.18C312.272 299.856 312.489 300.509 312.684 301.169C313.018 302.443 313.367 303.756 313.662 305.006C313.88 305.876 314.066 306.707 314.253 307.546C313.802 306.614 312.878 304.789 312.785 304.649C311.309 302.412 307.145 298.955 304.24 299.755C303.763 299.901 303.323 300.146 302.948 300.474C302.572 300.801 302.27 301.204 302.06 301.656C301.851 302.108 301.739 302.599 301.731 303.098C301.724 303.596 301.822 304.09 302.018 304.548C302.795 306.521 305.125 307.756 307.013 308.3C309.134 308.898 313.787 308.214 314.369 308.121C314.68 309.512 314.967 310.863 315.216 312.145C315.915 315.672 316.412 318.748 316.769 321.171H318.774C318.354 318.685 317.772 315.477 316.956 311.78C316.645 310.366 316.288 308.867 315.907 307.329C317.299 306.737 318.656 306.066 319.97 305.317C321.523 306.948 325.516 308.812 326.029 309.046C325.524 310.374 325.019 311.663 324.522 312.867C323.17 316.161 321.904 318.965 320.871 321.171H323.03C323.955 319.058 325.034 316.51 326.138 313.528C326.666 312.176 327.194 310.731 327.691 309.232C328.258 309.341 332.896 310.18 335.04 309.651C336.982 309.17 339.32 308.012 340.151 306.07C340.363 305.619 340.479 305.128 340.489 304.629C340.499 304.13 340.404 303.635 340.209 303.175C340.015 302.716 339.726 302.302 339.361 301.962C338.997 301.622 338.564 301.362 338.092 301.2C335.226 300.307 330.954 303.631 329.408 305.814C329.315 305.946 328.483 307.461 327.979 308.416C328.188 307.81 328.406 307.22 328.615 306.583C329.043 305.34 329.431 304.082 329.858 302.699C330.045 302.039 330.223 301.379 330.41 300.703C330.596 300.027 330.736 299.312 330.899 298.613C331.257 296.982 331.528 295.312 331.777 293.618C332.865 293.991 336.764 295.258 338.768 295.079C340.772 294.9 343.25 294.108 344.369 292.306C344.646 291.892 344.833 291.424 344.917 290.933C345.001 290.441 344.981 289.938 344.858 289.455C344.735 288.972 344.511 288.521 344.202 288.13C343.893 287.739 343.505 287.418 343.064 287.187C340.368 285.866 335.645 288.499 333.789 290.434C333.672 290.55 332.492 292.088 331.862 292.943C332.002 291.925 332.142 290.907 332.251 289.874C332.554 286.899 332.771 283.87 333.028 280.848C333.098 279.924 333.175 278.999 333.253 278.075C333.641 278.215 338.24 279.823 340.485 279.629C342.481 279.45 344.967 278.665 346.085 276.863C346.364 276.45 346.552 275.982 346.638 275.491C346.723 275 346.704 274.497 346.582 274.014C346.459 273.53 346.236 273.078 345.927 272.687C345.618 272.296 345.23 271.975 344.788 271.744C342.093 270.424 337.362 273.057 335.506 274.983C335.366 275.131 333.672 277.314 333.268 277.927C333.439 275.892 333.626 273.873 333.898 271.884C334.243 269.202 334.762 266.545 335.451 263.93C335.63 263.992 340.43 265.685 342.722 265.483C344.718 265.305 347.204 264.52 348.323 262.718C348.601 262.304 348.789 261.837 348.875 261.346C348.96 260.855 348.941 260.351 348.819 259.868C348.696 259.385 348.473 258.933 348.164 258.542C347.855 258.151 347.467 257.83 347.025 257.599C344.33 256.278 339.599 258.912 337.743 260.838C337.618 260.97 336.329 262.648 335.731 263.464L335.583 263.394C336.345 260.779 337.344 258.238 338.566 255.804C339.226 254.453 339.926 253.194 340.632 251.998C341.495 252.402 345.449 254.22 347.538 254.259C349.628 254.297 352.098 253.793 353.403 252.122C353.725 251.741 353.963 251.297 354.101 250.818C354.239 250.339 354.275 249.836 354.207 249.342C354.138 248.848 353.965 248.374 353.701 247.951C353.437 247.528 353.086 247.165 352.673 246.887C350.14 245.287 345.153 247.384 343.095 249.101C342.986 249.194 341.945 250.266 341.207 251.058C341.533 250.514 341.868 249.955 342.186 249.45C343.406 247.532 344.633 245.854 345.736 244.37C346.373 243.539 346.963 242.816 347.523 242.102C348.571 242.102 352.812 241.845 354.653 240.937C356.494 240.028 358.483 238.412 358.879 236.33C358.988 235.844 358.994 235.341 358.895 234.853C358.797 234.364 358.597 233.902 358.308 233.496C358.019 233.09 357.649 232.75 357.22 232.497C356.791 232.244 356.313 232.083 355.819 232.027C352.828 231.763 349.371 235.911 348.33 238.397C348.245 238.614 347.22 242.11 347.274 242.11H347.336C346.792 242.762 346.202 243.469 345.581 244.254C344.446 245.714 343.173 247.361 341.914 249.264C340.532 251.294 339.269 253.403 338.131 255.579C336.848 258.013 335.782 260.555 334.946 263.176V263.269C334.946 262.392 334.853 259.929 334.822 259.743C334.426 257.094 332.095 252.208 329.136 251.726C328.642 251.658 328.139 251.695 327.66 251.835C327.181 251.975 326.737 252.215 326.357 252.538C325.977 252.862 325.67 253.262 325.455 253.712C325.241 254.162 325.124 254.653 325.112 255.152C324.98 257.265 326.557 259.347 328.072 260.652C329.788 262.112 334.496 263.471 334.869 263.58C334.084 266.268 333.482 269.006 333.066 271.775C332.81 273.383 332.608 275.014 332.422 276.653C332.422 275.877 332.367 275.209 332.352 275.1C331.948 272.451 329.618 267.565 326.658 267.083C326.164 267.015 325.661 267.053 325.182 267.193C324.703 267.332 324.259 267.572 323.879 267.895C323.499 268.219 323.192 268.619 322.977 269.069C322.763 269.52 322.646 270.01 322.634 270.509C322.502 272.622 324.079 274.704 325.602 276.009C327.124 277.314 331.132 278.564 332.189 278.875C332.127 279.504 332.057 280.133 331.995 280.763C331.692 283.784 331.412 286.798 331.047 289.742C330.915 290.783 330.752 291.801 330.589 292.849C330.589 292.174 330.534 291.607 330.526 291.521C330.122 288.872 327.792 283.986 324.833 283.505C324.338 283.437 323.835 283.474 323.356 283.614C322.878 283.754 322.434 283.993 322.054 284.317C321.674 284.64 321.367 285.04 321.152 285.491C320.938 285.941 320.821 286.432 320.809 286.93C320.677 289.043 322.254 291.125 323.776 292.422C325.299 293.719 328.911 294.861 330.169 295.242C329.975 296.275 329.781 297.316 329.54 298.349C329.361 299.025 329.237 299.693 329.019 300.361C328.802 301.029 328.623 301.689 328.429 302.35C328.002 303.592 327.575 304.882 327.124 306.094C326.821 306.933 326.518 307.733 326.215 308.533C326.355 307.5 326.588 305.472 326.588 305.301C326.507 302.946 325.822 300.651 324.599 298.637C324.602 298.376 324.581 298.116 324.537 297.86C324.465 297.366 324.29 296.894 324.022 296.473C323.755 296.052 323.402 295.692 322.987 295.417C322.571 295.141 322.103 294.956 321.611 294.874C321.119 294.792 320.616 294.814 320.133 294.939C317.243 295.77 315.511 300.897 315.433 303.577C315.433 303.732 315.565 305.457 315.674 306.536C315.511 305.915 315.363 305.301 315.193 304.657C314.866 303.383 314.493 302.117 314.105 300.773C313.895 300.12 313.678 299.468 313.46 298.8C313.243 298.132 312.971 297.464 312.684 296.788C312.078 295.234 311.386 293.681 310.656 292.127C311.775 291.832 315.721 290.737 317.29 289.478C318.859 288.22 320.498 286.2 320.436 284.087C320.439 283.591 320.338 283.099 320.14 282.645C319.941 282.19 319.65 281.781 319.284 281.446C318.918 281.111 318.486 280.856 318.015 280.698C317.545 280.54 317.046 280.483 316.552 280.53C313.569 280.918 311.114 285.719 310.594 288.36C310.594 288.523 310.431 290.449 310.376 291.513C309.934 290.589 309.491 289.665 309.009 288.74C307.619 286.084 306.127 283.443 304.659 280.794C304.201 280.017 303.766 279.17 303.323 278.362C303.719 278.261 308.442 277.057 310.198 275.651C311.751 274.401 313.406 272.373 313.305 270.253C313.307 269.757 313.206 269.266 313.007 268.812C312.808 268.358 312.516 267.951 312.15 267.617C311.784 267.282 311.352 267.028 310.882 266.871C310.412 266.713 309.914 266.656 309.421 266.703C306.446 267.083 303.983 271.892 303.471 274.525C303.471 274.727 303.246 277.5 303.23 278.215C302.251 276.42 301.296 274.634 300.426 272.824C299.229 270.395 298.191 267.891 297.319 265.328C297.505 265.281 302.445 264.046 304.24 262.609C305.793 261.358 307.448 259.331 307.386 257.21C307.389 256.714 307.288 256.223 307.09 255.768C306.891 255.313 306.6 254.904 306.234 254.569C305.868 254.234 305.436 253.979 304.965 253.821C304.494 253.663 303.996 253.606 303.502 253.653C300.519 254.041 298.064 258.849 297.552 261.483C297.513 261.654 297.365 263.774 297.319 264.784H297.148C296.351 262.18 295.784 259.51 295.454 256.806C295.26 255.323 295.151 253.886 295.081 252.495C296.021 252.355 300.325 251.718 302.073 250.577C303.82 249.435 305.615 247.664 305.786 245.559C305.843 245.064 305.796 244.562 305.648 244.086C305.499 243.611 305.251 243.172 304.922 242.798C304.592 242.424 304.187 242.124 303.734 241.917C303.28 241.71 302.788 241.601 302.29 241.597C299.292 241.651 296.293 246.157 295.516 248.72C295.478 248.86 295.206 250.328 295.027 251.392C295.027 250.763 294.965 250.118 294.957 249.512C294.911 247.244 295.012 245.162 295.113 243.298C295.182 242.249 295.26 241.302 295.346 240.424C296.208 239.803 299.626 237.317 300.651 235.515C301.676 233.713 302.461 231.297 301.638 229.347C301.462 228.88 301.19 228.456 300.84 228.101C300.489 227.746 300.068 227.47 299.603 227.29C299.138 227.109 298.64 227.029 298.142 227.054C297.644 227.079 297.157 227.21 296.713 227.436C294.072 228.873 293.489 234.248 293.986 236.882C294.025 237.115 295.105 240.595 295.151 240.564H295.206C295.105 241.41 295.004 242.327 294.918 243.321C294.779 245.162 294.631 247.244 294.623 249.536C294.591 251.99 294.702 254.443 294.957 256.884C295.236 259.623 295.756 262.331 296.511 264.978V265.071C296.029 264.341 294.592 262.337 294.468 262.197C292.673 260.209 288.036 257.42 285.294 258.647C284.845 258.865 284.447 259.175 284.126 259.556C283.805 259.937 283.567 260.382 283.429 260.861C283.29 261.34 283.254 261.842 283.323 262.336C283.391 262.83 283.562 263.304 283.826 263.728C284.929 265.506 287.391 266.376 289.403 266.617Z" fill="#263238"/>
<path opacity="0.3" d="M287.236 251.408C289.411 252.301 294.67 252.076 294.678 252.068C294.685 252.06 293.474 248.65 293.365 248.44C292.161 246.048 288.424 242.133 285.457 242.599C284.967 242.689 284.502 242.882 284.092 243.164C283.681 243.446 283.335 243.812 283.075 244.237C282.816 244.662 282.649 245.137 282.586 245.632C282.522 246.126 282.564 246.627 282.707 247.104C283.243 249.155 285.387 250.647 287.236 251.408Z" fill="#263238"/>
<path opacity="0.3" d="M340.523 251.446C340.57 251.446 341.409 247.928 341.432 247.695C341.751 245.038 340.788 239.709 338.061 238.459C337.602 238.264 337.107 238.168 336.608 238.178C336.11 238.187 335.619 238.301 335.167 238.513C334.716 238.725 334.314 239.029 333.988 239.407C333.662 239.784 333.42 240.226 333.276 240.703C332.592 242.708 333.563 245.131 334.682 246.786C336.01 248.728 340.523 251.446 340.523 251.446Z" fill="#263238"/>
<path opacity="0.3" d="M289.403 266.617C291.648 266.897 296.317 265.437 296.689 265.32C297.517 267.995 298.524 270.611 299.703 273.15C300.379 274.634 301.109 276.102 301.863 277.57C301.42 276.949 301.016 276.405 300.954 276.327C299.16 274.339 294.522 271.55 291.78 272.785C291.332 273.003 290.935 273.312 290.615 273.693C290.295 274.074 290.058 274.518 289.92 274.996C289.782 275.474 289.747 275.976 289.816 276.469C289.884 276.962 290.056 277.435 290.32 277.857C291.376 279.698 293.839 280.561 295.819 280.809C297.8 281.058 301.847 279.893 302.904 279.566C303.191 280.133 303.479 280.693 303.774 281.252C305.195 283.932 306.625 286.604 307.937 289.261C308.403 290.201 308.831 291.141 309.258 292.08C308.862 291.529 308.528 291.071 308.481 291.008C306.679 289.02 302.042 286.231 299.307 287.459C298.859 287.676 298.461 287.986 298.139 288.367C297.818 288.748 297.581 289.193 297.442 289.672C297.304 290.151 297.267 290.654 297.336 291.147C297.404 291.641 297.576 292.115 297.839 292.539C298.896 294.372 301.358 295.234 303.347 295.483C305.335 295.731 308.978 294.706 310.237 294.302C310.641 295.281 311.052 296.252 311.41 297.215C311.635 297.883 311.899 298.504 312.085 299.18C312.272 299.856 312.489 300.509 312.684 301.169C313.018 302.443 313.367 303.756 313.662 305.006C313.88 305.876 314.066 306.707 314.253 307.546C313.802 306.614 312.878 304.789 312.785 304.649C311.309 302.412 307.145 298.955 304.24 299.755C303.763 299.901 303.323 300.146 302.948 300.474C302.572 300.801 302.27 301.204 302.06 301.656C301.851 302.108 301.739 302.599 301.731 303.098C301.724 303.596 301.822 304.09 302.018 304.548C302.795 306.521 305.125 307.756 307.013 308.3C309.134 308.898 313.787 308.214 314.369 308.121C314.68 309.512 314.967 310.863 315.216 312.145C315.915 315.672 316.412 318.748 316.769 321.171H318.774C318.354 318.685 317.772 315.477 316.956 311.78C316.645 310.366 316.288 308.867 315.907 307.329C317.299 306.737 318.656 306.066 319.97 305.317C321.523 306.948 325.516 308.812 326.029 309.046C325.524 310.374 325.019 311.663 324.522 312.867C323.17 316.161 321.904 318.965 320.871 321.171H323.03C323.955 319.058 325.034 316.51 326.138 313.528C326.666 312.176 327.194 310.731 327.691 309.232C328.258 309.341 332.896 310.18 335.04 309.651C336.982 309.17 339.32 308.012 340.151 306.07C340.363 305.619 340.479 305.128 340.489 304.629C340.499 304.13 340.404 303.635 340.209 303.175C340.015 302.716 339.726 302.302 339.361 301.962C338.997 301.622 338.564 301.362 338.092 301.2C335.226 300.307 330.954 303.631 329.408 305.814C329.315 305.946 328.483 307.461 327.979 308.416C328.188 307.81 328.406 307.22 328.615 306.583C329.043 305.34 329.431 304.082 329.858 302.699C330.045 302.039 330.223 301.379 330.41 300.703C330.596 300.027 330.736 299.312 330.899 298.613C331.257 296.982 331.528 295.312 331.777 293.618C332.865 293.991 336.764 295.258 338.768 295.079C340.772 294.9 343.25 294.108 344.369 292.306C344.646 291.892 344.833 291.424 344.917 290.933C345.001 290.441 344.981 289.938 344.858 289.455C344.735 288.972 344.511 288.521 344.202 288.13C343.893 287.739 343.505 287.418 343.064 287.187C340.368 285.866 335.645 288.499 333.789 290.434C333.672 290.55 332.492 292.088 331.862 292.943C332.002 291.925 332.142 290.907 332.251 289.874C332.554 286.899 332.771 283.87 333.028 280.848C333.098 279.924 333.175 278.999 333.253 278.075C333.641 278.215 338.24 279.823 340.485 279.629C342.481 279.45 344.967 278.665 346.085 276.863C346.364 276.45 346.552 275.982 346.638 275.491C346.723 275 346.704 274.497 346.582 274.014C346.459 273.53 346.236 273.078 345.927 272.687C345.618 272.296 345.23 271.975 344.788 271.744C342.093 270.424 337.362 273.057 335.506 274.983C335.366 275.131 333.672 277.314 333.268 277.927C333.439 275.892 333.626 273.873 333.898 271.884C334.243 269.202 334.762 266.545 335.451 263.93C335.63 263.992 340.43 265.685 342.722 265.483C344.718 265.305 347.204 264.52 348.323 262.718C348.601 262.304 348.789 261.837 348.875 261.346C348.96 260.855 348.941 260.351 348.819 259.868C348.696 259.385 348.473 258.933 348.164 258.542C347.855 258.151 347.467 257.83 347.025 257.599C344.33 256.278 339.599 258.912 337.743 260.838C337.618 260.97 336.329 262.648 335.731 263.464L335.583 263.394C336.345 260.779 337.344 258.238 338.566 255.804C339.226 254.453 339.926 253.194 340.632 251.998C341.495 252.402 345.449 254.22 347.538 254.259C349.628 254.297 352.098 253.793 353.403 252.122C353.725 251.741 353.963 251.297 354.101 250.818C354.239 250.339 354.275 249.836 354.207 249.342C354.138 248.848 353.965 248.374 353.701 247.951C353.437 247.528 353.086 247.165 352.673 246.887C350.14 245.287 345.153 247.384 343.095 249.101C342.986 249.194 341.945 250.266 341.207 251.058C341.533 250.514 341.868 249.955 342.186 249.45C343.406 247.532 344.633 245.854 345.736 244.37C346.373 243.539 346.963 242.816 347.523 242.102C348.571 242.102 352.812 241.845 354.653 240.937C356.494 240.028 358.483 238.412 358.879 236.33C358.988 235.844 358.994 235.341 358.895 234.853C358.797 234.364 358.597 233.902 358.308 233.496C358.019 233.09 357.649 232.75 357.22 232.497C356.791 232.244 356.313 232.083 355.819 232.027C352.828 231.763 349.371 235.911 348.33 238.397C348.245 238.614 347.22 242.11 347.274 242.11H347.336C346.792 242.762 346.202 243.469 345.581 244.254C344.446 245.714 343.173 247.361 341.914 249.264C340.532 251.294 339.269 253.403 338.131 255.579C336.848 258.013 335.782 260.555 334.946 263.176V263.269C334.946 262.392 334.853 259.929 334.822 259.743C334.426 257.094 332.095 252.208 329.136 251.726C328.642 251.658 328.139 251.695 327.66 251.835C327.181 251.975 326.737 252.215 326.357 252.538C325.977 252.862 325.67 253.262 325.455 253.712C325.241 254.162 325.124 254.653 325.112 255.152C324.98 257.265 326.557 259.347 328.072 260.652C329.788 262.112 334.496 263.471 334.869 263.58C334.084 266.268 333.482 269.006 333.066 271.775C332.81 273.383 332.608 275.014 332.422 276.653C332.422 275.877 332.367 275.209 332.352 275.1C331.948 272.451 329.618 267.565 326.658 267.083C326.164 267.015 325.661 267.053 325.182 267.193C324.703 267.332 324.259 267.572 323.879 267.895C323.499 268.219 323.192 268.619 322.977 269.069C322.763 269.52 322.646 270.01 322.634 270.509C322.502 272.622 324.079 274.704 325.602 276.009C327.124 277.314 331.132 278.564 332.189 278.875C332.127 279.504 332.057 280.133 331.995 280.763C331.692 283.784 331.412 286.798 331.047 289.742C330.915 290.783 330.752 291.801 330.589 292.849C330.589 292.174 330.534 291.607 330.526 291.521C330.122 288.872 327.792 283.986 324.833 283.505C324.338 283.437 323.835 283.474 323.356 283.614C322.878 283.754 322.434 283.993 322.054 284.317C321.674 284.64 321.367 285.04 321.152 285.491C320.938 285.941 320.821 286.432 320.809 286.93C320.677 289.043 322.254 291.125 323.776 292.422C325.299 293.719 328.911 294.861 330.169 295.242C329.975 296.275 329.781 297.316 329.54 298.349C329.361 299.025 329.237 299.693 329.019 300.361C328.802 301.029 328.623 301.689 328.429 302.35C328.002 303.592 327.575 304.882 327.124 306.094C326.821 306.933 326.518 307.733 326.215 308.533C326.355 307.5 326.588 305.472 326.588 305.301C326.507 302.946 325.822 300.651 324.599 298.637C324.602 298.376 324.581 298.116 324.537 297.86C324.465 297.366 324.29 296.894 324.022 296.473C323.755 296.052 323.402 295.692 322.987 295.417C322.571 295.141 322.103 294.956 321.611 294.874C321.119 294.792 320.616 294.814 320.133 294.939C317.243 295.77 315.511 300.897 315.433 303.577C315.433 303.732 315.565 305.457 315.674 306.536C315.511 305.915 315.363 305.301 315.193 304.657C314.866 303.383 314.493 302.117 314.105 300.773C313.895 300.12 313.678 299.468 313.46 298.8C313.243 298.132 312.971 297.464 312.684 296.788C312.078 295.234 311.386 293.681 310.656 292.127C311.775 291.832 315.721 290.737 317.29 289.478C318.859 288.22 320.498 286.2 320.436 284.087C320.439 283.591 320.338 283.099 320.14 282.645C319.941 282.19 319.65 281.781 319.284 281.446C318.918 281.111 318.486 280.856 318.015 280.698C317.545 280.54 317.046 280.483 316.552 280.53C313.569 280.918 311.114 285.719 310.594 288.36C310.594 288.523 310.431 290.449 310.376 291.513C309.934 290.589 309.491 289.665 309.009 288.74C307.619 286.084 306.127 283.443 304.659 280.794C304.201 280.017 303.766 279.17 303.323 278.362C303.719 278.261 308.442 277.057 310.198 275.651C311.751 274.401 313.406 272.373 313.305 270.253C313.307 269.757 313.206 269.266 313.007 268.812C312.808 268.358 312.516 267.951 312.15 267.617C311.784 267.282 311.352 267.028 310.882 266.871C310.412 266.713 309.914 266.656 309.421 266.703C306.446 267.083 303.983 271.892 303.471 274.525C303.471 274.727 303.246 277.5 303.23 278.215C302.251 276.42 301.296 274.634 300.426 272.824C299.229 270.395 298.191 267.891 297.319 265.328C297.505 265.281 302.445 264.046 304.24 262.609C305.793 261.358 307.448 259.331 307.386 257.21C307.389 256.714 307.288 256.223 307.09 255.768C306.891 255.313 306.6 254.904 306.234 254.569C305.868 254.234 305.436 253.979 304.965 253.821C304.494 253.663 303.996 253.606 303.502 253.653C300.519 254.041 298.064 258.849 297.552 261.483C297.513 261.654 297.365 263.774 297.319 264.784H297.148C296.351 262.18 295.784 259.51 295.454 256.806C295.26 255.323 295.151 253.886 295.081 252.495C296.021 252.355 300.325 251.718 302.073 250.577C303.82 249.435 305.615 247.664 305.786 245.559C305.843 245.064 305.796 244.562 305.648 244.086C305.499 243.611 305.251 243.172 304.922 242.798C304.592 242.424 304.187 242.124 303.734 241.917C303.28 241.71 302.788 241.601 302.29 241.597C299.292 241.651 296.293 246.157 295.516 248.72C295.478 248.86 295.206 250.328 295.027 251.392C295.027 250.763 294.965 250.118 294.957 249.512C294.911 247.244 295.012 245.162 295.113 243.298C295.182 242.249 295.26 241.302 295.346 240.424C296.208 239.803 299.626 237.317 300.651 235.515C301.676 233.713 302.461 231.297 301.638 229.347C301.462 228.88 301.19 228.456 300.84 228.101C300.489 227.746 300.068 227.47 299.603 227.29C299.138 227.109 298.64 227.029 298.142 227.054C297.644 227.079 297.157 227.21 296.713 227.436C294.072 228.873 293.489 234.248 293.986 236.882C294.025 237.115 295.105 240.595 295.151 240.564H295.206C295.105 241.41 295.004 242.327 294.918 243.321C294.779 245.162 294.631 247.244 294.623 249.536C294.591 251.99 294.702 254.443 294.957 256.884C295.236 259.623 295.756 262.331 296.511 264.978V265.071C296.029 264.341 294.592 262.337 294.468 262.197C292.673 260.209 288.036 257.42 285.294 258.647C284.845 258.865 284.447 259.175 284.126 259.556C283.805 259.937 283.567 260.382 283.429 260.861C283.29 261.34 283.254 261.842 283.323 262.336C283.391 262.83 283.562 263.304 283.826 263.728C284.929 265.506 287.391 266.376 289.403 266.617Z" fill="#263238"/>
<path d="M200.912 17.9762H27.6346V314.646H200.912V17.9762Z" stroke="#263238" stroke-width="0.776785" stroke-linecap="round" stroke-linejoin="round"/>
<path d="M195.77 24.3846H32.7691V308.237H195.77V24.3846Z" stroke="#263238" stroke-width="0.776785" stroke-linecap="round" stroke-linejoin="round"/>
<path d="M192.92 112.666H32.7689V119.152H192.92V112.666Z" stroke="#263238" stroke-width="0.776785" stroke-linecap="round" stroke-linejoin="round"/>
<path d="M116.095 219.342V308.16H109.601V219.342" stroke="#263238" stroke-width="0.776785" stroke-linecap="round" stroke-linejoin="round"/>
<path d="M109.601 212.849V119.16" stroke="#263238" stroke-width="0.776785" stroke-linecap="round" stroke-linejoin="round"/>
<path d="M116.095 212.849V119.16" stroke="#263238" stroke-width="0.776785" stroke-linecap="round" stroke-linejoin="round"/>
<path d="M109.601 112.667V24.3379H116.095V112.667" stroke="#263238" stroke-width="0.776785" stroke-linecap="round" stroke-linejoin="round"/>
<path d="M192.92 212.848H32.7689V219.334H192.92V212.848Z" stroke="#263238" stroke-width="0.776785" stroke-linecap="round" stroke-linejoin="round"/>
<path d="M188.499 212.849V119.16" stroke="#263238" stroke-width="0.776785" stroke-linecap="round" stroke-linejoin="round"/>
<path d="M188.499 112.666V24.3846H32.7691V112.666V119.16V212.848V219.342V308.237H188.499V219.342" stroke="#263238" stroke-width="0.776785" stroke-linecap="round" stroke-linejoin="round"/>
<path d="M183.807 38.0405L133.533 88.3066" stroke="#263238" stroke-width="0.776785" stroke-linecap="round" stroke-linejoin="round"/>
<path d="M166.788 67.9388L153.38 81.3462" stroke="#263238" stroke-width="0.776785" stroke-linecap="round" stroke-linejoin="round"/>
<path d="M149.776 85.9913L144.105 91.6619" stroke="#263238" stroke-width="0.776785" stroke-linecap="round" stroke-linejoin="round"/>
<path d="M73.4648 159.716L49.7495 183.439" stroke="#263238" stroke-width="0.776785" stroke-linecap="round" stroke-linejoin="round"/>
<path d="M102.851 145.283L74.7542 173.38" stroke="#263238" stroke-width="0.776785" stroke-linecap="round" stroke-linejoin="round"/>
<path d="M96.147 34.4283L66.761 63.8143" stroke="#263238" stroke-width="0.776785" stroke-linecap="round" stroke-linejoin="round"/>
<path d="M72.9521 84.4377L66.2484 91.1414" stroke="#263238" stroke-width="0.776785" stroke-linecap="round" stroke-linejoin="round"/>
<path d="M176.07 183.439L168.854 190.655" stroke="#263238" stroke-width="0.776785" stroke-linecap="round" stroke-linejoin="round"/>
<path d="M178.129 154.566L135.848 196.847" stroke="#263238" stroke-width="0.776785" stroke-linecap="round" stroke-linejoin="round"/>
<path d="M144.618 289.649L166.019 268.256" stroke="#263238" stroke-width="0.776785" stroke-linecap="round" stroke-linejoin="round"/>
<path d="M53.8743 264.9L43.5585 275.216" stroke="#263238" stroke-width="0.776785" stroke-linecap="round" stroke-linejoin="round"/>
<path d="M352.401 19.9879H246.703V154.046H352.401V19.9879Z" stroke="#263238" stroke-width="0.776785" stroke-linecap="round" stroke-linejoin="round"/>
<path d="M348.393 25.0759H250.711V148.966H348.393V25.0759Z" stroke="#263238" stroke-width="0.776785" stroke-linecap="round" stroke-linejoin="round"/>
<path d="M325.493 54.1278H273.619V119.914H325.493V54.1278Z" stroke="#263238" stroke-width="0.776785" stroke-linecap="round" stroke-linejoin="round"/>
<path d="M75.1504 289.299C75.9184 286.636 76.4768 283.917 76.8205 281.166C77.0039 279.796 77.1024 278.416 77.1157 277.034C77.1508 275.678 77.0676 274.321 76.8671 272.979L76.6885 271.993L76.4632 270.944L75.9816 268.847C75.6709 267.441 75.3524 266.035 75.065 264.605C74.7776 263.176 74.529 261.731 74.3814 260.255C74.2346 258.784 74.1853 257.305 74.2338 255.828C74.2338 255.622 74.3157 255.424 74.4613 255.278C74.607 255.133 74.8046 255.051 75.0106 255.051C75.2166 255.051 75.4142 255.133 75.5599 255.278C75.7056 255.424 75.7874 255.622 75.7874 255.828C75.8872 258.633 76.328 261.417 77.1002 264.116C77.4653 265.483 77.877 266.858 78.2731 268.233L78.879 270.299L79.182 271.34L79.4616 272.466C79.7803 273.946 79.97 275.451 80.0287 276.964C80.1181 278.454 80.1181 279.948 80.0287 281.438C79.8517 284.411 79.4361 287.364 78.7858 290.27C78.6644 290.737 78.3679 291.138 77.9581 291.391C77.5483 291.644 77.0566 291.73 76.5854 291.63C76.1142 291.53 75.6997 291.252 75.4281 290.854C75.1565 290.456 75.0487 289.969 75.1271 289.494C75.1236 289.455 75.1236 289.416 75.1271 289.377L75.1504 289.299Z" fill="#C6FF00" stroke="#263238" stroke-width="0.776785" stroke-linecap="round" stroke-linejoin="round"/>
<path d="M76.471 259.968C76.471 259.968 76.471 255.602 78.8946 253.179C81.3182 250.755 84.4409 250.196 86.4994 249.963C88.6821 249.722 98.7804 251.478 98.7804 251.478C96.8654 254.271 94.5034 256.73 91.7893 258.756C87.3849 261.91 76.471 259.968 76.471 259.968Z" fill="#C6FF00" stroke="#263238" stroke-width="0.776785" stroke-linecap="round" stroke-linejoin="round"/>
<path d="M89.8939 253.792C91.0049 253.527 92.1306 253.327 93.2652 253.194" stroke="#263238" stroke-width="0.776785" stroke-linecap="round" stroke-linejoin="round"/>
<path d="M76.471 259.968C79.9792 257.49 83.8565 255.582 87.9597 254.313" stroke="#263238" stroke-width="0.776785" stroke-linecap="round" stroke-linejoin="round"/>
<path d="M74.2338 255.828C74.2338 255.828 71.585 249.489 67.1262 247.648C62.6674 245.807 56.6784 250.258 56.6784 250.258C56.6784 250.258 59.2884 255.944 64.6716 256.713C67.8842 257.177 71.1611 256.874 74.2338 255.828Z" fill="#C6FF00" stroke="#263238" stroke-width="0.776785" stroke-linecap="round" stroke-linejoin="round"/>
<path d="M74.2338 255.828C74.2338 255.828 68.5089 252.254 63.7472 251.485L74.2338 255.828Z" fill="#C6FF00"/>
<path d="M74.2338 255.828C74.2338 255.828 68.5089 252.254 63.7472 251.485" stroke="#263238" stroke-width="0.776785" stroke-linecap="round" stroke-linejoin="round"/>
<path d="M102.532 285.082H53.3848L59.0554 320.822H96.8617L102.532 285.082Z" fill="#263238" stroke="#263238" stroke-width="0.776785" stroke-linecap="round" stroke-linejoin="round"/>
<path d="M211.725 249.411C211.725 249.411 191.692 246.405 182.378 244.463C175.255 242.98 164.97 240.323 164.97 240.323C164.97 240.323 141.931 230.629 139.756 231.002C137.581 231.374 131.11 237.573 131.11 237.573C131.11 237.573 143.756 254.344 144.315 254.235C144.875 254.127 160.962 250.351 160.962 250.351C160.962 250.351 197.184 271.628 203.856 273.741C210.529 275.853 214.133 276.661 214.133 276.661L211.725 249.411Z" fill="white" stroke="#263238" stroke-width="0.776785" stroke-linecap="round" stroke-linejoin="round"/>
<path d="M122.348 233.984C122.348 233.984 135.724 250.219 137.456 254.406C139.189 258.593 142.979 278.292 145.108 282.409C146.304 284.74 150.235 290.138 153.435 294.411C154.017 295.188 154.749 295.84 155.587 296.329C156.426 296.818 157.354 297.133 158.317 297.256C159.28 297.379 160.258 297.308 161.193 297.046C162.127 296.784 163 296.337 163.758 295.731L179.574 283.093C180.341 282.479 180.976 281.715 181.439 280.848C181.902 279.982 182.185 279.03 182.269 278.051C182.353 277.071 182.238 276.085 181.929 275.152C181.621 274.219 181.126 273.358 180.475 272.622L173.22 263.945C172.435 263.009 171.538 262.174 170.548 261.459C164.846 257.35 144.51 242.614 140.812 238.358C136.501 233.394 132.322 228.003 132.322 228.003L122.348 233.984Z" fill="white" stroke="#263238" stroke-width="0.776785" stroke-linecap="round" stroke-linejoin="round"/>
<path d="M124.336 236.09L133.479 230.038C133.287 229.548 133.234 229.015 133.326 228.497C133.418 227.979 133.651 227.496 134 227.102C135.211 225.875 137.107 222.698 135.716 220.499C134.326 218.301 124.259 217.781 120.274 220.701C116.289 223.622 109.803 230.846 109.803 230.846L114.215 236.4L119.412 233.472C119.412 233.472 122.457 235.802 124.336 236.09Z" fill="#999999" stroke="#263238" stroke-width="0.776785" stroke-linecap="round" stroke-linejoin="round"/>
<path d="M110.308 231.522L107.752 233.837L110.719 237.542L113.461 235.282L110.308 231.522Z" fill="white" stroke="#263238" stroke-width="0.776785" stroke-linecap="round" stroke-linejoin="round"/>
<path d="M106.439 235.818L97.5994 238.397" stroke="#263238" stroke-width="0.776785" stroke-linecap="round" stroke-linejoin="round"/>
<path d="M103.464 245.807L102.019 247.974" stroke="#263238" stroke-width="0.776785" stroke-linecap="round" stroke-linejoin="round"/>
<path d="M108.28 238.583L104.823 243.764" stroke="#263238" stroke-width="0.776785" stroke-linecap="round" stroke-linejoin="round"/>
<path d="M124.857 236.998C124.857 236.998 121.672 238.272 122.06 240.509C122.449 242.747 124.826 243.919 124.826 243.919C124.826 243.919 132.399 243.469 132.594 242.467C132.788 241.465 131.304 239.896 129.89 239.414C128.643 239.031 127.375 238.72 126.092 238.482L124.857 236.998Z" fill="white" stroke="#263238" stroke-width="0.776785" stroke-linecap="round" stroke-linejoin="round"/>
<path d="M124.826 243.92C124.727 244.553 124.764 245.2 124.933 245.818C125.101 246.437 125.398 247.012 125.804 247.508C127.21 249.334 127.669 249.839 129.968 249.108C132.267 248.378 136.144 246.227 136.097 244.533C136.05 242.84 132.586 242.467 132.586 242.467C132.586 242.467 126.675 244.083 124.826 243.92Z" fill="white" stroke="#263238" stroke-width="0.776785" stroke-linecap="round" stroke-linejoin="round"/>
<path d="M128.119 249.668C128.119 249.668 128.306 252.177 129.96 252.627C131.615 253.078 133.968 251.936 135.072 251.268C136.175 250.6 139.002 248.044 138.427 246.079C137.852 244.114 135.499 245.97 135.499 245.97C135.499 245.97 131.421 249.101 128.119 249.668Z" fill="white" stroke="#263238" stroke-width="0.776785" stroke-linecap="round" stroke-linejoin="round"/>
<path d="M131.926 252.775C131.926 252.775 132.151 254.795 133.316 255.206C134.481 255.618 137.557 253.754 138.614 252.099C139.67 250.444 137.837 249.194 137.837 249.194C137.837 249.194 133.029 252.829 131.926 252.775Z" fill="white" stroke="#263238" stroke-width="0.776785" stroke-linecap="round" stroke-linejoin="round"/>
<path d="M163.261 241.022C163.261 241.022 144.921 228.896 142.591 227.459C140.261 226.022 137.55 227.716 136.695 228.671C134.444 230.636 131.903 232.24 129.16 233.425C126.83 234.202 124.585 235.227 126.208 236.377C127.832 237.527 130.333 237.931 133.106 237.433C135.546 236.881 137.936 236.13 140.253 235.188C140.253 235.188 143.236 244.246 149.698 243.951" fill="white"/>
<path d="M163.261 241.022C163.261 241.022 144.921 228.896 142.591 227.459C140.261 226.022 137.55 227.716 136.695 228.671C134.444 230.636 131.903 232.24 129.16 233.425C126.83 234.202 124.585 235.227 126.208 236.377C127.832 237.527 130.333 237.931 133.106 237.433C135.546 236.881 137.936 236.13 140.253 235.188C140.253 235.188 143.236 244.246 149.698 243.951" stroke="#263238" stroke-width="0.776785" stroke-linecap="round" stroke-linejoin="round"/>
<path d="M199.84 99.5463C199.84 99.5463 197.308 108.868 198.574 111.198C199.84 113.528 201.533 116.061 201.323 118.593C201.114 121.125 197.098 128.528 198.364 129.794C199.63 131.06 204.283 132.327 204.283 132.327C204.283 132.327 212.097 147.754 214.001 147.754C215.904 147.754 221.605 144.584 222.662 144.375C223.718 144.165 225.194 144.157 226.887 147.536C228.581 150.915 230.686 154.527 230.686 155.358C230.686 156.189 223.695 162.544 223.695 162.544C223.695 162.544 207.421 171.865 206.155 175.43C204.889 178.996 199.817 205.003 198.55 209.228C197.284 213.454 192.212 214.938 194.115 217.68C195.233 219.245 195.957 221.057 196.228 222.962C196.228 222.962 190.736 227.623 192.422 230.357C194.107 233.091 197.284 237.542 197.284 237.542C197.284 237.542 194.752 236.695 194.325 239.655C193.897 242.614 191.179 246.141 191.994 246.141C192.81 246.141 200.003 245.364 206.124 247.695C212.245 250.025 210.559 250.654 210.559 250.654L202.17 321.171H301.467L298.507 256.099C298.507 256.099 294.064 186.383 293.644 175.609C293.225 164.835 293.225 164.835 288.58 162.722C283.935 160.609 261.742 153.844 259 153.005C256.645 152.325 254.524 151.008 252.871 149.198C251.605 147.722 247.379 137.158 247.379 137.158C247.379 137.158 239.984 105.046 235.121 94.9011C230.259 84.7563 224.565 82.4337 214.832 86.0302C205.099 89.6267 201.953 94.6914 199.84 99.5463Z" fill="white" stroke="#263238" stroke-width="0.776785" stroke-linecap="round" stroke-linejoin="round"/>
<path d="M210.901 321.172H245.701C245.763 304.416 246.245 221.168 249.282 203.706C252.156 187.16 260.849 161.596 263.373 154.348L259 153.005C258.526 152.857 258.083 152.686 257.648 152.507C253.43 159.833 235.898 189.498 229.42 189.133C222.025 188.706 226.592 159.825 226.592 159.825C226.592 159.825 218.436 173.489 214.832 186.593C211.227 199.697 212.501 229.27 212.501 229.27V259.269L210.901 321.172Z" fill="white" stroke="#263238" stroke-width="0.776785" stroke-linecap="round" stroke-linejoin="round"/>
<path d="M209.449 116.006C210 117.226 209.93 118.453 209.293 118.741C208.656 119.028 207.693 118.275 207.142 117.047C206.59 115.82 206.652 114.6 207.289 114.313C207.926 114.025 208.897 114.81 209.449 116.006Z" fill="#263238"/>
<path d="M203.436 110.569C203.436 110.569 204.283 108.029 208.097 109.085" stroke="#263238" stroke-width="1.55357" stroke-linecap="round" stroke-linejoin="round"/>
<path d="M208.928 133.352C210.252 133.481 211.582 133.181 212.723 132.497C213.864 131.813 214.756 130.782 215.267 129.553" stroke="#263238" stroke-width="0.776785" stroke-linecap="round" stroke-linejoin="round"/>
<path d="M210.614 250.608L202.17 321.172H213.372C213.426 310.429 213.876 233.977 215.057 223.568C216.16 213.827 224.449 170.855 226.593 159.825C225.078 161.277 223.718 162.512 223.718 162.512C223.718 162.512 207.445 171.834 206.178 175.399C204.912 178.965 199.84 204.972 198.574 209.197C197.308 213.423 192.235 214.907 194.138 217.649C195.256 219.215 195.981 221.026 196.251 222.931C196.251 222.931 190.759 227.592 192.445 230.326C194.13 233.06 197.308 237.511 197.308 237.511C197.308 237.511 194.775 236.665 194.348 239.624C193.921 242.584 191.202 246.11 192.018 246.11C192.833 246.11 197.812 248.705 203.918 249.218C210.482 249.754 210.614 250.608 210.614 250.608Z" fill="#C6FF00" stroke="#263238" stroke-width="0.776785" stroke-linecap="round" stroke-linejoin="round"/>
<path d="M298.507 256.1C298.507 256.1 294.064 186.383 293.645 175.609C293.225 164.835 293.225 164.835 288.58 162.722C283.935 160.609 261.742 153.843 259 153.005C258.464 152.834 257.967 152.647 257.446 152.438C253.889 162.955 240.753 202.54 239.106 217.859C237.397 233.822 239.277 306.653 239.673 321.172H301.436L298.507 256.1Z" fill="#C6FF00" stroke="#263238" stroke-width="0.776785" stroke-linecap="round" stroke-linejoin="round"/>
<path d="M274.629 285.4L251.069 286.969V290.115L281.853 287.917" fill="#C6FF00"/>
<path d="M274.629 285.4L251.069 286.969V290.115L281.853 287.917" stroke="#263238" stroke-width="0.776785" stroke-linecap="round" stroke-linejoin="round"/>
<path d="M210.948 188.581C211.492 185.824 211.864 184.06 211.864 184.06" stroke="#263238" stroke-width="0.776785" stroke-linecap="round" stroke-linejoin="round"/>
<path d="M210.614 250.608C210.614 250.608 210.831 238.179 210.404 235.608C209.977 233.037 205.969 226.527 206.178 218.519C206.318 213.275 208.711 200.194 210.35 191.75" stroke="#263238" stroke-width="0.776785" stroke-linecap="round" stroke-linejoin="round"/>
<path d="M203.957 236.975C202.675 236.975 201.72 236.874 201.72 236.874" stroke="#263238" stroke-width="0.776785" stroke-linecap="round" stroke-linejoin="round"/>
<path d="M206.178 227.584C206.178 227.584 196.67 228.64 198.364 229.697C200.057 230.753 211.888 233.705 210.404 235.608C209.655 236.294 208.692 236.7 207.678 236.758" stroke="#263238" stroke-width="0.776785" stroke-linecap="round" stroke-linejoin="round"/>
<path d="M276.112 261.172C276.112 261.172 272.524 273.002 269.774 283.147C267.024 293.292 257.555 316.945 257.555 316.945L255.869 321.171H273.619C273.619 321.171 285.022 299.421 289.675 292.228C294.328 285.035 298.756 275.138 300.869 270.26L302.982 265.397L303.828 262.865L276.975 259.269L276.112 261.172Z" fill="white" stroke="#263238" stroke-width="0.776785" stroke-linecap="round" stroke-linejoin="round"/>
<path d="M268.508 192.302C268.508 192.302 272.733 223.568 273.168 226.528C273.603 229.487 269.789 233.705 270.636 236.036C271.483 238.366 279.957 245.357 279.717 245.963C279.476 246.569 274.862 248.293 275.491 250.818C276.12 253.342 277.394 256.947 277.394 256.947L276.128 261.173C276.128 261.173 280.144 263.503 288.378 264.761C296.612 266.02 304.434 265.608 304.861 264.552C305.289 263.495 304.015 253.148 304.015 251.455C304.015 249.761 304.015 247.649 305.708 245.753C307.401 243.858 308.24 241.318 306.764 237.721C305.839 235.413 305.2 233 304.861 230.536C304.861 230.536 309.934 223.545 308.66 219.762C307.386 215.979 301.902 210.891 301.902 209.625C301.902 208.359 299.999 176.223 298.313 169.69C296.627 163.157 277.813 159.972 277.813 159.972" fill="#C6FF00"/>
<path d="M268.508 192.302C268.508 192.302 272.733 223.568 273.168 226.528C273.603 229.487 269.789 233.705 270.636 236.036C271.483 238.366 279.957 245.357 279.717 245.963C279.476 246.569 274.862 248.293 275.491 250.818C276.12 253.342 277.394 256.947 277.394 256.947L276.128 261.173C276.128 261.173 280.144 263.503 288.378 264.761C296.612 266.02 304.434 265.608 304.861 264.552C305.289 263.495 304.015 253.148 304.015 251.455C304.015 249.761 304.015 247.649 305.708 245.753C307.401 243.858 308.24 241.318 306.764 237.721C305.839 235.413 305.2 233 304.861 230.536C304.861 230.536 309.934 223.545 308.66 219.762C307.386 215.979 301.902 210.891 301.902 209.625C301.902 208.359 299.999 176.223 298.313 169.69C296.627 163.157 277.813 159.972 277.813 159.972" stroke="#263238" stroke-width="0.776785" stroke-linecap="round" stroke-linejoin="round"/>
<path d="M305.265 223.568C305.265 223.568 278.645 232.019 284.742 232.229C290.84 232.439 302.911 227.157 302.911 227.157" stroke="#263238" stroke-width="0.776785" stroke-linecap="round" stroke-linejoin="round"/>
<path d="M281.394 240.043C281.394 240.043 302.943 244.269 300.193 245.116C297.443 245.962 285.83 243.849 285.193 243.849" stroke="#263238" stroke-width="0.776785" stroke-linecap="round" stroke-linejoin="round"/>
<path d="M278.854 257.583C278.854 257.583 305.055 259.913 303.789 260.962C302.523 262.011 295.757 260.543 295.757 260.543" stroke="#263238" stroke-width="0.776785" stroke-linecap="round" stroke-linejoin="round"/>
<path d="M228.627 256.713C229.532 258.425 230.536 260.082 231.634 261.677" stroke="#263238" stroke-width="0.776785" stroke-linecap="round" stroke-linejoin="round"/>
<path d="M218.017 233.767C218.017 233.767 222.553 244.828 226.988 253.583" stroke="#263238" stroke-width="0.776785" stroke-linecap="round" stroke-linejoin="round"/>
<path d="M222.444 250.103C222.444 250.103 228.565 267.479 231.975 272.917" stroke="#263238" stroke-width="0.776785" stroke-linecap="round" stroke-linejoin="round"/>
<path d="M203.227 73.3532C203.227 73.3532 196.671 79.9015 194.138 88.353C191.606 96.8044 192.662 101.877 192.662 101.877L204.314 102.087L206.388 94.2566L207.445 101.861L212.517 102.491L214.847 97.8298C214.847 97.8298 215.694 100.362 217.807 107.757C219.92 115.152 223.299 120.225 224.146 131.418C224.594 138.529 223.88 145.666 222.033 152.547C222.033 152.547 228.162 152.974 247.177 150.216C266.193 147.459 274.008 143.031 276.54 142.612C278.647 142.381 280.772 142.381 282.879 142.612C279.53 136.235 276.908 129.502 275.064 122.539C272.532 112.185 270.201 95.9189 269.145 88.9511C268.089 81.9833 263.024 73.1046 250.766 66.129C238.508 59.1535 220.13 61.6936 213.791 65.2823C209.928 67.4937 206.376 70.2076 203.227 73.3532Z" fill="#263238" stroke="#263238" stroke-width="0.776785" stroke-linecap="round" stroke-linejoin="round"/>
<path d="M226.849 110.647C227.074 111.773 227.276 112.876 227.439 113.932" stroke="#999999" stroke-width="0.776785" stroke-linecap="round" stroke-linejoin="round"/>
<path d="M220.588 88.1664C220.588 88.1664 224.246 98.7695 226.398 108.503" stroke="#999999" stroke-width="0.776785" stroke-linecap="round" stroke-linejoin="round"/>
<path d="M223.873 81.051C224.697 80.7791 233.195 98.0472 234.29 108.744" stroke="#999999" stroke-width="0.776785" stroke-linecap="round" stroke-linejoin="round"/>
<path d="M241.157 94.1786C241.561 95.3593 241.934 96.5633 242.245 97.7596" stroke="#999999" stroke-width="0.776785" stroke-linecap="round" stroke-linejoin="round"/>
<path d="M233.475 78.5731C236.227 82.894 238.567 87.4634 240.466 92.2213" stroke="#999999" stroke-width="0.776785" stroke-linecap="round" stroke-linejoin="round"/>
<path d="M242.245 79.3964C242.245 79.3964 249.096 92.0036 249.64 99.1346" stroke="#999999" stroke-width="0.776785" stroke-linecap="round" stroke-linejoin="round"/>
<path d="M252.653 94.3962C252.784 95.056 252.877 95.7225 252.933 96.3926" stroke="#999999" stroke-width="0.776785" stroke-linecap="round" stroke-linejoin="round"/>
<path d="M245.53 76.6543C245.53 76.6543 250.362 85.5408 252.234 92.6096" stroke="#999999" stroke-width="0.776785" stroke-linecap="round" stroke-linejoin="round"/>
<path d="M254.448 84.1581C256.321 87.5145 257.501 91.2124 257.92 95.0331" stroke="#999999" stroke-width="0.776785" stroke-linecap="round" stroke-linejoin="round"/>
<path d="M248.233 75.2795C250.139 77.4478 251.84 79.7882 253.314 82.2706" stroke="#999999" stroke-width="0.776785" stroke-linecap="round" stroke-linejoin="round"/>
<path d="M264.305 95.2041C264.608 96.7577 264.849 98.3812 264.997 99.958" stroke="#999999" stroke-width="0.776785" stroke-linecap="round" stroke-linejoin="round"/>
<path d="M260.056 80.7635C261.566 84.6296 262.807 88.5955 263.769 92.6329" stroke="#999999" stroke-width="0.776785" stroke-linecap="round" stroke-linejoin="round"/>
<path d="M202.768 76.6543C202.768 76.6543 198.651 82.4103 197.012 88.1663" stroke="#999999" stroke-width="0.776785" stroke-linecap="round" stroke-linejoin="round"/>
<path d="M202.023 86.9778C201.561 87.8923 201.169 88.84 200.85 89.8131" stroke="#999999" stroke-width="0.776785" stroke-linecap="round" stroke-linejoin="round"/>
<path d="M207.973 76.9263C207.973 76.9263 205.308 80.8568 203.172 84.7563" stroke="#999999" stroke-width="0.776785" stroke-linecap="round" stroke-linejoin="round"/>
<path d="M211.81 79.9403C211.81 79.9403 208.462 87.5451 207.429 90.9086" stroke="#999999" stroke-width="0.776785" stroke-linecap="round" stroke-linejoin="round"/>
<path d="M213.356 89.3547C213.1 90.1315 212.851 90.9472 212.633 91.7317" stroke="#999999" stroke-width="0.776785" stroke-linecap="round" stroke-linejoin="round"/>
<path d="M216.471 81.0509C216.471 81.0509 215.275 83.8473 214.086 87.2031" stroke="#999999" stroke-width="0.776785" stroke-linecap="round" stroke-linejoin="round"/>
<path d="M356.579 321.171H6.94861" stroke="#263238" stroke-width="0.776785" stroke-linecap="round" stroke-linejoin="round"/>
</g>
<defs>
<clipPath id="clip0_228_239">
<rect width="360.933" height="323.663" fill="white" transform="translate(0.291565 -0.00646973)"/>
</clipPath>
</defs>
</svg>
