<svg width="390" height="391" viewBox="0 0 390 391" fill="none" xmlns="http://www.w3.org/2000/svg">
<g clip-path="url(#clip0_232_996)">
<path d="M390.813 298.894H0V299.089H390.813V298.894Z" fill="#EBEBEB"/>
<path d="M351.654 311.47H325.766V311.666H351.654V311.47Z" fill="#EBEBEB"/>
<path d="M258.89 313.596H252.098V313.792H258.89V313.596Z" fill="#EBEBEB"/>
<path d="M324.985 304.217H309.985V304.412H324.985V304.217Z" fill="#EBEBEB"/>
<path d="M74.7625 305.53H41.0041V305.725H74.7625V305.53Z" fill="#EBEBEB"/>
<path d="M86.6745 305.53H81.7268V305.725H86.6745V305.53Z" fill="#EBEBEB"/>
<path d="M175.983 308.828H102.76V309.024H175.983V308.828Z" fill="#EBEBEB"/>
<path d="M185.245 264.033H34.3211C33.1388 264.031 32.0056 263.56 31.1703 262.723C30.335 261.887 29.8658 260.753 29.8658 259.57V47.4134C29.8761 46.2378 30.3498 45.1138 31.184 44.2855C32.0182 43.4572 33.1455 42.9914 34.3211 42.9894H185.245C186.429 42.9894 187.564 43.4596 188.401 44.2966C189.238 45.1336 189.708 46.2688 189.708 47.4525V259.57C189.708 260.754 189.238 261.889 188.401 262.726C187.564 263.563 186.429 264.033 185.245 264.033ZM34.3211 43.1457C33.1906 43.1478 32.1071 43.5983 31.3085 44.3984C30.5098 45.1986 30.0612 46.2829 30.0613 47.4134V259.57C30.0612 260.701 30.5098 261.785 31.3085 262.585C32.1071 263.385 33.1906 263.836 34.3211 263.838H185.245C186.377 263.836 187.461 263.385 188.261 262.586C189.061 261.786 189.511 260.701 189.513 259.57V47.4134C189.511 46.2822 189.061 45.1979 188.261 44.398C187.461 43.5981 186.377 43.1478 185.245 43.1457H34.3211Z" fill="#EBEBEB"/>
<path d="M354.319 264.033H203.387C202.204 264.031 201.07 263.56 200.233 262.724C199.397 261.887 198.926 260.753 198.924 259.57V47.4134C198.936 46.2371 199.412 45.1131 200.247 44.285C201.082 43.4569 202.211 42.9914 203.387 42.9894H354.319C355.493 42.9934 356.618 43.4601 357.451 44.2882C358.283 45.1163 358.756 46.2392 358.766 47.4134V259.57C358.766 260.751 358.298 261.884 357.465 262.721C356.631 263.557 355.5 264.029 354.319 264.033ZM203.387 43.1457C202.256 43.1478 201.171 43.5981 200.371 44.398C199.572 45.1979 199.121 46.2822 199.119 47.4134V259.57C199.121 260.701 199.572 261.786 200.371 262.586C201.171 263.385 202.256 263.836 203.387 263.838H354.319C355.45 263.836 356.534 263.385 357.334 262.586C358.134 261.786 358.585 260.701 358.587 259.57V47.4134C358.585 46.2822 358.134 45.1979 357.334 44.398C356.534 43.5981 355.45 43.1478 354.319 43.1457H203.387Z" fill="#EBEBEB"/>
<path d="M166.416 205.771C166.353 205.333 164.853 195.039 167.854 191.483C168.152 191.109 168.528 190.806 168.956 190.595C169.385 190.385 169.855 190.271 170.332 190.263C176.366 190.123 177.195 194.953 177.202 195.016L176.491 195.125C176.491 194.953 175.71 190.85 170.348 190.982C169.972 190.988 169.603 191.077 169.266 191.243C168.929 191.41 168.634 191.649 168.401 191.944C165.619 195.258 167.119 205.56 167.135 205.661L166.416 205.771Z" fill="#E6E6E6"/>
<path d="M166.057 205.302H165.337C165.337 205.208 165.572 195.813 160.945 193.875C159.772 193.289 158.416 193.188 157.169 193.595C155.923 194.002 154.887 194.883 154.285 196.047L153.644 195.727C154.336 194.407 155.513 193.407 156.927 192.938C158.341 192.469 159.882 192.566 161.226 193.21C166.307 195.321 166.064 204.895 166.057 205.302Z" fill="#E6E6E6"/>
<path d="M166.072 206.037C166.072 205.888 166.033 191.037 163.133 186.691C160.358 182.525 155.872 184.487 155.684 184.573L155.387 183.917C155.434 183.917 160.608 181.572 163.735 186.262C166.752 190.787 166.799 205.388 166.799 206.005L166.072 206.037Z" fill="#E6E6E6"/>
<path d="M171.176 190.615C171.176 190.615 168.542 191.592 169.324 193.882C170.105 196.173 178.437 199.948 178.437 199.948C178.437 199.948 181.923 196.751 178.719 191.553C175.514 186.355 171.27 188.982 171.176 190.615Z" fill="#E6E6E6"/>
<path d="M163.008 185.91C163.008 185.91 164.876 185.707 164.728 184.573C164.579 183.44 157.459 180.501 153.253 185.238C153.253 185.238 155.942 189.857 159.835 189.927C163.727 189.998 163.008 185.91 163.008 185.91Z" fill="#E6E6E6"/>
<path d="M161.085 193.523C161.085 193.523 162.375 192.475 160.984 191.959C159.592 191.444 152.753 191.6 152.683 198.369C152.683 198.369 160.648 199.69 161.632 197.11C162.617 194.531 161.085 193.523 161.085 193.523Z" fill="#E6E6E6"/>
<path d="M172.614 219.559H160.257L158.928 206.037H173.943L172.614 219.559Z" fill="#E6E6E6"/>
<path d="M174.6 204.544H158.264V207.53H174.6V204.544Z" fill="#E6E6E6"/>
<path d="M129.25 205.771C129.312 205.333 130.813 195.039 127.819 191.483C127.52 191.109 127.142 190.807 126.712 190.596C126.283 190.385 125.812 190.272 125.334 190.263C119.3 190.123 118.479 194.953 118.471 195.016L119.182 195.125C119.182 194.953 119.964 190.85 125.318 190.982C125.694 190.987 126.064 191.075 126.401 191.242C126.737 191.408 127.033 191.648 127.264 191.944C130.047 195.258 128.554 205.56 128.538 205.661L129.25 205.771Z" fill="#E6E6E6"/>
<path d="M129.617 205.302H130.336C130.336 205.208 130.094 195.813 134.721 193.875C135.894 193.289 137.25 193.188 138.496 193.595C139.743 194.002 140.779 194.883 141.38 196.047L142.021 195.727C141.33 194.407 140.153 193.407 138.739 192.938C137.324 192.469 135.783 192.566 134.44 193.21C129.359 195.321 129.601 204.895 129.617 205.302Z" fill="#E6E6E6"/>
<path d="M129.593 206.037C129.593 205.888 129.593 191.037 132.532 186.691C135.315 182.525 139.794 184.487 139.989 184.573L140.286 183.917C140.231 183.917 135.057 181.572 131.931 186.262C128.913 190.787 128.874 205.388 128.874 206.005L129.593 206.037Z" fill="#E6E6E6"/>
<path d="M124.474 190.615C124.474 190.615 127.108 191.592 126.326 193.882C125.545 196.173 117.244 199.948 117.244 199.948C117.244 199.948 113.75 196.751 116.955 191.553C120.159 186.355 124.404 188.982 124.474 190.615Z" fill="#E6E6E6"/>
<path d="M132.665 185.91C132.665 185.91 130.789 185.707 130.946 184.573C131.102 183.44 138.215 180.501 142.412 185.238C142.412 185.238 139.723 189.857 135.839 189.927C131.954 189.998 132.665 185.91 132.665 185.91Z" fill="#E6E6E6"/>
<path d="M134.58 193.523C134.58 193.523 133.291 192.475 134.682 191.959C136.073 191.444 142.912 191.6 142.983 198.369C142.983 198.369 135.026 199.69 134.041 197.11C133.056 194.531 134.58 193.523 134.58 193.523Z" fill="#E6E6E6"/>
<path d="M123.059 219.559H135.409L136.745 206.037H121.723L123.059 219.559Z" fill="#E6E6E6"/>
<path d="M121.066 207.53H137.402V204.544H121.066V207.53Z" fill="#E6E6E6"/>
<path d="M92.2319 205.771C92.1694 205.333 90.6687 195.039 93.6623 191.483C93.9617 191.109 94.3396 190.807 94.7692 190.596C95.1988 190.385 95.6695 190.272 96.1479 190.263C102.182 190.123 103.003 194.953 103.011 195.016L102.299 195.125C102.299 194.953 101.518 190.85 96.1635 190.982C95.7878 190.987 95.4179 191.075 95.081 191.242C94.7442 191.408 94.449 191.648 94.2173 191.944C91.4347 195.258 92.9276 205.56 92.9432 205.661L92.2319 205.771Z" fill="#E6E6E6"/>
<path d="M91.8254 205.302H91.1063C91.1063 205.208 91.3486 195.813 86.7214 193.875C85.5486 193.289 84.1923 193.188 82.9459 193.595C81.6996 194.001 80.6635 194.883 80.062 196.047L79.421 195.727C80.1113 194.408 81.2867 193.408 82.6996 192.939C84.1125 192.469 85.6525 192.566 86.995 193.21C92.0834 195.321 91.8411 204.895 91.8254 205.302Z" fill="#E6E6E6"/>
<path d="M91.8488 206.037C91.8488 205.888 91.8019 191.037 88.9099 186.691C86.1273 182.525 81.6408 184.487 81.4532 184.573L81.1562 183.917C81.2109 183.917 86.3853 181.572 89.5118 186.262C92.521 190.787 92.5679 205.388 92.5679 206.005L91.8488 206.037Z" fill="#E6E6E6"/>
<path d="M96.9685 190.615C96.9685 190.615 94.3344 191.592 95.116 193.882C95.8977 196.173 104.23 199.948 104.23 199.948C104.23 199.948 107.724 196.751 104.519 191.553C101.314 186.355 97.0388 188.982 96.9685 190.615Z" fill="#E6E6E6"/>
<path d="M88.7771 185.91C88.7771 185.91 90.653 185.707 90.4967 184.573C90.3403 183.44 83.2275 180.501 79.0302 185.238C79.0302 185.238 81.719 189.857 85.6037 189.927C89.4884 189.998 88.7771 185.91 88.7771 185.91Z" fill="#E6E6E6"/>
<path d="M86.8621 193.523C86.8621 193.523 88.1518 192.475 86.7605 191.959C85.3692 191.444 78.5299 191.6 78.4596 198.369C78.4596 198.369 86.4166 199.69 87.4014 197.11C88.3862 194.531 86.8621 193.523 86.8621 193.523Z" fill="#E6E6E6"/>
<path d="M98.3833 219.559H86.0336L84.697 206.037H99.7199L98.3833 219.559Z" fill="#E6E6E6"/>
<path d="M100.376 204.544H84.0404V207.53H100.376V204.544Z" fill="#E6E6E6"/>
<path d="M76.6697 298.605V223.936H178.774V298.605H182.682V219.129H72.7615V298.605H76.6697Z" fill="#E6E6E6"/>
<path d="M93.7482 298.605V250.41H195.844V298.605H199.752V245.595H89.8401V298.605H93.7482Z" fill="#F0F0F0"/>
<path d="M182.51 234.488C182.51 234.488 180.165 229.353 182.846 224.288C185.527 219.223 186.316 218.035 184.604 217.003C182.893 215.971 182.103 221.052 182.103 221.052C181.253 218.754 181.166 216.244 181.853 213.892C183.041 210.226 183.791 204.262 182.166 203.621C180.54 202.98 181.853 211.062 180.438 213.783C179.718 211.85 179.253 209.832 179.055 207.78C178.859 204.841 179.164 200.143 177.882 198.939C176.6 197.736 175.772 198.564 177.03 205.06C177.792 208.937 178.213 212.873 178.289 216.823C178.289 216.823 175.498 208.311 173.599 208.061C171.7 207.811 171.723 210.57 173.333 212.962C174.943 215.354 178.023 219.637 178.539 221.841C178.539 221.841 175.467 215.432 172.716 217.394C169.964 219.356 175.115 223.232 177.406 224.632C179.696 226.031 181.314 234.793 181.314 234.793L182.51 234.488Z" fill="#F0F0F0"/>
<path d="M180.657 236.598C180.657 236.598 182.947 231.432 180.196 226.437C177.445 221.442 176.655 220.239 178.359 219.176C180.063 218.113 180.907 223.186 180.907 223.186C181.727 220.878 181.784 218.368 181.071 216.026C179.836 212.383 179.016 206.427 180.634 205.763C182.252 205.099 181.04 213.196 182.486 215.924C183.182 213.981 183.621 211.955 183.791 209.898C183.956 206.951 183.588 202.261 184.862 201.042C186.136 199.823 186.973 200.636 185.785 207.147C185.07 211.033 184.696 214.974 184.667 218.926C184.667 218.926 187.364 210.375 189.232 210.101C191.1 209.828 191.131 212.579 189.56 214.994C187.989 217.409 184.94 221.739 184.456 223.951C184.456 223.951 187.449 217.495 190.224 219.418C192.999 221.341 187.879 225.288 185.613 226.718C183.346 228.149 181.845 236.942 181.845 236.942L180.657 236.598Z" fill="#F0F0F0"/>
<path d="M191.225 232.917H172.294L173.826 246.455H189.693L191.225 232.917Z" fill="#F0F0F0"/>
<path d="M146.57 234.488C146.57 234.488 148.915 229.353 146.242 224.288C143.569 219.223 142.772 218.035 144.483 217.003C146.195 215.971 146.985 221.052 146.985 221.052C147.834 218.754 147.922 216.244 147.235 213.892C146.047 210.226 145.296 204.262 146.922 203.621C148.548 202.98 147.235 211.062 148.65 213.783C149.37 211.85 149.835 209.832 150.033 207.78C150.228 204.841 149.924 200.143 151.205 198.939C152.487 197.736 153.316 198.564 152.057 205.06C151.296 208.937 150.875 212.873 150.799 216.823C150.799 216.823 153.589 208.311 155.489 208.061C157.388 207.811 157.365 210.57 155.755 212.962C154.144 215.354 151.065 219.637 150.549 221.841C150.549 221.841 153.621 215.432 156.372 217.394C159.123 219.356 153.972 223.232 151.682 224.632C149.392 226.031 147.774 234.793 147.774 234.793L146.57 234.488Z" fill="#F0F0F0"/>
<path d="M148.431 236.598C148.431 236.598 146.141 231.432 148.892 226.437C151.643 221.442 152.433 220.239 150.729 219.176C149.025 218.113 148.181 223.186 148.181 223.186C147.361 220.878 147.304 218.368 148.017 216.026C149.252 212.383 150.072 206.427 148.454 205.763C146.836 205.099 148.048 213.196 146.602 215.924C145.906 213.981 145.467 211.955 145.297 209.898C145.132 206.951 145.492 202.261 144.226 201.042C142.959 199.823 142.115 200.636 143.303 207.147C144.018 211.033 144.392 214.974 144.421 218.926C144.421 218.926 141.724 210.375 139.856 210.101C137.988 209.828 137.957 212.579 139.528 214.994C141.099 217.409 144.148 221.739 144.632 223.951C144.632 223.951 141.639 217.495 138.864 219.418C136.089 221.341 141.209 225.288 143.475 226.718C145.742 228.149 147.243 236.942 147.243 236.942L148.431 236.598Z" fill="#F0F0F0"/>
<path d="M137.863 232.917H156.794L155.262 246.455H139.395L137.863 232.917Z" fill="#F0F0F0"/>
<path d="M113.492 234.488C113.492 234.488 111.147 229.353 113.828 224.288C116.509 219.223 117.299 218.035 115.587 217.003C113.875 215.971 113.086 221.052 113.086 221.052C112.236 218.754 112.145 216.245 112.828 213.892C114.024 210.226 114.774 204.262 113.14 203.621C111.507 202.98 112.836 211.062 111.421 213.783C110.7 211.85 110.235 209.832 110.037 207.78C109.842 204.841 110.147 200.143 108.857 198.939C107.567 197.736 106.747 198.564 108.013 205.06C108.774 208.937 109.195 212.873 109.271 216.823C109.271 216.823 106.473 208.311 104.582 208.061C102.69 207.811 102.706 210.57 104.308 212.962C105.91 215.354 108.998 219.637 109.514 221.841C109.514 221.841 106.45 215.432 103.691 217.394C100.931 219.356 106.09 223.232 108.38 224.632C110.67 226.031 112.288 234.793 112.288 234.793L113.492 234.488Z" fill="#F0F0F0"/>
<path d="M111.64 236.598C111.64 236.598 113.93 231.432 111.178 226.437C108.427 221.442 107.638 220.239 109.334 219.176C111.03 218.113 111.882 223.186 111.882 223.186C112.706 220.879 112.766 218.369 112.054 216.026C110.811 212.383 109.998 206.427 111.616 205.763C113.234 205.099 112.015 213.196 113.461 215.924C114.157 213.981 114.599 211.955 114.774 209.898C114.93 206.951 114.571 202.261 115.845 201.042C117.119 199.823 117.947 200.636 116.767 207.147C116.064 211.026 115.701 214.96 115.681 218.902C115.681 218.902 118.369 210.351 120.245 210.078C122.121 209.804 122.145 212.555 120.566 214.971C118.987 217.386 115.954 221.716 115.47 223.928C115.47 223.928 118.455 217.472 121.238 219.395C124.021 221.317 118.893 225.265 116.626 226.695C114.36 228.125 112.859 236.919 112.859 236.919L111.64 236.598Z" fill="#F0F0F0"/>
<path d="M122.207 232.917H103.276L104.808 246.455H120.675L122.207 232.917Z" fill="#F0F0F0"/>
<path d="M186.457 142.295L186.16 144.702L186.105 145.21L184.581 157.763H170.426L168.886 145.046L168.823 144.507L168.55 142.295H186.457Z" fill="#EBEBEB"/>
<path d="M168.003 132.876C168.591 133.069 169.125 133.398 169.561 133.836C169.997 134.275 170.323 134.812 170.512 135.401C170.907 136.359 171.567 137.185 172.414 137.783C173.261 138.381 174.26 138.726 175.295 138.778C175.981 138.813 176.643 139.043 177.202 139.442L177.804 139.794C177.804 139.583 177.757 139.364 177.75 139.137C177.576 139.008 177.409 138.87 177.249 138.723L177.14 138.614C175.256 136.808 175.201 134.901 173.005 133.189C170.809 131.477 168.003 132.876 168.003 132.876Z" fill="#EBEBEB"/>
<path d="M186.269 131.001C185.714 131.274 185.232 131.675 184.863 132.171C184.493 132.667 184.247 133.244 184.143 133.853C183.887 134.858 183.35 135.769 182.596 136.48C181.842 137.191 180.901 137.674 179.883 137.871C179.209 138.006 178.586 138.328 178.086 138.801L177.539 139.231C177.539 139.02 177.539 138.801 177.539 138.574C177.687 138.426 177.828 138.262 177.968 138.09L178.062 137.973C179.672 135.917 179.454 134.025 181.392 132.017C183.33 130.008 186.269 131.001 186.269 131.001Z" fill="#EBEBEB"/>
<path d="M178.086 138.801C178.139 139.993 178.015 141.186 177.718 142.342C176.655 146.453 177.132 142.404 177.132 142.404C177.428 141.373 177.565 140.303 177.538 139.231C177.538 139.02 177.538 138.801 177.538 138.574C177.473 137.757 177.305 136.951 177.038 136.175C175.928 132.947 173.693 131.946 172.81 128.484C171.926 125.021 174.983 122.551 174.983 122.551C174.908 123.328 175.018 124.111 175.305 124.837C175.592 125.562 176.046 126.209 176.632 126.725C177.534 127.667 178.151 128.845 178.411 130.124C178.671 131.402 178.564 132.728 178.101 133.947C177.585 134.971 177.914 136.292 178.101 137.973C178.054 138.238 178.07 138.512 178.086 138.801Z" fill="#EBEBEB"/>
<path d="M185.456 143.553C185.384 143.553 185.313 143.529 185.256 143.483C185.199 143.438 185.16 143.374 185.144 143.303L177.765 112.499L170.394 143.303C170.374 143.385 170.323 143.456 170.251 143.501C170.18 143.546 170.094 143.562 170.011 143.546C169.929 143.523 169.858 143.471 169.813 143.398C169.768 143.326 169.752 143.239 169.769 143.155L177.429 111.053C177.454 110.991 177.497 110.937 177.553 110.899C177.608 110.861 177.674 110.841 177.742 110.841C177.809 110.841 177.875 110.861 177.931 110.899C177.987 110.937 178.03 110.991 178.054 111.053L185.738 143.155C185.748 143.196 185.751 143.239 185.744 143.281C185.738 143.323 185.724 143.363 185.702 143.399C185.68 143.436 185.652 143.467 185.617 143.492C185.583 143.517 185.544 143.536 185.503 143.546L185.456 143.553Z" fill="#EBEBEB"/>
<path d="M177.765 145.648C177.68 145.648 177.599 145.615 177.539 145.554C177.479 145.494 177.445 145.413 177.445 145.328V91.2315C177.445 91.1465 177.479 91.065 177.539 91.0049C177.599 90.9448 177.68 90.911 177.765 90.911C177.85 90.911 177.932 90.9448 177.992 91.0049C178.052 91.065 178.086 91.1465 178.086 91.2315V145.328C178.086 145.413 178.052 145.494 177.992 145.554C177.932 145.615 177.85 145.648 177.765 145.648Z" fill="#EBEBEB"/>
<path d="M86.8308 142.295L86.5416 144.702L86.4791 145.21L84.9627 157.763H70.7997L69.2599 145.046L69.1973 144.507L68.9316 142.295H86.8308Z" fill="#EBEBEB"/>
<path d="M86.5416 132.4C86.1961 132.917 85.7322 133.344 85.1884 133.646C84.6447 133.948 84.0367 134.115 83.4151 134.135C82.3866 134.257 81.4138 134.668 80.6099 135.321C79.806 135.975 79.204 136.842 78.8739 137.824C78.6546 138.48 78.2501 139.058 77.7092 139.489C77.5529 139.645 77.7092 139.755 77.5685 139.927C77.7796 139.927 77.6389 140.044 77.8656 140.091C78.0353 139.96 78.2128 139.84 78.3971 139.731L78.5299 139.645C80.781 138.324 82.6257 138.793 84.8767 137.136C87.1278 135.479 86.5416 132.4 86.5416 132.4Z" fill="#EBEBEB"/>
<path d="M69.1426 134.057C69.6998 134.33 70.1841 134.732 70.5551 135.229C70.9262 135.727 71.1734 136.305 71.2764 136.917C71.5329 137.922 72.0695 138.833 72.8237 139.544C73.5778 140.255 74.5186 140.738 75.5363 140.935C76.2134 141.063 76.8383 141.386 77.334 141.865L77.8812 142.295C77.8812 142.084 77.8812 141.857 77.8812 141.638C77.7327 141.482 77.592 141.326 77.4513 141.154L77.3575 141.029C75.7473 138.973 75.9584 137.082 74.0277 135.073C72.0971 133.064 69.1426 134.057 69.1426 134.057Z" fill="#EBEBEB"/>
<path d="M77.334 139.95C77.2811 141.142 77.4049 142.335 77.7014 143.491C78.7566 147.602 78.2876 143.546 78.2876 143.546C77.9924 142.517 77.8554 141.45 77.8812 140.38C77.8812 140.169 77.8812 139.942 77.8812 139.724C77.9465 138.907 78.1119 138.101 78.3736 137.324C79.4913 134.088 81.7268 133.095 82.6022 129.625C83.4776 126.155 80.4293 123.7 80.4293 123.7C80.507 124.475 80.3986 125.257 80.1131 125.982C79.8276 126.707 79.3733 127.353 78.7879 127.866C76.7322 129.859 76.443 133.338 77.3184 135.088C77.8343 136.12 77.506 137.433 77.3575 139.122C77.3809 139.387 77.3809 139.661 77.334 139.95Z" fill="#EBEBEB"/>
<path d="M85.4552 143.553C85.3824 143.553 85.3118 143.529 85.255 143.483C85.1981 143.438 85.1585 143.374 85.1425 143.303L77.7639 112.499L70.3854 143.303C70.3808 143.349 70.3665 143.393 70.3435 143.432C70.3205 143.472 70.2893 143.506 70.252 143.532C70.2147 143.559 70.1721 143.577 70.1272 143.586C70.0823 143.594 70.0361 143.593 69.9916 143.583C69.9472 143.572 69.9055 143.552 69.8694 143.524C69.8334 143.496 69.8038 143.46 69.7826 143.42C69.7614 143.379 69.7491 143.334 69.7466 143.289C69.7441 143.243 69.7513 143.197 69.7679 143.155L77.4513 111.053C77.476 110.991 77.5191 110.937 77.5749 110.899C77.6306 110.861 77.6965 110.841 77.7639 110.841C77.8314 110.841 77.8973 110.861 77.953 110.899C78.0088 110.937 78.0519 110.991 78.0766 111.053L85.7678 143.155C85.7846 143.239 85.769 143.326 85.7239 143.398C85.6789 143.471 85.608 143.523 85.5255 143.546L85.4552 143.553Z" fill="#EBEBEB"/>
<path d="M77.7639 145.648C77.679 145.648 77.5974 145.615 77.5373 145.554C77.4772 145.494 77.4435 145.413 77.4435 145.328V91.2315C77.4455 91.1471 77.4799 91.0667 77.5395 91.0071C77.5992 90.9474 77.6796 90.913 77.7639 90.911C77.8489 90.911 77.9305 90.9448 77.9906 91.0049C78.0507 91.065 78.0844 91.1465 78.0844 91.2315V145.328C78.0844 145.413 78.0507 145.494 77.9906 145.554C77.9305 145.615 77.8489 145.648 77.7639 145.648Z" fill="#EBEBEB"/>
<path d="M136.503 142.295L136.214 144.702L136.151 145.21L134.635 157.763H120.472L118.932 145.046L118.87 144.507L118.604 142.295H136.503Z" fill="#EBEBEB"/>
<path d="M136.785 134.862C136.195 135.055 135.661 135.385 135.224 135.825C134.788 136.266 134.463 136.803 134.275 137.394C133.88 138.352 133.22 139.178 132.373 139.776C131.527 140.374 130.527 140.719 129.492 140.771C128.803 140.804 128.139 141.035 127.577 141.435L126.975 141.787C126.975 141.576 127.022 141.357 127.03 141.13C127.202 140.997 127.366 140.857 127.53 140.708L127.639 140.607C129.523 138.793 129.578 136.894 131.774 135.174C133.971 133.455 136.785 134.862 136.785 134.862Z" fill="#EBEBEB"/>
<path d="M118.651 130.532C118.915 131.091 119.309 131.58 119.8 131.958C120.29 132.336 120.864 132.592 121.473 132.705C122.474 132.976 123.377 133.526 124.077 134.292C124.778 135.057 125.246 136.006 125.428 137.027C125.547 137.705 125.859 138.334 126.326 138.84L126.749 139.395C126.537 139.395 126.749 140.177 126.545 140.216C126.287 139.768 125.974 139.353 125.615 138.981L125.498 138.879C123.466 137.246 121.59 137.426 119.597 135.464C117.603 133.502 118.651 130.532 118.651 130.532Z" fill="#EBEBEB"/>
<path d="M126.373 138.801C126.323 139.993 126.45 141.187 126.749 142.342C127.804 146.453 127.335 142.404 127.335 142.404C127.034 141.374 126.894 140.304 126.921 139.231C126.921 139.02 126.92 138.801 126.96 138.574C127.018 137.757 127.184 136.95 127.452 136.175C128.562 132.947 130.797 131.946 131.681 128.484C132.564 125.021 129.508 122.551 129.508 122.551C129.583 123.328 129.472 124.111 129.185 124.837C128.899 125.562 128.444 126.209 127.858 126.725C126.955 127.666 126.338 128.845 126.079 130.124C125.82 131.403 125.93 132.729 126.397 133.947C126.905 134.971 126.584 136.292 126.397 137.973C126.405 138.238 126.389 138.512 126.373 138.801Z" fill="#EBEBEB"/>
<path d="M135.12 143.553C135.048 143.553 134.978 143.528 134.923 143.483C134.867 143.437 134.829 143.374 134.815 143.303L127.405 112.499L120.026 143.303C120.006 143.385 119.955 143.456 119.883 143.501C119.812 143.546 119.726 143.562 119.643 143.546C119.561 143.523 119.49 143.471 119.445 143.398C119.4 143.326 119.384 143.239 119.401 143.155L127.092 111.053C127.117 110.991 127.16 110.937 127.216 110.899C127.272 110.861 127.338 110.841 127.405 110.841C127.472 110.841 127.538 110.861 127.594 110.899C127.65 110.937 127.693 110.991 127.718 111.053L135.401 143.155C135.412 143.196 135.414 143.239 135.408 143.281C135.402 143.323 135.387 143.363 135.365 143.399C135.344 143.436 135.315 143.467 135.281 143.492C135.246 143.517 135.208 143.536 135.167 143.546L135.12 143.553Z" fill="#EBEBEB"/>
<path d="M127.405 145.648C127.32 145.648 127.239 145.615 127.178 145.554C127.118 145.494 127.085 145.413 127.085 145.328V91.2315C127.085 91.1465 127.118 91.065 127.178 91.0049C127.239 90.9448 127.32 90.911 127.405 90.911C127.489 90.913 127.57 90.9474 127.629 91.0071C127.689 91.0667 127.724 91.1471 127.726 91.2315V145.328C127.726 145.413 127.692 145.494 127.632 145.554C127.572 145.615 127.49 145.648 127.405 145.648Z" fill="#EBEBEB"/>
<path d="M183.377 88.0892H72.0972V90.8796H183.377V88.0892Z" fill="#EBEBEB"/>
<path d="M240.795 104.66L266.738 89.5664H286.724L313.088 103.941V201.738H240.795V104.66Z" fill="#E0E0E0"/>
<path d="M313.838 201.738H240.795V104.66L241.577 103.941C251.183 94.686 264.013 89.5312 277.352 89.5665C290.68 89.5447 303.494 94.7047 313.088 103.956L313.87 104.675L313.838 201.738ZM245.641 196.892H308.992V106.739C300.345 98.8184 289.044 94.4252 277.317 94.4252C265.59 94.4252 254.289 98.8184 245.641 106.739V196.892Z" fill="#FAFAFA"/>
<path d="M275.5 197.478H279.134V165.025H309.907V161.39H279.134V128.194H309.907V124.56H279.134V93.7872H275.5V124.56H244.727V128.194H275.5V161.39H244.727V165.025H275.5V197.478Z" fill="#F0F0F0"/>
<path d="M316.254 204.161H238.396V103.667L239.099 102.956C249.248 92.8316 262.998 87.146 277.333 87.146C291.668 87.146 305.417 92.8316 315.566 102.956L316.269 103.667L316.254 204.161ZM243.219 199.315H311.416V105.691C302.241 96.8989 290.025 91.9902 277.317 91.9902C264.61 91.9902 252.393 96.8989 243.219 105.691V199.315Z" fill="#F0F0F0"/>
<path d="M195.407 334.192C279.105 334.192 346.956 330.231 346.956 325.344C346.956 320.457 279.105 316.496 195.407 316.496C111.708 316.496 43.857 320.457 43.857 325.344C43.857 330.231 111.708 334.192 195.407 334.192Z" fill="#F5F5F5"/>
<path d="M84.0482 293.157C84.0482 292.852 83.032 262.986 78.1703 258.265C73.4806 253.685 68.0092 258.093 67.806 258.265L67.3057 257.663C67.3683 257.608 73.504 252.606 78.7175 257.663C83.798 262.595 84.7907 291.844 84.8298 293.086L84.0482 293.157Z" fill="#263238"/>
<path d="M84.4703 299.027C84.4703 298.667 81.1484 263.158 94.1156 248.276L94.7096 248.792C81.9535 263.408 85.1972 298.581 85.2441 298.949L84.4703 299.027Z" fill="#263238"/>
<path d="M84.0091 295.275L83.2275 295.22C83.2275 294.814 85.7678 254.865 76.2632 246.119L76.7869 245.54C86.5728 254.537 84.1185 293.61 84.0091 295.275Z" fill="#263238"/>
<path d="M85.252 295.252H84.4703C84.4703 294.149 84.783 268.254 92.1381 264.033C92.8381 263.581 93.6364 263.303 94.4659 263.223C95.2955 263.143 96.1323 263.262 96.906 263.572C101.361 265.409 103.565 273.335 103.659 273.671L102.878 273.874C102.878 273.796 100.681 265.987 96.5855 264.291C95.9211 264.031 95.2041 263.933 94.4942 264.007C93.7844 264.08 93.1025 264.323 92.5055 264.713C85.5568 268.7 85.252 294.986 85.252 295.252Z" fill="#263238"/>
<path d="M82.3833 295.267L81.6017 295.22C81.6017 295.017 82.7116 274.765 77.2481 267.637C75.9271 265.909 74.4889 265.089 72.9726 265.19C69.3927 265.44 66.3991 270.662 66.3678 270.732L65.6878 270.349C65.8207 270.114 68.9237 264.69 72.9178 264.409C74.7078 264.284 76.3804 265.19 77.8734 267.16C83.5089 274.523 82.4302 294.423 82.3833 295.267Z" fill="#263238"/>
<path d="M83.5636 298.026C83.4151 296.057 79.9916 249.8 86.0179 241.648L86.6432 242.117C80.7888 250.034 84.2983 297.487 84.3452 297.964L83.5636 298.026Z" fill="#263238"/>
<path d="M98.5395 268.262C98.5395 268.262 94.9284 269.591 95.9993 272.741C97.0701 275.891 108.505 281.065 108.505 281.065C108.505 281.065 113.297 276.672 108.896 269.536C104.496 262.4 98.6412 266.011 98.5395 268.262Z" fill="#407BFF"/>
<path opacity="0.2" d="M98.5395 268.262C98.5395 268.262 94.9284 269.591 95.9993 272.741C97.0701 275.891 108.505 281.065 108.505 281.065C108.505 281.065 113.297 276.672 108.896 269.536C104.496 262.4 98.6412 266.011 98.5395 268.262Z" fill="white"/>
<path d="M82.8524 262.267C82.8524 262.267 86.6979 262.111 86.9168 265.393C87.1357 268.676 78.5769 277.899 78.5769 277.899C78.5769 277.899 72.4724 275.695 73.7855 267.41C75.0986 259.125 81.8675 260.227 82.8524 262.267Z" fill="#407BFF"/>
<path opacity="0.2" d="M82.8524 262.267C82.8524 262.267 86.6979 262.111 86.9168 265.393C87.1357 268.676 78.5769 277.899 78.5769 277.899C78.5769 277.899 72.4724 275.695 73.7855 267.41C75.0986 259.125 81.8675 260.227 82.8524 262.267Z" fill="white"/>
<path d="M79.5695 246.392C79.5695 246.392 82.1332 246.111 81.9144 244.548C81.6955 242.984 71.933 238.967 66.1724 245.47C66.1724 245.47 69.8617 251.809 75.2002 251.895C80.5387 251.981 79.5695 246.392 79.5695 246.392Z" fill="#407BFF"/>
<path opacity="0.2" d="M79.5695 246.392C79.5695 246.392 82.1332 246.111 81.9144 244.548C81.6955 242.984 71.933 238.967 66.1724 245.47C66.1724 245.47 69.8617 251.809 75.2002 251.895C80.5387 251.981 79.5695 246.392 79.5695 246.392Z" fill="white"/>
<path d="M84.353 242.593C84.353 242.593 82.0082 243.719 81.3751 242.281C80.7419 240.843 86.8464 232.26 95.2176 234.738C95.2176 234.738 95.4443 242.07 90.9578 244.962C86.4713 247.854 84.353 242.593 84.353 242.593Z" fill="#407BFF"/>
<path opacity="0.2" d="M84.353 242.593C84.353 242.593 82.0082 243.719 81.3751 242.281C80.7419 240.843 86.8464 232.26 95.2176 234.738C95.2176 234.738 95.4443 242.07 90.9578 244.962C86.4713 247.854 84.353 242.593 84.353 242.593Z" fill="white"/>
<path d="M72.1987 266.996C72.1987 266.996 73.973 265.565 72.058 264.87C70.143 264.174 60.7714 264.37 60.6697 273.655C60.6697 273.655 71.6125 275.476 72.9491 271.936C74.2857 268.395 72.1987 266.996 72.1987 266.996Z" fill="#407BFF"/>
<path opacity="0.2" d="M72.1987 266.996C72.1987 266.996 73.973 265.565 72.058 264.87C70.143 264.174 60.7714 264.37 60.6697 273.655C60.6697 273.655 71.6125 275.476 72.9491 271.936C74.2857 268.395 72.1987 266.996 72.1987 266.996Z" fill="white"/>
<path d="M94.4752 246.158C94.4752 246.158 92.7009 244.727 94.6159 244.032C96.5308 243.336 105.91 243.531 106.004 252.817C106.004 252.817 95.0614 254.638 93.7248 251.097C92.3882 247.557 94.4752 246.158 94.4752 246.158Z" fill="#407BFF"/>
<path opacity="0.2" d="M94.4752 246.158C94.4752 246.158 92.7009 244.727 94.6159 244.032C96.5308 243.336 105.91 243.531 106.004 252.817C106.004 252.817 95.0614 254.638 93.7248 251.097C92.3882 247.557 94.4752 246.158 94.4752 246.158Z" fill="white"/>
<path d="M88.6989 253.638C88.6989 253.638 88.5425 251.903 89.9495 252.583C91.3564 253.263 96.2025 258.539 91.1766 263.525C91.1766 263.525 84.353 258.468 85.5802 255.842C86.8073 253.216 88.6989 253.638 88.6989 253.638Z" fill="#407BFF"/>
<path opacity="0.2" d="M88.6989 253.638C88.6989 253.638 88.5425 251.903 89.9495 252.583C91.3564 253.263 96.2025 258.539 91.1766 263.525C91.1766 263.525 84.353 258.468 85.5802 255.842C86.8073 253.216 88.6989 253.638 88.6989 253.638Z" fill="white"/>
<path d="M70.6198 256.116C70.6198 256.116 71.675 254.732 70.1274 254.552C68.5798 254.373 61.6233 256.233 63.2413 263.15C63.2413 263.15 71.7063 262.509 72.0737 259.633C72.441 256.756 70.6198 256.116 70.6198 256.116Z" fill="#407BFF"/>
<path opacity="0.2" d="M70.6198 256.116C70.6198 256.116 71.675 254.732 70.1274 254.552C68.5798 254.373 61.6233 256.233 63.2413 263.15C63.2413 263.15 71.7063 262.509 72.0737 259.633C72.441 256.756 70.6198 256.116 70.6198 256.116Z" fill="white"/>
<path d="M99.2196 320.998H70.1665L67.04 289.194H102.354L99.2196 320.998Z" fill="#263238"/>
<path opacity="0.7" d="M99.2196 320.998H70.1665L67.04 289.194H102.354L99.2196 320.998Z" fill="white"/>
<path d="M103.902 285.684H65.4846V292.703H103.902V285.684Z" fill="#263238"/>
<path opacity="0.5" d="M103.902 285.684H65.4846V292.703H103.902V285.684Z" fill="white"/>
<path d="M219.298 206.079C219.97 208.37 220.619 210.769 221.33 213.114C222.041 215.459 222.721 217.804 223.448 220.094C224.175 222.384 224.941 224.659 225.793 226.683C226.004 227.183 226.215 227.668 226.426 228.098C226.637 228.528 226.848 228.919 226.965 229.106C227.083 229.294 227.051 229.239 226.911 229.106C226.504 228.825 226.95 229.106 227.098 229.231C227.45 229.489 228.005 229.802 228.482 230.099C230.506 231.318 232.679 232.538 234.836 233.741L241.355 237.391C245.727 239.814 250.07 242.313 254.385 244.887L252.228 249.577C247.449 247.941 242.728 246.182 238.065 244.301C235.72 243.371 233.375 242.37 231.069 241.393C228.763 240.416 226.434 239.345 224.034 238.173C223.425 237.853 222.862 237.587 222.166 237.173C221.675 236.918 221.212 236.614 220.783 236.266C220.298 235.861 219.855 235.408 219.462 234.914C218.915 234.234 218.419 233.516 217.977 232.764C217.578 232.092 217.195 231.459 216.914 230.826C215.738 228.422 214.694 225.957 213.787 223.439C212.001 218.614 210.485 213.692 209.246 208.698L219.298 206.079Z" fill="#FFB573"/>
<path d="M224.839 216.631L210.661 220.446L210.098 219.32L205.635 210.441L211.685 207.041L219.782 202.492C222.01 206.126 224.839 216.631 224.839 216.631Z" fill="#263238"/>
<path opacity="0.2" d="M210.098 219.32L205.635 210.441L211.685 207.041C212.232 209.206 213.357 215.24 210.098 219.32Z" fill="black"/>
<path d="M219.782 202.492C219.782 202.492 207.753 225.784 178.395 232.045L150.741 221.423C150.741 221.423 155.228 217.624 160.973 212.168C166.389 207.091 171.502 201.698 176.285 196.02C179.513 192.112 182.233 188.204 183.781 184.827C183.781 184.827 207.269 183.874 219.782 202.492Z" fill="#263238"/>
<path d="M210.661 215.092C210.661 215.092 209.738 216.53 208.011 218.664C204.173 223.408 196.349 231.576 185.875 234.953C170.681 239.838 162.059 232.045 162.059 232.045V220.883C173.956 222.447 185.211 212.622 189.416 208.377C190.534 207.26 191.151 206.541 191.151 206.541L195.349 208.377L207.159 213.56L210.661 215.092Z" fill="#407BFF"/>
<path opacity="0.2" d="M195.341 208.424C194.817 210.261 193.778 212.801 191.925 212.544C190.073 212.286 189.533 209.949 189.408 208.424C190.526 207.307 191.144 206.588 191.144 206.588L195.341 208.424Z" fill="black"/>
<path opacity="0.2" d="M187.149 221.423C187.149 221.423 193.254 224.416 198.209 225.503C199.835 224.299 200.961 223.369 200.961 223.369L187.556 218.585C182.71 223.791 176.918 225.815 177.113 227.183C177.309 228.551 184.187 231.091 188.095 230.959C190.26 230.88 193.989 228.567 196.873 226.519C194.223 225.995 189.424 224.698 187.149 221.423Z" fill="black"/>
<path d="M188.189 185.015C188.189 185.015 195.099 190.166 190.12 209.042C189.987 209.561 190.06 210.11 190.322 210.577C190.584 211.044 191.015 211.393 191.527 211.551C191.794 211.633 192.076 211.659 192.354 211.63C192.633 211.6 192.903 211.514 193.147 211.378C193.392 211.241 193.606 211.057 193.778 210.835C193.949 210.614 194.074 210.36 194.145 210.089C195.466 205.102 198.178 192.37 193.66 185.82L188.189 185.015Z" fill="#407BFF"/>
<path opacity="0.2" d="M193.551 209.292C193.564 209.45 193.544 209.61 193.493 209.76C193.441 209.91 193.359 210.048 193.251 210.165C193.144 210.282 193.013 210.375 192.867 210.439C192.722 210.503 192.565 210.536 192.406 210.536C192.247 210.536 192.09 210.503 191.944 210.439C191.799 210.375 191.668 210.282 191.561 210.165C191.453 210.048 191.371 209.91 191.319 209.76C191.268 209.61 191.248 209.45 191.261 209.292C191.285 209.005 191.416 208.737 191.628 208.541C191.84 208.346 192.118 208.238 192.406 208.238C192.694 208.238 192.972 208.346 193.184 208.541C193.396 208.737 193.527 209.005 193.551 209.292Z" fill="black"/>
<path opacity="0.2" d="M210.661 215.092C210.661 215.092 209.738 216.53 208.011 218.664C205.869 217.835 206.518 215.185 207.151 213.56L210.661 215.092Z" fill="black"/>
<path d="M207.089 215.842C209.215 212.794 214.405 204.297 213.412 195.27L215.515 197.247C215.515 197.247 218.782 206.212 209.012 217.351C208.838 217.544 208.608 217.677 208.354 217.732C208.1 217.787 207.835 217.76 207.597 217.655C207.433 217.582 207.287 217.473 207.17 217.337C207.053 217.201 206.967 217.04 206.919 216.867C206.87 216.695 206.861 216.513 206.89 216.336C206.919 216.159 206.987 215.99 207.089 215.842Z" fill="#407BFF"/>
<path opacity="0.2" d="M209.34 216.538C209.22 216.652 209.07 216.73 208.908 216.764C208.746 216.798 208.578 216.786 208.422 216.73C208.267 216.673 208.13 216.575 208.027 216.445C207.924 216.315 207.86 216.159 207.841 215.995C207.822 215.83 207.849 215.664 207.919 215.514C207.989 215.364 208.1 215.236 208.239 215.146C208.377 215.055 208.538 215.005 208.704 215.001C208.869 214.997 209.033 215.039 209.176 215.123C209.381 215.291 209.513 215.533 209.544 215.797C209.575 216.061 209.501 216.327 209.34 216.538Z" fill="black"/>
<path d="M121.079 302.423L151.632 301.313L146.075 312.529L115.365 306.917L121.079 302.423Z" fill="#EBB376"/>
<path d="M124.432 301.883C124.955 302.485 117.327 308.574 117.327 308.574C117.327 308.574 108.799 308.097 103.57 310.997C98.341 313.897 98.4036 309.129 103.211 304.744L115.115 293.919C118.538 290.823 119.046 295.677 124.432 301.883Z" fill="#263238"/>
<path d="M121.876 304.658C121.909 304.651 121.944 304.651 121.977 304.658C122.003 304.65 122.03 304.65 122.056 304.658C122.082 304.665 122.107 304.678 122.126 304.697C122.154 304.72 122.175 304.75 122.188 304.783C122.235 304.893 123.15 307.128 122.54 308.402C122.452 308.601 122.321 308.778 122.156 308.92C121.991 309.062 121.796 309.165 121.587 309.223C121.419 309.305 121.231 309.332 121.047 309.301C120.863 309.271 120.694 309.183 120.563 309.051C120.242 308.652 120.406 307.8 120.711 306.956C120.252 307.545 119.637 307.995 118.937 308.254C118.796 308.287 118.651 308.292 118.508 308.268C118.366 308.244 118.23 308.191 118.108 308.113C117.936 308.03 117.794 307.897 117.7 307.731C117.606 307.564 117.566 307.373 117.585 307.183C117.644 306.873 117.813 306.596 118.061 306.401C119.223 305.605 120.514 305.016 121.876 304.658ZM121.329 305.377C119.859 305.893 118.202 306.698 118.093 307.284C118.093 307.339 118.093 307.488 118.39 307.707C118.452 307.748 118.523 307.775 118.598 307.786C118.672 307.797 118.748 307.791 118.82 307.769C119.197 307.653 119.538 307.443 119.812 307.159C120.377 306.607 120.885 306 121.329 305.346V305.377ZM122.11 308.207C122.462 307.425 122.157 306.237 121.938 305.534C121.235 306.909 120.719 308.41 120.993 308.746C121.079 308.856 121.329 308.801 121.469 308.746C121.62 308.705 121.759 308.63 121.876 308.527C121.963 308.434 122.032 308.325 122.079 308.207H122.11Z" fill="#407BFF"/>
<path d="M127.777 309.661L134.085 294.161L153.649 295.959L151.359 314.155L127.777 309.661Z" fill="#407BFF"/>
<path opacity="0.2" d="M127.777 309.661L134.085 294.161L153.649 295.959L151.359 314.155L127.777 309.661Z" fill="black"/>
<path d="M105.86 305.94L136.422 304.822L130.865 316.046L100.154 310.434L105.86 305.94Z" fill="#EBB376"/>
<path d="M109.221 305.401C109.745 305.995 102.116 312.091 102.116 312.091C102.116 312.091 93.5888 311.615 88.3597 314.514C83.1306 317.414 83.1932 312.646 88.0002 308.261L99.9043 297.436C103.328 294.333 103.836 299.195 109.221 305.401Z" fill="#263238"/>
<path d="M100.467 311.888H100.569C100.595 311.884 100.621 311.884 100.647 311.888C100.671 311.899 100.692 311.915 100.709 311.935C100.737 311.958 100.759 311.988 100.772 312.021C100.819 312.138 101.733 314.366 101.124 315.64C101.034 315.839 100.902 316.016 100.738 316.159C100.573 316.302 100.38 316.408 100.17 316.469C100.002 316.549 99.8129 316.576 99.6292 316.543C99.4455 316.511 99.2766 316.422 99.1462 316.289C98.8257 315.89 98.9899 315.046 99.2947 314.202C98.8352 314.789 98.2206 315.236 97.5204 315.491C97.3806 315.528 97.2348 315.535 97.0921 315.512C96.9495 315.489 96.8132 315.437 96.6919 315.359C96.5197 315.276 96.377 315.143 96.2833 314.976C96.1896 314.81 96.1494 314.618 96.1682 314.428C96.2308 314.12 96.3995 313.844 96.645 313.647C97.8086 312.845 99.1016 312.251 100.467 311.888ZM99.92 312.607C98.4505 313.123 96.7935 313.928 96.6841 314.514C96.6841 314.569 96.6841 314.725 96.9811 314.944C97.0459 314.984 97.1181 315.01 97.1934 315.021C97.2687 315.032 97.3454 315.027 97.4188 315.007C97.7941 314.883 98.1344 314.671 98.4115 314.389C98.9758 313.85 99.4814 313.253 99.92 312.607ZM100.702 315.445C100.936 314.558 100.875 313.62 100.53 312.771C99.834 314.147 99.3103 315.64 99.5839 315.984C99.6699 316.085 99.92 316.031 100.061 315.984C100.212 315.94 100.351 315.863 100.467 315.757C100.552 315.665 100.621 315.56 100.67 315.445H100.702Z" fill="#407BFF"/>
<path d="M234 301.672C231.796 310.981 224.957 313.944 218.102 314.436C209.746 315.015 201.383 311.857 201.383 311.857C201.383 311.857 200.601 315.03 185.875 316.547C164.889 318.727 119.93 316.844 119.93 316.844L123.525 303.415L167.296 294.497C167.296 294.497 134.515 265.929 136.711 241.714C137.493 233.03 152.344 217.694 152.594 217.038L189.893 228.528L185.868 234.953C185.868 234.953 238.713 281.897 234 301.672Z" fill="#407BFF"/>
<path opacity="0.2" d="M218.102 314.436C209.746 315.015 201.383 311.857 201.383 311.857C201.383 311.857 205.291 306.753 204.205 297.944C203.165 289.268 176.191 247.568 175.409 246.357C176.574 247.435 213.709 281.897 218.68 299.116C220.572 305.651 219.806 310.692 218.102 314.436Z" fill="black"/>
<path d="M211.325 194.418C210.544 196.301 211.372 197.224 211.372 197.224C211.2 197.833 210.891 198.395 210.469 198.867C210.047 199.338 209.522 199.707 208.935 199.945C208.348 200.182 207.715 200.283 207.083 200.238C206.451 200.193 205.838 200.004 205.291 199.686C199.718 196.395 201.117 188.509 201.117 188.509C206.151 188.782 209.27 184.53 210.731 181.826C211.122 181.123 211.459 180.391 211.739 179.637L217.375 188.305C216.188 189.11 215.06 189.999 213.998 190.963C212.884 191.923 211.975 193.098 211.325 194.418Z" fill="#FFB573"/>
<path opacity="0.2" d="M217.375 188.305C216.188 189.11 215.06 189.998 213.998 190.963C212.884 191.923 211.975 193.098 211.325 194.418C206.893 192.253 210.731 181.912 210.731 181.912V181.849C211.122 181.146 211.459 180.415 211.739 179.661L217.375 188.305Z" fill="black"/>
<path d="M221.228 160.417C221.228 160.417 226.7 151.037 220.408 147.129C218.567 145.998 216.471 145.348 214.313 145.239C212.155 145.13 210.004 145.565 208.058 146.504C208.058 146.504 206.651 143.291 201.289 145.214C195.927 147.137 193.27 151.85 196.709 157.244C196.709 157.244 193.668 159.19 193.668 162.324C193.668 165.458 197.967 170.023 194.677 170.562C194.677 170.562 198.585 171.063 196.873 166.537C196.873 166.537 200.312 168.1 198.592 171.954C196.873 175.807 200.312 176.284 200.312 176.284C200.312 176.284 197.186 173.751 200.312 171.954C203.439 170.156 207.073 168.429 207.143 163.575C207.143 162.011 211.278 164.739 213.287 164.263C216.143 163.465 218.832 162.163 221.228 160.417Z" fill="#263238"/>
<path d="M224.355 162.738C232.828 165.263 234.203 170.617 232.226 179.535C229.748 190.689 225.011 197.724 215.108 192.229C201.688 184.772 210.286 158.541 224.355 162.738Z" fill="#FFB573"/>
<path d="M226.919 177.433C227.22 178.901 227.695 180.329 228.333 181.685C227.98 181.959 227.559 182.131 227.115 182.182C226.672 182.233 226.222 182.161 225.816 181.974L226.919 177.433Z" fill="#D58745"/>
<path d="M221.932 175.19C221.744 175.893 221.205 176.354 220.744 176.229C220.283 176.104 220.048 175.447 220.243 174.728C220.439 174.009 220.963 173.564 221.431 173.689C221.9 173.814 222.127 174.486 221.932 175.19Z" fill="#263238"/>
<path d="M221.228 173.673L222.917 173.486C222.917 173.486 221.807 174.564 221.228 173.673Z" fill="#263238"/>
<path d="M230.694 177.425C230.498 178.121 229.967 178.59 229.498 178.465C229.029 178.34 228.81 177.683 228.998 176.964C229.185 176.245 229.725 175.791 230.194 175.924C230.663 176.057 230.881 176.722 230.694 177.425Z" fill="#263238"/>
<path d="M229.983 175.901L231.671 175.721C231.671 175.721 230.608 176.8 229.983 175.901Z" fill="#263238"/>
<path d="M219.532 169.898C219.472 169.899 219.412 169.884 219.359 169.855C219.305 169.826 219.26 169.785 219.227 169.734C219.199 169.693 219.179 169.648 219.168 169.599C219.158 169.551 219.157 169.501 219.165 169.453C219.174 169.404 219.192 169.357 219.219 169.316C219.246 169.274 219.281 169.238 219.321 169.21C221.221 167.881 223.636 168.898 223.737 168.944C223.783 168.963 223.825 168.991 223.86 169.026C223.894 169.061 223.922 169.103 223.94 169.149C223.958 169.195 223.967 169.244 223.966 169.294C223.965 169.343 223.953 169.392 223.933 169.437C223.914 169.483 223.886 169.524 223.851 169.559C223.816 169.594 223.774 169.621 223.728 169.639C223.682 169.658 223.633 169.666 223.584 169.665C223.534 169.664 223.485 169.653 223.44 169.632C223.44 169.632 221.307 168.741 219.751 169.828C219.687 169.873 219.611 169.898 219.532 169.898Z" fill="#263238"/>
<path d="M233.008 172.907C232.951 172.907 232.895 172.895 232.843 172.87C232.792 172.846 232.746 172.811 232.71 172.767C232.393 172.299 231.975 171.909 231.486 171.625C230.998 171.341 230.452 171.17 229.889 171.125C229.79 171.125 229.695 171.087 229.623 171.019C229.552 170.95 229.51 170.857 229.506 170.758C229.504 170.66 229.54 170.564 229.607 170.493C229.675 170.421 229.767 170.379 229.865 170.375C230.547 170.412 231.212 170.604 231.808 170.938C232.404 171.271 232.916 171.736 233.305 172.298C233.366 172.377 233.393 172.477 233.381 172.576C233.37 172.675 233.32 172.766 233.242 172.829C233.175 172.881 233.092 172.909 233.008 172.907Z" fill="#263238"/>
<path d="M210.856 174.267C210.856 174.267 216.898 168.483 217.891 162.926C217.891 162.926 236.736 161.066 232.484 178.363C232.484 178.363 238.643 163.715 224.167 159.033C209.691 154.351 203.399 175.698 209.035 184.288C209.043 184.288 207.112 177.894 210.856 174.267Z" fill="#263238"/>
<path d="M225.809 184.858C225 185.871 224.263 186.939 223.604 188.055C223.393 187.977 223.182 187.899 222.971 187.805C220.087 186.656 219.134 185.171 218.946 183.897C218.865 183.262 218.943 182.618 219.173 182.021C219.293 181.682 219.459 181.362 219.665 181.067C220.83 182.584 223.433 183.866 224.855 184.491C225.426 184.718 225.809 184.858 225.809 184.858Z" fill="#263238"/>
<path d="M224.839 184.452L224.159 185.382C221.455 184.288 219.688 183.154 219.173 181.998C219.295 181.667 219.46 181.354 219.665 181.067C220.814 182.545 223.417 183.827 224.839 184.452Z" fill="white"/>
<path d="M222.971 187.805C220.087 186.656 219.134 185.171 218.946 183.897C220.035 184.354 221.033 185.002 221.893 185.812C222.448 186.35 222.824 187.046 222.971 187.805Z" fill="#DE5753"/>
<path d="M206.995 178.215C207.05 179.246 212.701 155.352 230.827 163.098L227.817 158.861C221.619 155.399 205.971 157.431 206.995 178.215Z" fill="#407BFF"/>
<path d="M211.708 176.464C211.91 175.46 211.711 174.417 211.153 173.559C210.594 172.702 209.722 172.097 208.722 171.875C206.01 171.383 203.149 176.401 209.301 179.645C210.176 180.106 210.981 179.348 211.708 176.464Z" fill="#FFB573"/>
<path opacity="0.2" d="M182.147 236.821C183.488 236.422 184.747 235.79 185.868 234.953C184.672 235.156 183.523 235.289 182.35 235.383C182.435 235.621 182.461 235.876 182.426 236.127C182.39 236.377 182.295 236.615 182.147 236.821Z" fill="black"/>
<path opacity="0.2" d="M163.388 232.115C157.824 229.665 152.838 226.069 148.756 221.563L146.364 224.471C146.364 224.471 150.655 230.794 160.863 234.898C161.943 234.219 162.817 233.256 163.388 232.115Z" fill="black"/>
<path opacity="0.2" d="M181.233 235.461C175.857 235.75 170.48 234.906 165.452 232.983C164.642 233.966 163.709 234.841 162.677 235.586C163.677 235.938 164.725 236.266 165.803 236.563C171.806 238.181 176.371 238.087 179.622 237.47C180.033 237.289 180.393 237.012 180.674 236.663C180.954 236.313 181.146 235.901 181.233 235.461Z" fill="black"/>
<path d="M211.169 250.945L206.557 252.774L198.381 229.903L196.568 230.982L204.861 253.446L199.257 255.674C199.257 255.674 202.829 264.811 211.169 268.023C211.169 268.023 215.874 262.411 211.169 250.945Z" fill="#263238"/>
<path opacity="0.2" d="M211.169 250.945L206.557 252.774L198.381 229.903L196.568 230.982L204.861 253.446L199.257 255.674C199.257 255.674 202.829 264.811 211.169 268.023C211.169 268.023 215.874 262.411 211.169 250.945Z" fill="white"/>
<path d="M196.482 229.997L197.959 229.427C198.057 229.389 198.161 229.372 198.265 229.375C198.369 229.379 198.472 229.403 198.566 229.447C198.661 229.491 198.746 229.553 198.816 229.63C198.886 229.707 198.941 229.797 198.975 229.896L204.181 244.825C204.215 244.923 204.229 245.027 204.223 245.131C204.216 245.235 204.188 245.337 204.142 245.43C204.095 245.524 204.03 245.606 203.951 245.674C203.872 245.742 203.78 245.793 203.681 245.825L202.532 246.193C202.34 246.256 202.131 246.242 201.949 246.155C201.767 246.067 201.625 245.913 201.555 245.724L196.029 231.006C195.992 230.91 195.975 230.807 195.978 230.705C195.981 230.602 196.004 230.501 196.047 230.407C196.089 230.314 196.149 230.229 196.223 230.159C196.298 230.089 196.386 230.034 196.482 229.997Z" fill="#407BFF"/>
<path opacity="0.2" d="M196.482 229.997L197.959 229.427C198.057 229.389 198.161 229.372 198.265 229.375C198.369 229.379 198.472 229.403 198.566 229.447C198.661 229.491 198.746 229.553 198.816 229.63C198.886 229.707 198.941 229.797 198.975 229.896L204.181 244.825C204.215 244.923 204.229 245.027 204.223 245.131C204.216 245.235 204.188 245.337 204.142 245.43C204.095 245.524 204.03 245.606 203.951 245.674C203.872 245.742 203.78 245.793 203.681 245.825L202.532 246.193C202.34 246.256 202.131 246.242 201.949 246.155C201.767 246.067 201.625 245.913 201.555 245.724L196.029 231.006C195.992 230.91 195.975 230.807 195.978 230.705C195.981 230.602 196.004 230.501 196.047 230.407C196.089 230.314 196.149 230.229 196.223 230.159C196.298 230.089 196.386 230.034 196.482 229.997Z" fill="black"/>
<path d="M257.324 243.691C255.719 243.104 254.03 242.782 252.321 242.738L249.101 239.799L246.139 248.881L252.736 250.398L258.621 253.837L266.094 254.064L266.305 245.466L257.324 243.691Z" fill="#407BFF"/>
<path opacity="0.6" d="M257.324 243.691C255.719 243.104 254.03 242.782 252.321 242.738L249.101 239.799L246.139 248.881L252.736 250.398L258.621 253.837L266.094 254.064L266.305 245.466L257.324 243.691Z" fill="white"/>
<path d="M271.378 238.001C271.069 238.155 270.729 238.235 270.385 238.235C270.04 238.235 269.7 238.155 269.392 238.001C268.712 237.728 267.829 238.134 267.548 237.219C267.471 236.998 267.465 236.759 267.529 236.534C267.593 236.308 267.725 236.109 267.907 235.961L268.024 235.867C268.024 235.867 268.024 235.375 268.712 235.281C269.4 235.187 269.713 235.601 270.197 235.867C270.682 236.133 271.706 235.992 272.323 236.985C272.408 237.113 272.474 237.252 272.519 237.399C272.62 237.892 271.909 237.704 271.378 238.001Z" fill="#407BFF"/>
<path opacity="0.2" d="M272.519 237.423C271.011 237.043 269.524 236.586 268.063 236.055L267.907 235.984L268.024 235.891C268.024 235.891 268.024 235.398 268.712 235.304C269.4 235.211 269.713 235.625 270.197 235.891C270.682 236.156 271.706 236.016 272.323 237.008C272.408 237.136 272.474 237.276 272.519 237.423Z" fill="black"/>
<path d="M273.027 232.913C272.256 233.111 271.503 233.372 270.776 233.694C269.931 234.187 269.416 235.218 268.525 235.039C267.633 234.859 266.383 234.57 267.274 232.913C267.274 232.913 267.274 232.874 267.274 232.85C267.274 232.827 266.242 233.108 265.711 232.569C265.584 232.406 265.495 232.218 265.448 232.018C265.402 231.817 265.401 231.609 265.444 231.408C265.487 231.206 265.574 231.017 265.699 230.853C265.823 230.689 265.982 230.554 266.164 230.458C267.008 230.06 267.047 230.599 267.86 230.099C268.673 229.599 269.205 230.013 270.33 230.099C271.133 230.21 271.942 230.273 272.753 230.286C273.511 230.37 274.216 230.716 274.746 231.263C274.791 231.299 274.831 231.341 274.863 231.388C275.161 231.717 273.519 232.655 273.027 232.913Z" fill="#407BFF"/>
<path opacity="0.2" d="M274.793 231.263C272.177 231.028 269.551 231.604 267.274 232.913C267.274 232.913 267.274 232.874 267.274 232.85C267.274 232.827 266.242 233.108 265.711 232.569C265.584 232.406 265.495 232.218 265.448 232.018C265.402 231.817 265.401 231.609 265.444 231.408C265.487 231.206 265.574 231.017 265.699 230.853C265.823 230.689 265.982 230.554 266.164 230.458C267.008 230.06 267.047 230.599 267.86 230.099C268.673 229.599 269.205 230.013 270.33 230.099C271.133 230.21 271.942 230.273 272.753 230.286C273.528 230.359 274.251 230.706 274.793 231.263Z" fill="white"/>
<path d="M267.211 215.397C266.813 216.366 268.345 217.741 265.312 219.305C263.702 220.125 262.967 217.741 262.967 217.741H262.772C261.31 217.921 260.568 217.632 260.568 216.069C260.568 214.505 260.904 213.192 262.318 212.434C263.285 211.859 264.184 211.177 264.999 210.402C265.906 209.872 266.954 209.635 268.001 209.722C268.126 209.732 268.249 209.755 268.368 209.792C268.915 209.995 268.017 211.356 268.368 212.434C268.72 213.513 267.61 214.42 267.211 215.397Z" fill="#407BFF"/>
<path opacity="0.2" d="M267.211 215.396C266.813 216.366 268.345 217.741 265.312 219.305C263.702 220.125 262.967 217.741 262.967 217.741H262.772C263.46 215.889 265.281 211.551 268.001 209.722C268.125 209.732 268.249 209.755 268.368 209.792C268.915 209.995 268.016 211.355 268.368 212.434C268.72 213.513 267.61 214.419 267.211 215.396Z" fill="black"/>
<path d="M273.41 220.837C272.667 221.548 272.628 222.275 271.456 222.853C270.283 223.432 269.033 224.846 267.68 224.917C266.328 224.987 265.234 224.713 265.335 223.838C265.437 222.963 266.524 222.103 266.797 221.876L266.86 221.829C265.351 221.751 265.296 221.775 265.296 220.54C265.296 219.305 267.743 218.515 268.509 218.859C269.275 219.203 270.752 217.78 271.362 218.015C271.818 218.188 272.293 218.306 272.777 218.367C273.112 218.422 273.452 218.451 273.793 218.453C274.684 218.453 274.152 220.149 273.41 220.837Z" fill="#407BFF"/>
<path opacity="0.2" d="M272.816 218.367C271.214 220.123 269.114 221.347 266.797 221.876L266.86 221.829C265.351 221.751 265.296 221.775 265.296 220.54C265.296 219.305 267.743 218.515 268.509 218.859C269.275 219.203 270.752 217.78 271.362 218.015C271.83 218.191 272.318 218.309 272.816 218.367Z" fill="black"/>
<path d="M258.621 219.867C258.02 220.735 256.097 220.649 254.807 219.516L254.518 219.226C254.518 219.226 254.627 222.626 253.322 222.494C252.017 222.361 250.657 221.282 249.375 219.867C248.093 218.453 248.835 217.648 248.499 216.108C248.163 214.568 247.421 214.748 247.35 212.473C247.221 210.615 247.488 208.75 248.132 207.002C248.212 206.718 248.348 206.452 248.531 206.22C248.953 205.743 249.351 206.478 250.446 206.517C251.86 206.564 253.205 207.338 254.823 208.956C256.441 210.574 257.105 213.943 258.621 214.748C260.138 215.553 259.262 218.922 258.621 219.867Z" fill="#407BFF"/>
<path opacity="0.2" d="M258.621 219.867C258.019 220.735 256.097 220.649 254.807 219.516C253.361 214.185 249.758 208.159 248.554 206.228C248.976 205.751 249.375 206.486 250.469 206.525C251.884 206.572 253.228 207.346 254.846 208.964C256.464 210.582 257.128 213.95 258.645 214.755C260.161 215.561 259.262 218.922 258.621 219.867Z" fill="white"/>
<path d="M252.532 227.285C251.79 228.067 250.375 227.473 249.367 227.285C248.359 227.097 244.45 226.863 243.512 226.198C242.575 225.534 240.331 224.518 240.261 223.736C240.254 223.64 240.285 223.545 240.347 223.471C240.949 222.689 244.185 221.008 245.912 220.876C247.639 220.743 248.359 220.876 250.719 222.087C252.783 223.15 252.282 224.495 251.673 224.565C251.589 224.591 251.499 224.591 251.415 224.565C251.415 224.565 253.275 226.535 252.532 227.285Z" fill="#407BFF"/>
<path opacity="0.2" d="M251.712 224.565C245.209 222.064 241.73 223.002 240.3 223.736C240.293 223.64 240.324 223.545 240.386 223.471C240.988 222.689 244.224 221.008 245.951 220.876C247.679 220.743 248.398 220.876 250.758 222.087C252.783 223.15 252.298 224.495 251.712 224.565Z" fill="black"/>
<path d="M256.48 226.316C256.045 223.912 255.439 221.543 254.666 219.226C253.906 216.916 252.989 214.66 251.923 212.473C252.881 214.702 253.691 216.992 254.346 219.328C255 221.654 255.488 224.023 255.807 226.417C255.807 226.581 255.847 226.738 255.87 226.902C255.284 226.496 254.69 226.12 254.08 225.745C253.241 225.251 252.377 224.8 251.493 224.393C249.737 223.553 247.849 223.024 245.912 222.83C247.827 223.113 249.678 223.726 251.383 224.643C253.017 225.497 254.562 226.51 255.995 227.668C256.212 229.638 256.325 231.618 256.331 233.6C256.352 235.988 256.166 238.373 255.776 240.729L257.121 240.971C257.414 238.518 257.49 236.044 257.347 233.577C257.23 231.139 256.94 228.713 256.48 226.316Z" fill="#263238"/>
<path d="M265.781 234.046C266.588 233.482 267.446 232.995 268.345 232.592C268.97 232.272 269.642 232.069 270.299 231.811C270.955 231.553 271.659 231.42 272.339 231.224C271.643 231.365 270.94 231.467 270.252 231.646C268.163 232.17 266.176 233.039 264.374 234.218C263.166 235.023 262.063 235.977 261.091 237.055C260.428 237.782 259.832 238.567 259.309 239.4C259.244 237.646 259.281 235.89 259.419 234.14C259.6 231.732 259.934 229.338 260.419 226.972C260.661 225.87 260.919 224.768 261.201 223.674C262.972 223.221 264.721 222.699 266.445 222.111C267.336 221.798 268.212 221.454 269.072 221.071C269.942 220.707 270.751 220.211 271.471 219.602C270.727 220.173 269.899 220.626 269.017 220.946C268.149 221.29 267.258 221.587 266.367 221.86C264.718 222.345 263.038 222.759 261.357 223.119C261.646 222.064 261.951 221.008 262.318 219.992C262.67 218.828 263.139 217.71 263.561 216.569C263.983 215.428 264.515 214.333 264.992 213.216C264.468 214.31 263.897 215.389 263.428 216.506C262.959 217.624 262.436 218.726 262.029 219.875C261.145 222.156 260.395 224.486 259.786 226.855C259.182 229.231 258.73 231.644 258.434 234.077C258.108 236.533 258.006 239.013 258.129 241.487L259.481 241.331C259.481 241.245 259.481 241.151 259.481 241.065L259.911 241.221C260.414 239.969 261.093 238.795 261.928 237.735C262.769 236.637 263.746 235.65 264.835 234.796L265.437 234.359C266.267 235.033 267.172 235.61 268.134 236.078C269.169 236.602 270.293 236.925 271.448 237.032C270.318 236.846 269.233 236.448 268.251 235.859C267.364 235.347 266.536 234.739 265.781 234.046Z" fill="#263238"/>
<g opacity="0.2">
<path d="M256.48 226.316C256.045 223.912 255.439 221.543 254.666 219.226C253.906 216.916 252.989 214.66 251.923 212.473C252.881 214.702 253.691 216.992 254.346 219.328C255 221.654 255.488 224.023 255.807 226.417C255.807 226.581 255.847 226.738 255.87 226.902C255.284 226.496 254.69 226.12 254.08 225.745C253.241 225.251 252.377 224.8 251.493 224.393C249.737 223.553 247.849 223.024 245.912 222.83C247.827 223.113 249.678 223.726 251.383 224.643C253.017 225.497 254.562 226.51 255.995 227.668C256.212 229.638 256.325 231.618 256.331 233.6C256.352 235.988 256.166 238.373 255.776 240.729L257.121 240.971C257.414 238.518 257.49 236.044 257.347 233.577C257.23 231.139 256.94 228.713 256.48 226.316Z" fill="white"/>
<path d="M265.781 234.046C266.588 233.482 267.446 232.995 268.345 232.592C268.97 232.272 269.642 232.069 270.299 231.811C270.955 231.553 271.659 231.42 272.339 231.224C271.643 231.365 270.94 231.467 270.252 231.646C268.163 232.17 266.176 233.039 264.374 234.218C263.166 235.023 262.063 235.977 261.091 237.055C260.428 237.782 259.832 238.567 259.309 239.4C259.244 237.646 259.281 235.89 259.418 234.14C259.6 231.732 259.934 229.338 260.419 226.972C260.661 225.87 260.919 224.768 261.201 223.674C262.972 223.221 264.721 222.699 266.445 222.111C267.336 221.798 268.212 221.454 269.072 221.071C269.942 220.707 270.751 220.211 271.471 219.602C270.727 220.173 269.899 220.626 269.017 220.946C268.149 221.29 267.258 221.587 266.367 221.86C264.718 222.345 263.037 222.759 261.357 223.119C261.646 222.064 261.951 221.008 262.318 219.992C262.67 218.828 263.139 217.71 263.561 216.569C263.983 215.428 264.515 214.333 264.991 213.216C264.468 214.31 263.897 215.389 263.428 216.506C262.959 217.624 262.436 218.726 262.029 219.875C261.144 222.156 260.395 224.486 259.786 226.855C259.182 229.231 258.73 231.644 258.434 234.077C258.108 236.533 258.006 239.013 258.129 241.487L259.481 241.331C259.481 241.245 259.481 241.151 259.481 241.065L259.911 241.221C260.414 239.969 261.093 238.795 261.928 237.735C262.769 236.637 263.746 235.65 264.835 234.796L265.437 234.359C266.267 235.033 267.172 235.61 268.134 236.078C269.169 236.602 270.293 236.925 271.448 237.032C270.318 236.846 269.233 236.448 268.251 235.859C267.364 235.347 266.535 234.739 265.781 234.046Z" fill="white"/>
</g>
<path d="M249.758 245.098C249.977 243.426 252.196 241.972 252.064 240.87C252.067 240.607 252.142 240.349 252.279 240.125C252.417 239.901 252.612 239.718 252.845 239.596C253.119 239.408 253.947 238.814 254.244 238.877C254.372 238.925 254.507 238.951 254.643 238.955C254.94 238.908 255.065 238.509 255.354 238.423L255.55 238.384C255.635 238.364 255.713 238.32 255.775 238.258C255.837 238.196 255.881 238.118 255.901 238.032C255.901 237.915 255.901 237.79 255.987 237.696C256.047 237.639 256.116 237.591 256.19 237.556C256.329 237.441 256.443 237.3 256.527 237.141C256.613 237.016 257.011 236.704 257.199 236.75C257.252 236.767 257.299 236.799 257.332 236.844C257.56 237.049 257.714 237.324 257.769 237.626C257.769 237.79 257.769 237.978 257.84 238.111C257.91 238.243 258.379 238.236 258.52 238.454C258.569 238.567 258.606 238.685 258.629 238.806C258.746 239.072 259.137 239.15 259.2 239.439C259.286 239.854 259.278 239.893 259.716 239.713C259.974 239.603 260.192 239.416 260.45 239.299C260.572 239.23 260.707 239.189 260.846 239.179C260.985 239.168 261.124 239.188 261.255 239.237C261.385 239.286 261.503 239.364 261.6 239.463C261.698 239.563 261.772 239.683 261.818 239.814C262.6 241.159 262.037 241.776 262.842 242.746C263.647 243.715 264.343 244.215 264.335 245.09C264.327 245.966 263.514 249.35 263.108 249.616C262.701 249.882 262.17 249.538 260.826 250.398C259.481 251.257 260.2 252.055 258.629 252.055C257.058 252.055 256.659 251.898 256.284 252.055C255.909 252.211 256.019 253.704 254.401 252.055C252.783 250.406 249.367 248.24 249.758 245.098Z" fill="#263238"/>
<path d="M262.115 248.717C262.237 249.058 262.282 249.422 262.248 249.782C262.215 250.143 262.102 250.491 261.92 250.804C261.779 251.101 261.584 251.375 261.451 251.586C261.318 251.824 261.279 252.102 261.341 252.367C261.362 252.511 261.404 252.651 261.466 252.782C261.553 252.927 261.616 253.086 261.654 253.251C261.649 253.401 261.668 253.551 261.709 253.696C261.709 253.759 261.771 253.829 261.803 253.923C261.815 253.974 261.815 254.028 261.803 254.08C261.791 254.131 261.767 254.179 261.732 254.22C261.607 254.368 261.498 254.423 261.435 254.564C261.367 254.701 261.315 254.845 261.279 254.994C261.202 255.296 261.152 255.605 261.13 255.916C261.12 255.602 261.141 255.288 261.193 254.978C261.216 254.817 261.258 254.66 261.318 254.509C261.365 254.353 261.529 254.22 261.592 254.126C261.654 254.032 261.592 253.938 261.513 253.774C261.448 253.623 261.411 253.462 261.404 253.298C261.353 253.164 261.284 253.038 261.201 252.922C261.117 252.773 261.054 252.612 261.013 252.446C260.915 252.103 260.943 251.737 261.091 251.414C261.232 251.093 261.38 250.835 261.49 250.562C261.599 250.301 261.663 250.023 261.678 249.741C261.695 249.489 261.65 249.236 261.545 249.006L262.115 248.717Z" fill="#263238"/>
<path d="M258.246 250.452C258.134 251.042 258.202 251.652 258.442 252.203C258.561 252.347 258.658 252.508 258.731 252.68C258.774 252.898 258.732 253.125 258.614 253.313C258.542 253.43 258.497 253.56 258.481 253.696C258.484 253.847 258.505 253.996 258.543 254.142C258.629 254.798 258.681 255.458 258.7 256.119C258.7 256.44 258.856 256.744 258.903 257.081C258.941 257.244 258.938 257.414 258.892 257.575C258.847 257.736 258.762 257.883 258.645 258.003C258.749 257.879 258.821 257.731 258.852 257.573C258.883 257.414 258.874 257.25 258.825 257.096C258.746 256.784 258.598 256.479 258.528 256.15C258.459 255.502 258.355 254.857 258.215 254.22C258.156 254.05 258.117 253.875 258.098 253.696C258.096 253.503 258.142 253.313 258.231 253.141C258.363 252.805 258.301 252.844 258.02 252.492C257.659 251.865 257.501 251.142 257.566 250.421L258.246 250.452Z" fill="#263238"/>
<path d="M255.167 249.741L254.963 251.304C254.935 251.388 254.935 251.479 254.963 251.562C255.003 251.664 255.081 251.766 255.143 251.914C255.191 252 255.216 252.097 255.216 252.195C255.216 252.294 255.191 252.391 255.143 252.477C255.05 252.603 254.929 252.707 254.791 252.782C254.697 252.82 254.621 252.894 254.58 252.987C254.539 253.081 254.537 253.186 254.573 253.282C254.675 253.535 254.756 253.797 254.815 254.064C254.796 254.324 254.796 254.585 254.815 254.845C254.841 254.97 254.895 255.087 254.974 255.187C255.053 255.288 255.153 255.368 255.268 255.424C255.142 255.378 255.028 255.304 254.935 255.208C254.841 255.112 254.771 254.996 254.729 254.869C254.69 254.61 254.669 254.349 254.666 254.087C254.58 253.848 254.475 253.615 254.354 253.391C254.306 253.239 254.306 253.075 254.354 252.922C254.408 252.767 254.509 252.634 254.643 252.539C254.73 252.479 254.806 252.405 254.87 252.32C254.879 252.288 254.88 252.254 254.874 252.222C254.867 252.189 254.852 252.159 254.831 252.133L254.62 251.82C254.527 251.67 254.48 251.496 254.487 251.32V249.757L255.167 249.741Z" fill="#263238"/>
<path d="M252.611 249.069C252.564 249.069 252.431 249.069 252.329 249.249C252.224 249.423 252.17 249.623 252.173 249.827C252.161 250.047 252.193 250.268 252.267 250.476C252.381 250.722 252.449 250.987 252.47 251.257V251.414H252.321C252.213 251.428 252.11 251.465 252.017 251.522C251.924 251.579 251.844 251.655 251.782 251.745C251.72 251.835 251.678 251.937 251.658 252.044C251.637 252.151 251.64 252.261 251.665 252.367C251.782 252.6 251.884 252.84 251.97 253.086C252.048 253.34 252.088 253.603 252.087 253.868C252.058 253.612 251.992 253.362 251.892 253.126C251.79 252.891 251.641 252.68 251.509 252.438C251.454 252.297 251.432 252.147 251.443 251.997C251.455 251.847 251.5 251.701 251.575 251.571C251.649 251.441 251.753 251.329 251.876 251.243C252 251.158 252.142 251.101 252.29 251.078L252.134 251.25C252.082 251.031 251.995 250.822 251.876 250.632C251.758 250.387 251.686 250.122 251.665 249.851C251.639 249.553 251.69 249.255 251.813 248.983C251.886 248.828 251.993 248.692 252.126 248.584C252.206 248.517 252.298 248.467 252.397 248.436C252.496 248.405 252.601 248.394 252.704 248.405L252.611 249.069Z" fill="#263238"/>
<path d="M250.524 246.81C250.586 246.81 250.524 246.763 250.399 246.81C250.295 246.907 250.229 247.037 250.211 247.177C250.17 247.384 250.107 247.586 250.023 247.779C249.985 247.843 249.964 247.916 249.964 247.99C249.964 248.065 249.985 248.138 250.023 248.201C250.062 248.284 250.109 248.363 250.164 248.436C250.212 248.484 250.249 248.541 250.273 248.605C250.298 248.668 250.308 248.735 250.305 248.803C250.289 248.867 250.26 248.926 250.22 248.977C250.18 249.029 250.128 249.07 250.07 249.1C249.999 249.159 249.931 249.221 249.867 249.288C249.804 249.356 249.756 249.436 249.725 249.523C249.694 249.611 249.681 249.703 249.687 249.796C249.696 249.892 249.735 249.983 249.798 250.056C249.861 250.128 249.945 250.18 250.039 250.202C249.936 250.189 249.84 250.144 249.763 250.074C249.686 250.004 249.632 249.913 249.609 249.811C249.585 249.706 249.583 249.597 249.603 249.49C249.623 249.384 249.665 249.283 249.726 249.194C249.828 249.014 250.07 248.842 250.055 248.772C250.039 248.702 249.836 248.553 249.726 248.373C249.653 248.269 249.606 248.149 249.587 248.023C249.568 247.896 249.578 247.768 249.617 247.646C249.665 247.462 249.697 247.274 249.711 247.084C249.722 246.822 249.821 246.571 249.992 246.372C250.102 246.26 250.239 246.179 250.391 246.138C250.487 246.113 250.587 246.11 250.685 246.129C250.782 246.148 250.874 246.188 250.954 246.247L250.524 246.81Z" fill="#263238"/>
<path d="M263.092 247.091C263.092 247.042 263.104 246.993 263.125 246.948C263.147 246.903 263.178 246.864 263.217 246.833C263.255 246.801 263.298 246.777 263.345 246.762C263.392 246.747 263.442 246.742 263.491 246.747C263.567 246.75 263.64 246.774 263.702 246.818C263.784 246.875 263.849 246.953 263.89 247.045L263.991 247.271C264.061 247.428 264.132 247.576 264.202 247.764C264.286 247.967 264.302 248.191 264.249 248.405C264.183 248.586 264.079 248.751 263.944 248.889C263.841 248.997 263.767 249.13 263.73 249.276C263.693 249.421 263.694 249.573 263.733 249.718C263.819 249.881 263.844 250.069 263.804 250.249C263.742 250.412 263.652 250.563 263.538 250.695C263.622 250.551 263.683 250.396 263.718 250.234C263.727 250.073 263.677 249.914 263.577 249.788C263.498 249.614 263.465 249.424 263.48 249.234C263.495 249.044 263.558 248.861 263.663 248.702C263.858 248.381 263.89 248.217 263.733 247.967C263.663 247.85 263.561 247.701 263.467 247.56L263.327 247.349C263.28 247.279 263.327 247.388 263.327 247.349C263.357 247.358 263.39 247.358 263.421 247.349C263.459 247.353 263.497 247.349 263.534 247.337C263.57 247.324 263.603 247.305 263.632 247.279C263.662 247.254 263.686 247.223 263.704 247.188C263.721 247.153 263.731 247.115 263.733 247.076L263.092 247.091Z" fill="#263238"/>
<path opacity="0.2" d="M183.749 199.662C183.749 199.662 183.062 214.701 160.973 212.168C166.389 207.091 171.502 201.698 176.285 196.02C179.089 196.436 181.696 197.708 183.749 199.662Z" fill="black"/>
<path d="M184.07 197.982C182.421 199.647 180.646 201.413 178.997 203.18C177.348 204.946 175.699 206.736 174.128 208.526C172.618 210.257 171.198 212.065 169.876 213.943C169.338 214.733 168.857 215.561 168.437 216.42C168.25 216.78 168.179 217.046 168.125 217.155C168.058 216.874 167.966 216.599 167.851 216.334C167.851 216.334 167.789 216.248 167.804 216.264V216.311L167.851 216.413L167.945 216.608L168.234 217.069L168.609 217.577L169.047 218.101C169.751 218.871 170.511 219.586 171.322 220.242C173.127 221.705 175.028 223.044 177.012 224.252C179.036 225.534 181.162 226.738 183.32 227.918C185.477 229.098 187.697 230.263 189.854 231.334L188.166 236.188C183.07 234.973 178.098 233.288 173.315 231.154C172.111 230.607 170.91 230.013 169.711 229.372C168.485 228.732 167.295 228.025 166.147 227.254C164.912 226.434 163.739 225.525 162.638 224.534L161.778 223.697L160.934 222.751C160.66 222.408 160.387 222.048 160.152 221.681L159.769 221.071L159.574 220.758L159.48 220.602C159.43 220.508 159.386 220.412 159.347 220.313C159.153 219.884 158.989 219.443 158.855 218.992C158.779 218.599 158.727 218.203 158.698 217.804C158.652 217.454 158.639 217.101 158.659 216.749C158.665 216.427 158.689 216.106 158.73 215.787C158.863 214.799 159.106 213.829 159.456 212.895C160.008 211.431 160.694 210.021 161.504 208.682C162.924 206.336 164.507 204.092 166.241 201.968C167.898 199.889 169.625 197.919 171.4 196.012C173.174 194.105 174.964 192.284 176.949 190.455L184.07 197.982Z" fill="#FFB573"/>
<path d="M186.055 184.718C178.497 182.74 165.506 196.88 165.506 196.88L177.918 206.259C177.918 206.259 196.881 187.547 186.055 184.718Z" fill="#263238"/>
<path d="M198.811 232.389L192.105 231.177L186.102 228.051L182.452 236.883L186.813 236.743C188.141 237.819 189.635 238.672 191.237 239.267L199.233 243.73L204.642 237.087L198.811 232.389Z" fill="#407BFF"/>
<path opacity="0.6" d="M198.811 232.389L192.105 231.177L186.102 228.051L182.452 236.883L186.813 236.743C188.141 237.819 189.635 238.672 191.237 239.267L199.233 243.73L204.642 237.087L198.811 232.389Z" fill="white"/>
<path d="M306.905 281.385V292.07H305.835C305.835 292.07 305.194 286.224 302.63 284.152C300.066 282.081 306.905 281.385 306.905 281.385Z" fill="#407BFF"/>
<path opacity="0.2" d="M306.905 281.385V292.07H305.835C305.835 292.07 305.194 286.224 302.63 284.152C300.066 282.081 306.905 281.385 306.905 281.385Z" fill="black"/>
<path d="M288.42 319.224C288.928 312.518 292.477 303.654 294.72 298.323C295.525 296.413 295.939 294.362 295.939 292.289H301.528V292.328C301.529 294.383 301.935 296.418 302.724 298.316C304.967 303.677 308.523 312.604 309.039 319.201C309.059 319.427 309.031 319.655 308.958 319.87C308.885 320.085 308.767 320.283 308.614 320.45C308.46 320.618 308.274 320.752 308.066 320.843C307.858 320.935 307.633 320.982 307.406 320.983H290.022C289.8 320.977 289.581 320.926 289.379 320.834C289.177 320.741 288.996 320.609 288.846 320.445C288.697 320.281 288.582 320.088 288.509 319.878C288.435 319.668 288.405 319.446 288.42 319.224Z" fill="#407BFF"/>
<path opacity="0.7" d="M288.42 319.224C288.928 312.518 292.477 303.654 294.72 298.323C295.525 296.413 295.939 294.362 295.939 292.289H301.528V292.328C301.529 294.383 301.935 296.418 302.724 298.316C304.967 303.677 308.523 312.604 309.039 319.201C309.059 319.427 309.031 319.655 308.958 319.87C308.885 320.085 308.767 320.283 308.614 320.45C308.46 320.618 308.274 320.752 308.066 320.843C307.858 320.935 307.633 320.982 307.406 320.983H290.022C289.8 320.977 289.581 320.926 289.379 320.834C289.177 320.741 288.996 320.609 288.846 320.445C288.697 320.281 288.582 320.088 288.509 319.878C288.435 319.668 288.405 319.446 288.42 319.224Z" fill="white"/>
<path d="M295.689 292.813H301.684V286.818H295.689V292.813Z" fill="#407BFF"/>
<path d="M296.705 287.545L293.211 282.62V279.338H309.829V281.386C309.829 281.386 301.7 283.793 300.84 287.576H296.705" fill="#407BFF"/>
<path opacity="0.2" d="M295.689 292.813H301.684V286.818H295.689V292.813Z" fill="black"/>
<path d="M294.227 286.411H242.875L248.87 327.259H288.24L294.227 286.411Z" fill="#263238"/>
<path opacity="0.7" d="M294.235 286.411L290.999 308.437L290.945 308.828L290.218 313.753L290.108 314.519L289.725 317.145L289.499 318.685L289.256 320.334L288.967 322.288L288.811 323.312L288.529 325.266L288.232 327.259H248.87L248.573 325.266L248.291 323.312L248.143 322.288L247.854 320.334L247.611 318.685L247.385 317.145L247.002 314.519L246.884 313.753L246.165 308.828L246.103 308.437L242.875 286.411H294.235Z" fill="white"/>
<path d="M295.58 285.411H241.522V290.429H295.58V285.411Z" fill="#263238"/>
<path opacity="0.5" d="M295.58 285.411H241.522V290.429H295.58V285.411Z" fill="white"/>
<g opacity="0.2">
<path d="M288.811 323.312L288.529 325.266H248.573L248.291 323.312H288.811Z" fill="black"/>
<path d="M289.256 320.334L288.967 322.288H248.143L247.854 320.334H289.256Z" fill="black"/>
<path d="M289.725 317.145L289.499 318.685H247.611L247.385 317.145H289.725Z" fill="black"/>
<path d="M290.218 313.753L290.108 314.519H247.002L246.884 313.753H290.218Z" fill="black"/>
<path d="M290.999 308.438L290.945 308.828H246.165L246.103 308.438H290.999Z" fill="black"/>
</g>
</g>
<defs>
<clipPath id="clip0_232_996">
<rect width="390.813" height="390.813" fill="white"/>
</clipPath>
</defs>
</svg>
