<svg width="88" height="137" viewBox="0 0 88 137" fill="none" xmlns="http://www.w3.org/2000/svg">
<path d="M44.0001 84.1953C42.7789 84.1953 41.802 83.2183 41.802 81.9971V72.6866L29.9318 69.1353L21.5787 62.0034L41.802 68.0606V66.7124C41.802 61.8276 43.1697 56.9916 45.9052 52.8883C46.721 51.6525 47.4 50.3433 47.9324 48.9805L37.1076 45.7418L24.5048 37.335L49.095 44.7062C49.2806 43.573 49.3735 42.425 49.3735 41.2624V31.0043H53.7698V41.2624C53.7698 41.8291 53.7503 42.3908 53.7112 42.9526L72.6693 37.2862L58.005 46.2987L52.9198 47.813C52.2239 50.4345 51.1071 52.9256 49.6128 55.1891C47.3658 58.6085 46.1934 62.614 46.1934 66.7173V71.5631L66.3678 65.5156L53.9799 73.8589L46.1983 76.189V82.002C46.1983 83.2232 45.2213 84.1953 44.0001 84.1953Z" fill="#44911B"/>
<path d="M50.8485 0.351929C41.8995 10.7566 41.6357 27.9122 50.2721 38.693C50.6727 39.1717 51.3321 39.2255 51.7278 38.7419C60.6768 28.3372 60.9406 11.1865 52.3042 0.405662C51.9037 -0.126786 51.2442 -0.13167 50.8485 0.351929ZM17.8661 46.5332L0.769191 41.4041C-2.11286 51.0272 3.35815 61.1388 12.9324 64.0697L30.0294 69.1988C32.9603 59.5757 27.4893 49.4152 17.8661 46.5332ZM83.2253 46.0935L66.1283 51.2226C56.5052 54.1535 51.0342 64.2651 53.9651 73.8883L71.062 68.7592C80.6363 65.8283 86.1073 55.7167 83.2253 46.0935ZM25.0468 23.1348L7.9499 18.0057C5.1167 27.6289 10.5389 37.7405 20.162 40.6714L37.2589 45.8005C38.641 41.1754 38.1312 36.1909 35.8416 31.9414C33.5519 27.6918 29.6696 24.5245 25.0468 23.1348ZM87.2308 18.5431L70.1339 23.6721C67.8425 24.3546 65.7087 25.4837 63.8555 26.9943C62.0022 28.5048 60.4661 30.3671 59.3355 32.4738C58.205 34.5805 57.5024 36.89 57.2681 39.2694C57.0339 41.6488 57.2726 44.0511 57.9706 46.3378L75.0676 41.2087C84.6418 38.2778 90.1129 28.1662 87.2308 18.5431Z" fill="#86D72F"/>
<path d="M73.2703 87.9272C64.8186 81.5783 54.5319 78.1494 43.9612 78.1575C32.9655 78.1575 22.7855 81.8211 14.6522 87.9272L43.9612 97.5454L73.2703 87.9272Z" fill="#7D4533"/>
<path d="M9.80127 107.447L13.6114 130.357C14.2465 134.069 17.4216 136.756 21.1341 136.756H66.8073C70.5198 136.756 73.7438 134.069 74.33 130.357L78.189 107.447L43.9951 99.6799L9.80127 107.447Z" fill="#F3AD61"/>
<path d="M80.5974 107.466H7.32486C5.95711 107.466 4.88245 106.392 4.88245 105.024V90.3694C4.88245 89.0017 5.95711 87.927 7.32486 87.927H80.5974C81.9652 87.927 83.0398 89.0017 83.0398 90.3694V105.024C83.0398 106.392 81.9652 107.466 80.5974 107.466Z" fill="#F3C07B"/>
</svg>
