<svg width="183" height="62" viewBox="0 0 183 62" fill="none" xmlns="http://www.w3.org/2000/svg">
<g filter="url(#filter0_d_43_104)">
<g filter="url(#filter1_d_43_104)">
<path d="M20.0698 44.4838C21.477 44.4838 22.661 44.2779 23.622 43.866C24.6173 43.4542 25.4581 42.9908 26.1446 42.476C26.831 41.9612 27.4316 41.4979 27.9464 41.086C28.4955 40.6742 29.0447 40.4683 29.5938 40.4683C30.2802 40.4683 30.6234 40.9831 30.6234 42.0127C30.6234 42.5618 30.5548 43.2311 30.4175 44.0205C30.2802 44.7755 30.0914 45.6335 29.8512 46.5945C29.7139 47.178 29.3707 47.8129 28.8216 48.4993C28.3068 49.1857 27.586 49.8378 26.6594 50.4556C25.7327 51.039 24.583 51.5367 23.2101 51.9485C21.8716 52.326 20.3272 52.5148 18.5769 52.5148C16.8265 52.5148 15.0762 52.2574 13.3258 51.7426C11.5755 51.2278 10.0139 50.3526 8.64104 49.1171C7.26822 47.8815 6.1528 46.217 5.29478 44.1234C4.43676 42.0299 4.00776 39.4043 4.00776 36.2468C4.00776 35.1143 4.0764 33.8101 4.21368 32.3343C4.38528 30.8242 4.69417 29.2797 5.14034 27.701C5.5865 26.1223 6.20428 24.5778 6.99365 23.0677C7.81735 21.5233 8.86412 20.1505 10.134 18.9492C11.4039 17.748 12.9483 16.787 14.7673 16.0663C16.6206 15.3113 18.8171 14.9337 21.3568 14.9337C23.3817 14.9337 25.1321 15.174 26.6079 15.6545C28.118 16.135 29.3535 16.8042 30.3145 17.6622C31.3098 18.4859 32.0305 19.4641 32.4767 20.5966C32.9572 21.7292 33.1974 22.9304 33.1974 24.2003C33.1974 26.3968 32.5454 28.0099 31.2412 29.0395C29.9713 30.0348 28.1523 30.5325 25.7842 30.5325C25.0291 30.5325 24.5486 30.481 24.3427 30.378C24.1711 30.2407 24.0853 29.9833 24.0853 29.6058C24.051 28.4389 24.0167 27.4264 23.9824 26.5684C23.948 25.7104 23.8279 25.0068 23.622 24.4577C23.4161 23.8742 23.09 23.4624 22.6439 23.2222C22.232 22.9476 21.6486 22.8103 20.8935 22.8103C19.7952 22.8103 18.8514 23.0506 18.0621 23.531C17.307 23.9772 16.6549 24.5778 16.1058 25.3329C15.591 26.0536 15.162 26.8773 14.8188 27.804C14.5099 28.7306 14.2525 29.6744 14.0465 30.6354C13.8749 31.5964 13.7548 32.523 13.6862 33.4154C13.6519 34.3077 13.6347 35.0799 13.6347 35.732C13.6347 38.8895 14.1495 41.1375 15.1791 42.476C16.2431 43.8145 17.8733 44.4838 20.0698 44.4838ZM52.9758 45.6164C53.0787 44.4838 53.1817 43.2997 53.2847 42.0642C53.4219 40.8286 53.5249 39.6446 53.5935 38.512C53.6965 37.3794 53.7823 36.367 53.8509 35.4746C53.9196 34.5823 53.9539 33.9302 53.9539 33.5183C53.9539 32.626 53.7308 31.8366 53.2847 31.1502C52.8728 30.4295 52.0491 30.0691 50.8136 30.0691C49.1662 30.0691 47.8277 30.8413 46.7981 32.3858C45.8028 33.9302 45.2193 35.9894 45.0477 38.5635C44.9791 39.2842 44.8933 40.2967 44.7903 41.6009C44.6873 42.8707 44.5844 44.1749 44.4814 45.5134C44.3785 46.8176 44.2755 48.0016 44.1725 49.0656C44.1039 50.0952 44.0696 50.7301 44.0696 50.9704C44.0696 51.3822 43.9838 51.6568 43.8122 51.7941C43.6749 51.9314 43.3832 52 42.937 52H41.0837C40.0197 52 39.1446 51.897 38.4582 51.6911C37.8061 51.4509 37.2741 51.1248 36.8622 50.713C36.4847 50.3011 36.2102 49.8035 36.0385 49.22C35.9013 48.6023 35.8326 47.8987 35.8326 47.1093C35.8326 46.3543 35.8841 45.3075 35.9871 43.969C36.1243 42.5961 36.296 40.7257 36.5019 38.3576C36.7078 35.9551 36.948 32.9006 37.2226 29.1939C37.4972 25.4873 37.7889 20.8884 38.0978 15.3971C38.1321 14.642 38.2179 14.1958 38.3552 14.0586C38.4582 13.9556 38.7327 13.9041 39.1789 13.9041H41.1866C42.2163 13.9041 43.0743 14.0242 43.7607 14.2645C44.4471 14.5047 44.9962 14.8308 45.4081 15.2426C45.8199 15.6545 46.1116 16.135 46.2833 16.6841C46.4549 17.1989 46.5407 17.748 46.5407 18.3315C46.5407 18.9492 46.472 20.099 46.3347 21.7807C46.2318 23.4624 46.0945 25.4358 45.9229 27.701C46.9525 25.985 48.0851 24.8009 49.3206 24.1488C50.5905 23.4967 52.1864 23.1707 54.1084 23.1707C55.5498 23.1707 56.8025 23.3251 57.8665 23.634C58.9304 23.9429 59.8056 24.4749 60.492 25.2299C61.2127 25.9506 61.7447 26.9116 62.0879 28.1128C62.4311 29.2797 62.6027 30.7384 62.6027 32.4887C62.6027 33.0379 62.5512 33.9817 62.4483 35.3202C62.3453 36.6587 62.208 38.1859 62.0364 39.902C61.8991 41.618 61.7447 43.4198 61.5731 45.3075C61.4358 47.1608 61.3157 48.8597 61.2127 50.4041C61.1784 50.7816 61.1441 51.0733 61.1098 51.2793C61.0754 51.4852 61.0068 51.6396 60.9038 51.7426C60.8352 51.8456 60.7151 51.9142 60.5435 51.9485C60.3719 51.9828 60.1316 52 59.8227 52H58.1753C57.0771 52 56.1848 51.897 55.4983 51.6911C54.8119 51.4852 54.28 51.1935 53.9024 50.8159C53.5249 50.4384 53.2503 49.9751 53.0787 49.426C52.9415 48.8425 52.8728 48.1904 52.8728 47.4697C52.8728 47.1265 52.8728 46.8004 52.8728 46.4915C52.9071 46.1827 52.9415 45.8909 52.9758 45.6164ZM65.6606 45.6678C65.6606 42.579 67.0506 40.1594 69.8305 38.409C72.6105 36.6587 76.7118 35.7149 82.1345 35.5776C82.1688 35.2001 82.186 34.8912 82.186 34.6509C82.2203 34.3764 82.2375 34.0503 82.2375 33.6728C82.2375 32.5745 82.0315 31.6994 81.6197 31.0473C81.2078 30.3952 80.3498 30.0691 79.0456 30.0691C78.3249 30.0691 77.7415 30.1721 77.2953 30.378C76.8491 30.5839 76.4887 30.8757 76.2142 31.2532C75.9396 31.5964 75.7165 32.0254 75.5449 32.5402C75.3733 33.055 75.2189 33.6213 75.0816 34.2391C75.013 34.548 74.8585 34.7539 74.6183 34.8568C74.378 34.9255 74.0005 34.9598 73.4857 34.9598C69.985 34.9598 68.2346 33.6385 68.2346 30.9958C68.2346 29.9318 68.4749 28.9194 68.9554 27.9584C69.4702 26.9974 70.2081 26.1737 71.1691 25.4873C72.1644 24.7666 73.3999 24.2003 74.8757 23.7884C76.3515 23.3766 78.0675 23.1707 80.0238 23.1707C83.8334 23.1707 86.5962 23.9601 88.3122 25.5388C90.0282 27.1175 90.8863 29.3484 90.8863 32.2313C90.8863 32.6088 90.8348 33.2953 90.7318 34.2906C90.6632 35.2515 90.5602 36.2812 90.4229 37.3794C90.32 38.4434 90.217 39.4558 90.114 40.4168C90.0454 41.3778 90.0111 42.047 90.0111 42.4245C90.0111 43.2826 90.1655 43.9003 90.4744 44.2779C90.7833 44.6211 91.1265 44.8613 91.504 44.9986C91.9159 45.1359 92.2762 45.2388 92.5851 45.3075C92.894 45.3761 93.0485 45.5477 93.0485 45.8223C93.0485 46.5773 92.9455 47.3496 92.7396 48.1389C92.5336 48.9283 92.1904 49.649 91.7099 50.3011C91.2638 50.9532 90.6288 51.4852 89.8052 51.897C89.0158 52.3089 88.0376 52.5148 86.8707 52.5148C85.2233 52.5148 83.9878 52.1201 83.1641 51.3307C82.3404 50.5414 81.7913 49.4431 81.5167 48.036C80.693 49.2372 79.6119 50.284 78.2734 51.1763C76.9692 52.0686 75.2532 52.5148 73.1253 52.5148C72.0957 52.5148 71.1176 52.3947 70.1909 52.1544C69.2986 51.9142 68.5092 51.5195 67.8228 50.9704C67.1707 50.4213 66.6387 49.7177 66.2269 48.8597C65.8494 47.9673 65.6606 46.9034 65.6606 45.6678ZM81.6712 39.799C80.7788 39.799 79.9037 39.8677 79.0456 40.0049C78.1876 40.1422 77.4154 40.3653 76.729 40.6742C76.0769 40.9488 75.5449 41.3263 75.1331 41.8068C74.7212 42.2873 74.5153 42.8707 74.5153 43.5571C74.5153 44.3465 74.7556 44.8956 75.236 45.2045C75.7509 45.5134 76.3 45.6678 76.8834 45.6678C77.4326 45.6678 77.9817 45.5477 78.5308 45.3075C79.08 45.0672 79.5604 44.7069 79.9723 44.2264C80.4185 43.7116 80.796 43.0938 81.1049 42.3731C81.4138 41.6523 81.6025 40.7943 81.6712 39.799ZM80.4871 20.3392C80.2469 20.3392 79.9723 20.2534 79.6634 20.0818C79.3888 19.9102 79.1143 19.7043 78.8397 19.4641C78.5651 19.1895 78.3249 18.9149 78.119 18.6404C77.9474 18.3315 77.8616 18.0741 77.8616 17.8681C77.8616 17.7995 78.0332 17.5078 78.3764 16.993C78.7196 16.4782 79.1486 15.8432 79.6634 15.0882C80.1782 14.3331 80.7445 13.5094 81.3623 12.6171C81.98 11.7248 82.5635 10.8839 83.1126 10.0945C83.3186 9.78564 83.4902 9.57971 83.6274 9.47675C83.7647 9.37379 83.9878 9.32231 84.2967 9.32231C84.7085 9.32231 85.2405 9.42527 85.8926 9.63119C86.5447 9.83712 87.1796 10.0945 87.7974 10.4034C88.4152 10.7123 88.9471 11.0555 89.3933 11.433C89.8395 11.7762 90.0626 12.1023 90.0626 12.4112C90.0626 12.6514 89.8566 13.0118 89.4448 13.4923C89.0673 13.9728 88.5696 14.5047 87.9518 15.0882C87.3341 15.6716 86.6477 16.2722 85.8926 16.89C85.1375 17.5078 84.3997 18.0741 83.6789 18.5889C82.9582 19.1037 82.3061 19.5327 81.7226 19.8759C81.1735 20.1848 80.7617 20.3392 80.4871 20.3392ZM95.0293 52C94.6517 52 94.463 51.8112 94.463 51.4337L94.6174 48.6537C94.6517 48.3449 94.7032 47.9673 94.7719 47.5212C94.8405 47.0407 94.9949 46.646 95.2352 46.3371C95.8186 45.2732 96.5222 44.1234 97.3459 42.8879C98.1696 41.6523 99.1649 40.1422 100.332 38.3576C101.499 36.5729 102.854 34.4278 104.399 31.9224C105.978 29.3827 107.797 26.2939 109.856 22.6559H98.1181C97.8435 22.6559 97.6719 22.6044 97.6033 22.5014C97.569 22.3985 97.5518 22.2097 97.5518 21.9351L97.7063 19.0522C97.7406 18.606 97.7921 18.177 97.8607 17.7652C97.9637 17.319 98.1353 16.9243 98.3755 16.5811C98.6501 16.2379 99.0276 15.9633 99.5081 15.7574C99.9886 15.5515 100.624 15.4485 101.413 15.4485H121.079C121.285 15.4485 121.473 15.5 121.645 15.603C121.817 15.7059 121.902 15.8947 121.902 16.1693L121.696 18.9492C121.628 19.8416 121.422 20.5795 121.079 21.1629C120.976 21.3345 120.478 22.1582 119.586 23.634C118.693 25.0755 117.561 26.9116 116.188 29.1425C114.815 31.3733 113.271 33.8616 111.555 36.6072C109.873 39.3529 108.174 42.0813 106.458 44.7927H119.534C119.74 44.7927 119.929 44.8442 120.1 44.9471C120.272 45.0501 120.358 45.2388 120.358 45.5134L120.152 48.5508C120.083 49.5804 119.792 50.4213 119.277 51.0733C118.796 51.6911 117.784 52 116.239 52H95.0293ZM136.058 52.5148C134.548 52.5148 133.038 52.326 131.528 51.9485C130.052 51.571 128.713 50.9189 127.512 49.9922C126.345 49.0656 125.384 47.83 124.629 46.2856C123.874 44.7412 123.497 42.8021 123.497 40.4683C123.497 39.6103 123.565 38.5806 123.703 37.3794C123.84 36.1782 124.097 34.9427 124.475 33.6728C124.887 32.4029 125.436 31.1502 126.122 29.9147C126.843 28.6448 127.77 27.5122 128.902 26.5169C130.035 25.5216 131.408 24.7151 133.021 24.0973C134.634 23.4796 136.556 23.1707 138.786 23.1707C140.571 23.1707 142.081 23.3766 143.317 23.7884C144.552 24.2003 145.548 24.7666 146.303 25.4873C147.058 26.1737 147.607 26.9803 147.95 27.9069C148.293 28.8336 148.465 29.8289 148.465 30.8928C148.465 32.4716 148.139 33.8101 147.487 34.9083C146.869 36.0066 146.045 36.9332 145.016 37.6883C144.02 38.409 142.905 38.9753 141.669 39.3872C140.434 39.799 139.215 40.1251 138.014 40.3653C136.813 40.5712 135.698 40.7085 134.668 40.7772C133.673 40.8115 132.9 40.8286 132.351 40.8286C132.351 41.4807 132.437 42.1328 132.609 42.7849C132.815 43.4027 133.106 43.9518 133.484 44.4323C133.861 44.9128 134.359 45.3075 134.977 45.6164C135.595 45.9253 136.35 46.0797 137.242 46.0797C138.134 46.0797 138.821 45.9424 139.301 45.6678C139.816 45.359 140.228 45.0329 140.537 44.6897C140.846 44.3122 141.103 43.9861 141.309 43.7116C141.549 43.4027 141.858 43.2482 142.236 43.2482C142.407 43.2482 142.699 43.2997 143.111 43.4027C143.557 43.4713 144.003 43.6429 144.449 43.9175C144.896 44.1921 145.29 44.5696 145.633 45.0501C145.977 45.5306 146.148 46.1483 146.148 46.9034C146.148 47.8987 145.839 48.7567 145.222 49.4774C144.604 50.1982 143.797 50.7816 142.802 51.2278C141.841 51.674 140.76 52 139.559 52.2059C138.357 52.4118 137.191 52.5148 136.058 52.5148ZM137.036 30.0176C136.281 30.0176 135.629 30.2407 135.08 30.6869C134.565 31.0987 134.119 31.6307 133.741 32.2828C133.398 32.9349 133.124 33.6556 132.918 34.445C132.746 35.2344 132.609 35.9894 132.506 36.7102C134.634 36.6758 136.35 36.3155 137.654 35.6291C138.992 34.9427 139.662 33.9645 139.662 32.6946C139.662 32.0082 139.439 31.3905 138.992 30.8413C138.581 30.2922 137.928 30.0176 137.036 30.0176ZM169.12 47.4697C169.12 46.7146 169.172 45.7365 169.275 44.5353C169.412 43.2997 169.532 42.0127 169.635 40.6742C169.772 39.3014 169.893 37.98 169.996 36.7102C170.133 35.4403 170.201 34.3764 170.201 33.5183C170.201 32.626 169.978 31.8366 169.532 31.1502C169.12 30.4295 168.297 30.0691 167.061 30.0691C165.86 30.0691 164.865 30.3608 164.075 30.9443C163.286 31.5277 162.617 32.5917 162.067 34.1361C161.553 35.6805 161.124 37.8084 160.78 40.5198C160.437 43.2311 160.111 46.7146 159.802 50.9704C159.768 51.3822 159.682 51.6568 159.545 51.7941C159.408 51.9314 159.116 52 158.67 52H156.816C155.752 52 154.877 51.897 154.191 51.6911C153.539 51.4509 153.007 51.1248 152.595 50.713C152.217 50.3011 151.943 49.8035 151.771 49.22C151.634 48.6023 151.565 47.8987 151.565 47.1093C151.565 46.5945 151.583 45.8738 151.617 44.9471C151.685 43.9861 151.788 42.682 151.926 41.0346C152.063 39.3529 152.217 37.2421 152.389 34.7024C152.595 32.1284 152.835 28.9537 153.11 25.1784C153.144 24.4234 153.23 23.9772 153.367 23.8399C153.47 23.737 153.745 23.6855 154.191 23.6855H156.199C157.228 23.6855 158.069 23.8056 158.721 24.0459C159.408 24.2861 159.957 24.6121 160.369 25.024C160.78 25.4015 161.072 25.8648 161.244 26.414C161.415 26.9288 161.518 27.4608 161.553 28.0099C162.617 26.1909 163.835 24.9382 165.208 24.2518C166.581 23.531 168.297 23.1707 170.356 23.1707C171.797 23.1707 173.05 23.3251 174.114 23.634C175.178 23.9429 176.053 24.4749 176.74 25.2299C177.46 25.9506 177.992 26.9116 178.335 28.1128C178.679 29.2797 178.85 30.7384 178.85 32.4887C178.85 33.0379 178.816 33.8272 178.747 34.8568C178.679 35.8865 178.593 37.019 178.49 38.2546C178.387 39.4558 178.267 40.7257 178.13 42.0642C178.027 43.3684 177.924 44.5867 177.821 45.7193C177.718 46.8519 177.632 47.8472 177.563 48.7052C177.495 49.5632 177.46 50.1295 177.46 50.4041C177.46 51.1591 177.374 51.6225 177.203 51.7941C177.031 51.9314 176.654 52 176.07 52H174.423C173.325 52 172.432 51.897 171.746 51.6911C171.059 51.4852 170.528 51.1935 170.15 50.8159C169.772 50.4384 169.498 49.9751 169.326 49.426C169.189 48.8425 169.12 48.1904 169.12 47.4697Z" fill="white"/>
</g>
</g>
<defs>
<filter id="filter0_d_43_104" x="0.00775146" y="9.3223" width="182.843" height="51.1925" filterUnits="userSpaceOnUse" color-interpolation-filters="sRGB">
<feFlood flood-opacity="0" result="BackgroundImageFix"/>
<feColorMatrix in="SourceAlpha" type="matrix" values="0 0 0 0 0 0 0 0 0 0 0 0 0 0 0 0 0 0 127 0" result="hardAlpha"/>
<feOffset dy="4"/>
<feGaussianBlur stdDeviation="2"/>
<feComposite in2="hardAlpha" operator="out"/>
<feColorMatrix type="matrix" values="0 0 0 0 0 0 0 0 0 0 0 0 0 0 0 0 0 0 0.25 0"/>
<feBlend mode="normal" in2="BackgroundImageFix" result="effect1_dropShadow_43_104"/>
<feBlend mode="normal" in="SourceGraphic" in2="effect1_dropShadow_43_104" result="shape"/>
</filter>
<filter id="filter1_d_43_104" x="0.00775146" y="9.3223" width="182.843" height="51.1925" filterUnits="userSpaceOnUse" color-interpolation-filters="sRGB">
<feFlood flood-opacity="0" result="BackgroundImageFix"/>
<feColorMatrix in="SourceAlpha" type="matrix" values="0 0 0 0 0 0 0 0 0 0 0 0 0 0 0 0 0 0 127 0" result="hardAlpha"/>
<feOffset dy="4"/>
<feGaussianBlur stdDeviation="2"/>
<feComposite in2="hardAlpha" operator="out"/>
<feColorMatrix type="matrix" values="0 0 0 0 0 0 0 0 0 0 0 0 0 0 0 0 0 0 0.69 0"/>
<feBlend mode="normal" in2="BackgroundImageFix" result="effect1_dropShadow_43_104"/>
<feBlend mode="normal" in="SourceGraphic" in2="effect1_dropShadow_43_104" result="shape"/>
</filter>
</defs>
</svg>
